G04 #@! TF.GenerationSoftware,KiCad,Pcbnew,(6.0.0-rc1-dev-438-g6845ac2cc-dirty)*
G04 #@! TF.CreationDate,2018-08-30T21:51:25+02:00*
G04 #@! TF.ProjectId,RapTorS,526170546F72532E6B696361645F7063,rev?*
G04 #@! TF.SameCoordinates,Original*
G04 #@! TF.FileFunction,Copper,L2,Bot,Signal*
G04 #@! TF.FilePolarity,Positive*
%FSLAX46Y46*%
G04 Gerber Fmt 4.6, Leading zero omitted, Abs format (unit mm)*
G04 Created by KiCad (PCBNEW (6.0.0-rc1-dev-438-g6845ac2cc-dirty)) date 2018 August 30, Thursday 21:51:25*
%MOMM*%
%LPD*%
G01*
G04 APERTURE LIST*
G04 #@! TA.AperFunction,BGAPad,CuDef*
%ADD10C,1.500000*%
G04 #@! TD*
G04 #@! TA.AperFunction,ComponentPad*
%ADD11C,2.000000*%
G04 #@! TD*
G04 #@! TA.AperFunction,Conductor*
%ADD12C,0.100000*%
G04 #@! TD*
G04 #@! TA.AperFunction,ComponentPad*
%ADD13C,1.300000*%
G04 #@! TD*
G04 #@! TA.AperFunction,ViaPad*
%ADD14C,0.800000*%
G04 #@! TD*
G04 #@! TA.AperFunction,Conductor*
%ADD15C,0.250000*%
G04 #@! TD*
G04 #@! TA.AperFunction,Conductor*
%ADD16C,0.254000*%
G04 #@! TD*
G04 APERTURE END LIST*
D10*
G04 #@! TO.P,J2,1*
G04 #@! TO.N,~MCLR*
X147997200Y-92523800D03*
G04 #@! TD*
D11*
G04 #@! TO.P,ANT1,1*
G04 #@! TO.N,Net-(ANT1-Pad1)*
X179679600Y-106603800D03*
G04 #@! TD*
D10*
G04 #@! TO.P,J6,1*
G04 #@! TO.N,ISPCLK*
X158157200Y-92523800D03*
G04 #@! TD*
G04 #@! TO.P,J5,1*
G04 #@! TO.N,ISPDAT*
X155617200Y-92523800D03*
G04 #@! TD*
G04 #@! TO.P,J4,1*
G04 #@! TO.N,GND*
X153077200Y-92506800D03*
G04 #@! TD*
G04 #@! TO.P,J3,1*
G04 #@! TO.N,+3V3*
X150537200Y-92523800D03*
G04 #@! TD*
D12*
G04 #@! TO.N,Net-(J1-Pad5)*
G04 #@! TO.C,J1*
G36*
X142523911Y-105863729D02*
X142587009Y-105873089D01*
X142648885Y-105888588D01*
X142708944Y-105910077D01*
X142766608Y-105937350D01*
X142821321Y-105970144D01*
X142872556Y-106008142D01*
X142919819Y-106050980D01*
X142962657Y-106098243D01*
X143000655Y-106149478D01*
X143033449Y-106204191D01*
X143060722Y-106261855D01*
X143082211Y-106321914D01*
X143097710Y-106383790D01*
X143107070Y-106446888D01*
X143110200Y-106510599D01*
X143110200Y-106510601D01*
X143107070Y-106574312D01*
X143097710Y-106637410D01*
X143082211Y-106699286D01*
X143060722Y-106759345D01*
X143033449Y-106817009D01*
X143000655Y-106871722D01*
X142962657Y-106922957D01*
X142919819Y-106970220D01*
X142872556Y-107013058D01*
X142821321Y-107051056D01*
X142766608Y-107083850D01*
X142708944Y-107111123D01*
X142648885Y-107132612D01*
X142587009Y-107148111D01*
X142523911Y-107157471D01*
X142460200Y-107160601D01*
X140560200Y-107160601D01*
X140496489Y-107157471D01*
X140433391Y-107148111D01*
X140371515Y-107132612D01*
X140311456Y-107111123D01*
X140253792Y-107083850D01*
X140199079Y-107051056D01*
X140147844Y-107013058D01*
X140100581Y-106970220D01*
X140057743Y-106922957D01*
X140019745Y-106871722D01*
X139986951Y-106817009D01*
X139959678Y-106759345D01*
X139938189Y-106699286D01*
X139922690Y-106637410D01*
X139913330Y-106574312D01*
X139910200Y-106510601D01*
X139910200Y-106510599D01*
X139913330Y-106446888D01*
X139922690Y-106383790D01*
X139938189Y-106321914D01*
X139959678Y-106261855D01*
X139986951Y-106204191D01*
X140019745Y-106149478D01*
X140057743Y-106098243D01*
X140100581Y-106050980D01*
X140147844Y-106008142D01*
X140199079Y-105970144D01*
X140253792Y-105937350D01*
X140311456Y-105910077D01*
X140371515Y-105888588D01*
X140433391Y-105873089D01*
X140496489Y-105863729D01*
X140560200Y-105860599D01*
X142460200Y-105860599D01*
X142523911Y-105863729D01*
X142523911Y-105863729D01*
G37*
D13*
G04 #@! TD*
G04 #@! TO.P,J1,5*
G04 #@! TO.N,Net-(J1-Pad5)*
X141510200Y-106510600D03*
D12*
G04 #@! TO.N,Net-(J1-Pad5)*
G04 #@! TO.C,J1*
G36*
X142523911Y-94163729D02*
X142587009Y-94173089D01*
X142648885Y-94188588D01*
X142708944Y-94210077D01*
X142766608Y-94237350D01*
X142821321Y-94270144D01*
X142872556Y-94308142D01*
X142919819Y-94350980D01*
X142962657Y-94398243D01*
X143000655Y-94449478D01*
X143033449Y-94504191D01*
X143060722Y-94561855D01*
X143082211Y-94621914D01*
X143097710Y-94683790D01*
X143107070Y-94746888D01*
X143110200Y-94810599D01*
X143110200Y-94810601D01*
X143107070Y-94874312D01*
X143097710Y-94937410D01*
X143082211Y-94999286D01*
X143060722Y-95059345D01*
X143033449Y-95117009D01*
X143000655Y-95171722D01*
X142962657Y-95222957D01*
X142919819Y-95270220D01*
X142872556Y-95313058D01*
X142821321Y-95351056D01*
X142766608Y-95383850D01*
X142708944Y-95411123D01*
X142648885Y-95432612D01*
X142587009Y-95448111D01*
X142523911Y-95457471D01*
X142460200Y-95460601D01*
X140560200Y-95460601D01*
X140496489Y-95457471D01*
X140433391Y-95448111D01*
X140371515Y-95432612D01*
X140311456Y-95411123D01*
X140253792Y-95383850D01*
X140199079Y-95351056D01*
X140147844Y-95313058D01*
X140100581Y-95270220D01*
X140057743Y-95222957D01*
X140019745Y-95171722D01*
X139986951Y-95117009D01*
X139959678Y-95059345D01*
X139938189Y-94999286D01*
X139922690Y-94937410D01*
X139913330Y-94874312D01*
X139910200Y-94810601D01*
X139910200Y-94810599D01*
X139913330Y-94746888D01*
X139922690Y-94683790D01*
X139938189Y-94621914D01*
X139959678Y-94561855D01*
X139986951Y-94504191D01*
X140019745Y-94449478D01*
X140057743Y-94398243D01*
X140100581Y-94350980D01*
X140147844Y-94308142D01*
X140199079Y-94270144D01*
X140253792Y-94237350D01*
X140311456Y-94210077D01*
X140371515Y-94188588D01*
X140433391Y-94173089D01*
X140496489Y-94163729D01*
X140560200Y-94160599D01*
X142460200Y-94160599D01*
X142523911Y-94163729D01*
X142523911Y-94163729D01*
G37*
D13*
G04 #@! TD*
G04 #@! TO.P,J1,5*
G04 #@! TO.N,Net-(J1-Pad5)*
X141510200Y-94810600D03*
D14*
G04 #@! TO.N,+3V3*
X146685000Y-98577400D03*
X152603200Y-95529400D03*
X149301200Y-93726800D03*
G04 #@! TO.N,GND*
X140766800Y-104521000D03*
X139827000Y-108686600D03*
X148590000Y-102311200D03*
X147116800Y-108559600D03*
X149428200Y-108559600D03*
X151790400Y-108559600D03*
X150622000Y-107365800D03*
X168325800Y-104190800D03*
X168325800Y-100482400D03*
X168325800Y-98602800D03*
X168325800Y-96774000D03*
X166776400Y-95656400D03*
X166776400Y-97688400D03*
X166776400Y-99517200D03*
X166827200Y-101346000D03*
X148183600Y-96596200D03*
X165150800Y-96875600D03*
X165150800Y-100660200D03*
X171704000Y-93370400D03*
X171704000Y-97510600D03*
X173913800Y-100177600D03*
X173812200Y-95351600D03*
X175412400Y-93192600D03*
X179324000Y-96062800D03*
X175793400Y-106908600D03*
X172237400Y-106984800D03*
X141986000Y-92557600D03*
X140131800Y-92557600D03*
X165100000Y-98806000D03*
X151841200Y-93599800D03*
X165582600Y-104165400D03*
X174066200Y-104495600D03*
X177342800Y-100228400D03*
X167487600Y-92430600D03*
X160477200Y-92329000D03*
X144094200Y-92608400D03*
X145237200Y-94005400D03*
G04 #@! TO.N,LED*
X149656800Y-103073200D03*
X180416200Y-109118400D03*
G04 #@! TO.N,LED_DEBUG*
X176047400Y-97764600D03*
X153593800Y-101193600D03*
G04 #@! TO.N,ISPDAT*
X154432000Y-95961200D03*
G04 #@! TO.N,ISPCLK*
X159429200Y-100171000D03*
X159435800Y-97840800D03*
G04 #@! TO.N,GDO0*
X155346400Y-99314000D03*
X155353000Y-95091000D03*
G04 #@! TO.N,~MCLR*
X151206200Y-102082600D03*
G04 #@! TO.N,CSN*
X157505400Y-96012000D03*
X157505400Y-101117400D03*
G04 #@! TD*
D15*
G04 #@! TO.N,+3V3*
X146685000Y-98577400D02*
X150850600Y-98577400D01*
X150850600Y-98577400D02*
X152603200Y-96824800D01*
X152603200Y-96824800D02*
X152603200Y-95529400D01*
X150504200Y-92523800D02*
X149301200Y-93726800D01*
X150537200Y-92523800D02*
X150504200Y-92523800D01*
G04 #@! TO.N,GND*
X152917200Y-92523800D02*
X151841200Y-93599800D01*
X153077200Y-92523800D02*
X152917200Y-92523800D01*
G04 #@! TO.N,Net-(J1-Pad5)*
X139810200Y-106510600D02*
X141510200Y-106510600D01*
X139192799Y-105893199D02*
X139810200Y-106510600D01*
X139192799Y-95428001D02*
X139192799Y-105893199D01*
X139810200Y-94810600D02*
X139192799Y-95428001D01*
X141510200Y-94810600D02*
X139810200Y-94810600D01*
G04 #@! TO.N,LED*
X149656800Y-103073200D02*
X155702000Y-109118400D01*
X155702000Y-109118400D02*
X180416200Y-109118400D01*
G04 #@! TO.N,LED_DEBUG*
X176022000Y-97790000D02*
X176047400Y-97764600D01*
X155117800Y-102717600D02*
X174548800Y-102717600D01*
X176047400Y-101219000D02*
X176047400Y-97764600D01*
X174548800Y-102717600D02*
X176047400Y-101219000D01*
X153593800Y-101193600D02*
X155117800Y-102717600D01*
G04 #@! TO.N,ISPDAT*
X154432000Y-93709000D02*
X155617200Y-92523800D01*
X154432000Y-95961200D02*
X154432000Y-93709000D01*
G04 #@! TO.N,ISPCLK*
X159429200Y-99605315D02*
X159435800Y-99598715D01*
X159429200Y-100171000D02*
X159429200Y-99605315D01*
X159435800Y-99598715D02*
X159435800Y-97840800D01*
X159435800Y-97840800D02*
X159435800Y-94615000D01*
X159435800Y-93802400D02*
X159435800Y-94615000D01*
X158157200Y-92523800D02*
X159435800Y-93802400D01*
G04 #@! TO.N,GDO0*
X155346400Y-95097600D02*
X155353000Y-95091000D01*
X155346400Y-99314000D02*
X155346400Y-95097600D01*
G04 #@! TO.N,~MCLR*
X151206200Y-101516915D02*
X153695400Y-99027715D01*
X151206200Y-102082600D02*
X151206200Y-101516915D01*
X153695400Y-99027715D02*
X153695400Y-95199200D01*
X153695400Y-95199200D02*
X152908000Y-94411800D01*
X152908000Y-94411800D02*
X148285200Y-94411800D01*
X148285200Y-94411800D02*
X147971800Y-94098400D01*
X147971800Y-92904800D02*
X147971800Y-94098400D01*
G04 #@! TO.N,CSN*
X157505400Y-96012000D02*
X157505400Y-101117400D01*
G04 #@! TD*
D16*
G04 #@! TO.N,GND*
G36*
X183065201Y-109465600D02*
X181392661Y-109465600D01*
X181451200Y-109324274D01*
X181451200Y-108912526D01*
X181293631Y-108532120D01*
X181002480Y-108240969D01*
X180622074Y-108083400D01*
X180379990Y-108083400D01*
X180605753Y-107989886D01*
X181065686Y-107529953D01*
X181314600Y-106929022D01*
X181314600Y-106278578D01*
X181065686Y-105677647D01*
X180605753Y-105217714D01*
X180004822Y-104968800D01*
X179354378Y-104968800D01*
X178753447Y-105217714D01*
X178293514Y-105677647D01*
X178044600Y-106278578D01*
X178044600Y-106929022D01*
X178293514Y-107529953D01*
X178753447Y-107989886D01*
X179354378Y-108238800D01*
X179835156Y-108238800D01*
X179829920Y-108240969D01*
X179712489Y-108358400D01*
X156016802Y-108358400D01*
X150691800Y-103033399D01*
X150691800Y-102989805D01*
X151000326Y-103117600D01*
X151412074Y-103117600D01*
X151792480Y-102960031D01*
X152083631Y-102668880D01*
X152241200Y-102288474D01*
X152241200Y-101876726D01*
X152147471Y-101650445D01*
X152558800Y-101239117D01*
X152558800Y-101399474D01*
X152716369Y-101779880D01*
X153007520Y-102071031D01*
X153387926Y-102228600D01*
X153553998Y-102228600D01*
X154527473Y-103202076D01*
X154569871Y-103265529D01*
X154633324Y-103307927D01*
X154633326Y-103307929D01*
X154725829Y-103369737D01*
X154821263Y-103433504D01*
X155042948Y-103477600D01*
X155042952Y-103477600D01*
X155117799Y-103492488D01*
X155192646Y-103477600D01*
X174473953Y-103477600D01*
X174548800Y-103492488D01*
X174623647Y-103477600D01*
X174623652Y-103477600D01*
X174845337Y-103433504D01*
X175096729Y-103265529D01*
X175139131Y-103202070D01*
X176531876Y-101809327D01*
X176595329Y-101766929D01*
X176637727Y-101703476D01*
X176637729Y-101703474D01*
X176763303Y-101515538D01*
X176763304Y-101515537D01*
X176807400Y-101293852D01*
X176807400Y-101293848D01*
X176822288Y-101219001D01*
X176807400Y-101144154D01*
X176807400Y-98468311D01*
X176924831Y-98350880D01*
X177082400Y-97970474D01*
X177082400Y-97558726D01*
X176924831Y-97178320D01*
X176633680Y-96887169D01*
X176253274Y-96729600D01*
X175841526Y-96729600D01*
X175461120Y-96887169D01*
X175169969Y-97178320D01*
X175012400Y-97558726D01*
X175012400Y-97970474D01*
X175169969Y-98350880D01*
X175287401Y-98468312D01*
X175287400Y-100904197D01*
X174233999Y-101957600D01*
X158128911Y-101957600D01*
X158382831Y-101703680D01*
X158540400Y-101323274D01*
X158540400Y-100911526D01*
X158382831Y-100531120D01*
X158265400Y-100413689D01*
X158265400Y-96715711D01*
X158382831Y-96598280D01*
X158540400Y-96217874D01*
X158540400Y-95806126D01*
X158382831Y-95425720D01*
X158091680Y-95134569D01*
X157711274Y-94977000D01*
X157299526Y-94977000D01*
X156919120Y-95134569D01*
X156627969Y-95425720D01*
X156470400Y-95806126D01*
X156470400Y-96217874D01*
X156627969Y-96598280D01*
X156745400Y-96715711D01*
X156745401Y-100413688D01*
X156627969Y-100531120D01*
X156470400Y-100911526D01*
X156470400Y-101323274D01*
X156627969Y-101703680D01*
X156881889Y-101957600D01*
X155432603Y-101957600D01*
X154628800Y-101153798D01*
X154628800Y-100987726D01*
X154471231Y-100607320D01*
X154180080Y-100316169D01*
X153799674Y-100158600D01*
X153639318Y-100158600D01*
X154179876Y-99618042D01*
X154243329Y-99575644D01*
X154285727Y-99512191D01*
X154285729Y-99512189D01*
X154311400Y-99473769D01*
X154311400Y-99519874D01*
X154468969Y-99900280D01*
X154760120Y-100191431D01*
X155140526Y-100349000D01*
X155552274Y-100349000D01*
X155932680Y-100191431D01*
X156223831Y-99900280D01*
X156381400Y-99519874D01*
X156381400Y-99108126D01*
X156223831Y-98727720D01*
X156106400Y-98610289D01*
X156106400Y-95801311D01*
X156230431Y-95677280D01*
X156388000Y-95296874D01*
X156388000Y-94885126D01*
X156230431Y-94504720D01*
X155939280Y-94213569D01*
X155558874Y-94056000D01*
X155192000Y-94056000D01*
X155192000Y-94023801D01*
X155317166Y-93898635D01*
X155341706Y-93908800D01*
X155892694Y-93908800D01*
X156401740Y-93697947D01*
X156791347Y-93308340D01*
X156887200Y-93076930D01*
X156983053Y-93308340D01*
X157372660Y-93697947D01*
X157881706Y-93908800D01*
X158432694Y-93908800D01*
X158457233Y-93898636D01*
X158675800Y-94117203D01*
X158675800Y-94689852D01*
X158675801Y-94689857D01*
X158675800Y-97137089D01*
X158558369Y-97254520D01*
X158400800Y-97634926D01*
X158400800Y-98046674D01*
X158558369Y-98427080D01*
X158675801Y-98544512D01*
X158675800Y-99460689D01*
X158551769Y-99584720D01*
X158394200Y-99965126D01*
X158394200Y-100376874D01*
X158551769Y-100757280D01*
X158842920Y-101048431D01*
X159223326Y-101206000D01*
X159635074Y-101206000D01*
X160015480Y-101048431D01*
X160306631Y-100757280D01*
X160464200Y-100376874D01*
X160464200Y-99965126D01*
X160306631Y-99584720D01*
X160195800Y-99473889D01*
X160195800Y-98544511D01*
X160313231Y-98427080D01*
X160470800Y-98046674D01*
X160470800Y-97634926D01*
X160313231Y-97254520D01*
X160195800Y-97137089D01*
X160195800Y-93877246D01*
X160210688Y-93802399D01*
X160195800Y-93727552D01*
X160195800Y-93727548D01*
X160151704Y-93505863D01*
X160089296Y-93412463D01*
X160026129Y-93317926D01*
X160026127Y-93317924D01*
X159983729Y-93254471D01*
X159920276Y-93212073D01*
X159532036Y-92823833D01*
X159542200Y-92799294D01*
X159542200Y-92248306D01*
X159379536Y-91855600D01*
X183065200Y-91855600D01*
X183065201Y-109465600D01*
X183065201Y-109465600D01*
G37*
X183065201Y-109465600D02*
X181392661Y-109465600D01*
X181451200Y-109324274D01*
X181451200Y-108912526D01*
X181293631Y-108532120D01*
X181002480Y-108240969D01*
X180622074Y-108083400D01*
X180379990Y-108083400D01*
X180605753Y-107989886D01*
X181065686Y-107529953D01*
X181314600Y-106929022D01*
X181314600Y-106278578D01*
X181065686Y-105677647D01*
X180605753Y-105217714D01*
X180004822Y-104968800D01*
X179354378Y-104968800D01*
X178753447Y-105217714D01*
X178293514Y-105677647D01*
X178044600Y-106278578D01*
X178044600Y-106929022D01*
X178293514Y-107529953D01*
X178753447Y-107989886D01*
X179354378Y-108238800D01*
X179835156Y-108238800D01*
X179829920Y-108240969D01*
X179712489Y-108358400D01*
X156016802Y-108358400D01*
X150691800Y-103033399D01*
X150691800Y-102989805D01*
X151000326Y-103117600D01*
X151412074Y-103117600D01*
X151792480Y-102960031D01*
X152083631Y-102668880D01*
X152241200Y-102288474D01*
X152241200Y-101876726D01*
X152147471Y-101650445D01*
X152558800Y-101239117D01*
X152558800Y-101399474D01*
X152716369Y-101779880D01*
X153007520Y-102071031D01*
X153387926Y-102228600D01*
X153553998Y-102228600D01*
X154527473Y-103202076D01*
X154569871Y-103265529D01*
X154633324Y-103307927D01*
X154633326Y-103307929D01*
X154725829Y-103369737D01*
X154821263Y-103433504D01*
X155042948Y-103477600D01*
X155042952Y-103477600D01*
X155117799Y-103492488D01*
X155192646Y-103477600D01*
X174473953Y-103477600D01*
X174548800Y-103492488D01*
X174623647Y-103477600D01*
X174623652Y-103477600D01*
X174845337Y-103433504D01*
X175096729Y-103265529D01*
X175139131Y-103202070D01*
X176531876Y-101809327D01*
X176595329Y-101766929D01*
X176637727Y-101703476D01*
X176637729Y-101703474D01*
X176763303Y-101515538D01*
X176763304Y-101515537D01*
X176807400Y-101293852D01*
X176807400Y-101293848D01*
X176822288Y-101219001D01*
X176807400Y-101144154D01*
X176807400Y-98468311D01*
X176924831Y-98350880D01*
X177082400Y-97970474D01*
X177082400Y-97558726D01*
X176924831Y-97178320D01*
X176633680Y-96887169D01*
X176253274Y-96729600D01*
X175841526Y-96729600D01*
X175461120Y-96887169D01*
X175169969Y-97178320D01*
X175012400Y-97558726D01*
X175012400Y-97970474D01*
X175169969Y-98350880D01*
X175287401Y-98468312D01*
X175287400Y-100904197D01*
X174233999Y-101957600D01*
X158128911Y-101957600D01*
X158382831Y-101703680D01*
X158540400Y-101323274D01*
X158540400Y-100911526D01*
X158382831Y-100531120D01*
X158265400Y-100413689D01*
X158265400Y-96715711D01*
X158382831Y-96598280D01*
X158540400Y-96217874D01*
X158540400Y-95806126D01*
X158382831Y-95425720D01*
X158091680Y-95134569D01*
X157711274Y-94977000D01*
X157299526Y-94977000D01*
X156919120Y-95134569D01*
X156627969Y-95425720D01*
X156470400Y-95806126D01*
X156470400Y-96217874D01*
X156627969Y-96598280D01*
X156745400Y-96715711D01*
X156745401Y-100413688D01*
X156627969Y-100531120D01*
X156470400Y-100911526D01*
X156470400Y-101323274D01*
X156627969Y-101703680D01*
X156881889Y-101957600D01*
X155432603Y-101957600D01*
X154628800Y-101153798D01*
X154628800Y-100987726D01*
X154471231Y-100607320D01*
X154180080Y-100316169D01*
X153799674Y-100158600D01*
X153639318Y-100158600D01*
X154179876Y-99618042D01*
X154243329Y-99575644D01*
X154285727Y-99512191D01*
X154285729Y-99512189D01*
X154311400Y-99473769D01*
X154311400Y-99519874D01*
X154468969Y-99900280D01*
X154760120Y-100191431D01*
X155140526Y-100349000D01*
X155552274Y-100349000D01*
X155932680Y-100191431D01*
X156223831Y-99900280D01*
X156381400Y-99519874D01*
X156381400Y-99108126D01*
X156223831Y-98727720D01*
X156106400Y-98610289D01*
X156106400Y-95801311D01*
X156230431Y-95677280D01*
X156388000Y-95296874D01*
X156388000Y-94885126D01*
X156230431Y-94504720D01*
X155939280Y-94213569D01*
X155558874Y-94056000D01*
X155192000Y-94056000D01*
X155192000Y-94023801D01*
X155317166Y-93898635D01*
X155341706Y-93908800D01*
X155892694Y-93908800D01*
X156401740Y-93697947D01*
X156791347Y-93308340D01*
X156887200Y-93076930D01*
X156983053Y-93308340D01*
X157372660Y-93697947D01*
X157881706Y-93908800D01*
X158432694Y-93908800D01*
X158457233Y-93898636D01*
X158675800Y-94117203D01*
X158675800Y-94689852D01*
X158675801Y-94689857D01*
X158675800Y-97137089D01*
X158558369Y-97254520D01*
X158400800Y-97634926D01*
X158400800Y-98046674D01*
X158558369Y-98427080D01*
X158675801Y-98544512D01*
X158675800Y-99460689D01*
X158551769Y-99584720D01*
X158394200Y-99965126D01*
X158394200Y-100376874D01*
X158551769Y-100757280D01*
X158842920Y-101048431D01*
X159223326Y-101206000D01*
X159635074Y-101206000D01*
X160015480Y-101048431D01*
X160306631Y-100757280D01*
X160464200Y-100376874D01*
X160464200Y-99965126D01*
X160306631Y-99584720D01*
X160195800Y-99473889D01*
X160195800Y-98544511D01*
X160313231Y-98427080D01*
X160470800Y-98046674D01*
X160470800Y-97634926D01*
X160313231Y-97254520D01*
X160195800Y-97137089D01*
X160195800Y-93877246D01*
X160210688Y-93802399D01*
X160195800Y-93727552D01*
X160195800Y-93727548D01*
X160151704Y-93505863D01*
X160089296Y-93412463D01*
X160026129Y-93317926D01*
X160026127Y-93317924D01*
X159983729Y-93254471D01*
X159920276Y-93212073D01*
X159532036Y-92823833D01*
X159542200Y-92799294D01*
X159542200Y-92248306D01*
X159379536Y-91855600D01*
X183065200Y-91855600D01*
X183065201Y-109465600D01*
G36*
X146612200Y-92248306D02*
X146612200Y-92799294D01*
X146823053Y-93308340D01*
X147211801Y-93697088D01*
X147211801Y-94023549D01*
X147196912Y-94098400D01*
X147255897Y-94394937D01*
X147338328Y-94518303D01*
X147423872Y-94646329D01*
X147487328Y-94688729D01*
X147694869Y-94896270D01*
X147737271Y-94959729D01*
X147988663Y-95127704D01*
X148210348Y-95171800D01*
X148210352Y-95171800D01*
X148285200Y-95186688D01*
X148360048Y-95171800D01*
X151631047Y-95171800D01*
X151568200Y-95323526D01*
X151568200Y-95735274D01*
X151725769Y-96115680D01*
X151843200Y-96233111D01*
X151843200Y-96509998D01*
X150535799Y-97817400D01*
X147388711Y-97817400D01*
X147271280Y-97699969D01*
X146890874Y-97542400D01*
X146479126Y-97542400D01*
X146098720Y-97699969D01*
X145807569Y-97991120D01*
X145650000Y-98371526D01*
X145650000Y-98783274D01*
X145807569Y-99163680D01*
X146098720Y-99454831D01*
X146479126Y-99612400D01*
X146890874Y-99612400D01*
X147271280Y-99454831D01*
X147388711Y-99337400D01*
X150775753Y-99337400D01*
X150850600Y-99352288D01*
X150925447Y-99337400D01*
X150925452Y-99337400D01*
X151147137Y-99293304D01*
X151398529Y-99125329D01*
X151440931Y-99061870D01*
X152935400Y-97567401D01*
X152935400Y-98712912D01*
X150721728Y-100926586D01*
X150658272Y-100968986D01*
X150490296Y-101220378D01*
X150461886Y-101363203D01*
X150328769Y-101496320D01*
X150171200Y-101876726D01*
X150171200Y-102165995D01*
X149862674Y-102038200D01*
X149450926Y-102038200D01*
X149070520Y-102195769D01*
X148779369Y-102486920D01*
X148621800Y-102867326D01*
X148621800Y-103279074D01*
X148779369Y-103659480D01*
X149070520Y-103950631D01*
X149450926Y-104108200D01*
X149616999Y-104108200D01*
X154974398Y-109465600D01*
X139455200Y-109465600D01*
X139455200Y-107187440D01*
X139503642Y-107219808D01*
X139642771Y-107428030D01*
X140063691Y-107709279D01*
X140560200Y-107808041D01*
X142460200Y-107808041D01*
X142956709Y-107709279D01*
X143377629Y-107428030D01*
X143658878Y-107007110D01*
X143757640Y-106510601D01*
X143757640Y-106510599D01*
X143658878Y-106014090D01*
X143377629Y-105593170D01*
X142956709Y-105311921D01*
X142460200Y-105213159D01*
X140560200Y-105213159D01*
X140063691Y-105311921D01*
X139952799Y-105386016D01*
X139952799Y-102674889D01*
X140325200Y-102674889D01*
X140325200Y-103146311D01*
X140505605Y-103581849D01*
X140838951Y-103915195D01*
X141274489Y-104095600D01*
X141745911Y-104095600D01*
X142181449Y-103915195D01*
X142514795Y-103581849D01*
X142695200Y-103146311D01*
X142695200Y-102674889D01*
X142514795Y-102239351D01*
X142181449Y-101906005D01*
X141745911Y-101725600D01*
X141274489Y-101725600D01*
X140838951Y-101906005D01*
X140505605Y-102239351D01*
X140325200Y-102674889D01*
X139952799Y-102674889D01*
X139952799Y-98174889D01*
X140325200Y-98174889D01*
X140325200Y-98646311D01*
X140505605Y-99081849D01*
X140838951Y-99415195D01*
X141274489Y-99595600D01*
X141745911Y-99595600D01*
X142181449Y-99415195D01*
X142514795Y-99081849D01*
X142695200Y-98646311D01*
X142695200Y-98174889D01*
X142514795Y-97739351D01*
X142181449Y-97406005D01*
X141745911Y-97225600D01*
X141274489Y-97225600D01*
X140838951Y-97406005D01*
X140505605Y-97739351D01*
X140325200Y-98174889D01*
X139952799Y-98174889D01*
X139952799Y-95935184D01*
X140063691Y-96009279D01*
X140560200Y-96108041D01*
X142460200Y-96108041D01*
X142956709Y-96009279D01*
X143377629Y-95728030D01*
X143658878Y-95307110D01*
X143757640Y-94810601D01*
X143757640Y-94810599D01*
X143658878Y-94314090D01*
X143377629Y-93893170D01*
X142956709Y-93611921D01*
X142460200Y-93513159D01*
X140560200Y-93513159D01*
X140063691Y-93611921D01*
X139642771Y-93893170D01*
X139503642Y-94101392D01*
X139455200Y-94133760D01*
X139455200Y-91855600D01*
X146774864Y-91855600D01*
X146612200Y-92248306D01*
X146612200Y-92248306D01*
G37*
X146612200Y-92248306D02*
X146612200Y-92799294D01*
X146823053Y-93308340D01*
X147211801Y-93697088D01*
X147211801Y-94023549D01*
X147196912Y-94098400D01*
X147255897Y-94394937D01*
X147338328Y-94518303D01*
X147423872Y-94646329D01*
X147487328Y-94688729D01*
X147694869Y-94896270D01*
X147737271Y-94959729D01*
X147988663Y-95127704D01*
X148210348Y-95171800D01*
X148210352Y-95171800D01*
X148285200Y-95186688D01*
X148360048Y-95171800D01*
X151631047Y-95171800D01*
X151568200Y-95323526D01*
X151568200Y-95735274D01*
X151725769Y-96115680D01*
X151843200Y-96233111D01*
X151843200Y-96509998D01*
X150535799Y-97817400D01*
X147388711Y-97817400D01*
X147271280Y-97699969D01*
X146890874Y-97542400D01*
X146479126Y-97542400D01*
X146098720Y-97699969D01*
X145807569Y-97991120D01*
X145650000Y-98371526D01*
X145650000Y-98783274D01*
X145807569Y-99163680D01*
X146098720Y-99454831D01*
X146479126Y-99612400D01*
X146890874Y-99612400D01*
X147271280Y-99454831D01*
X147388711Y-99337400D01*
X150775753Y-99337400D01*
X150850600Y-99352288D01*
X150925447Y-99337400D01*
X150925452Y-99337400D01*
X151147137Y-99293304D01*
X151398529Y-99125329D01*
X151440931Y-99061870D01*
X152935400Y-97567401D01*
X152935400Y-98712912D01*
X150721728Y-100926586D01*
X150658272Y-100968986D01*
X150490296Y-101220378D01*
X150461886Y-101363203D01*
X150328769Y-101496320D01*
X150171200Y-101876726D01*
X150171200Y-102165995D01*
X149862674Y-102038200D01*
X149450926Y-102038200D01*
X149070520Y-102195769D01*
X148779369Y-102486920D01*
X148621800Y-102867326D01*
X148621800Y-103279074D01*
X148779369Y-103659480D01*
X149070520Y-103950631D01*
X149450926Y-104108200D01*
X149616999Y-104108200D01*
X154974398Y-109465600D01*
X139455200Y-109465600D01*
X139455200Y-107187440D01*
X139503642Y-107219808D01*
X139642771Y-107428030D01*
X140063691Y-107709279D01*
X140560200Y-107808041D01*
X142460200Y-107808041D01*
X142956709Y-107709279D01*
X143377629Y-107428030D01*
X143658878Y-107007110D01*
X143757640Y-106510601D01*
X143757640Y-106510599D01*
X143658878Y-106014090D01*
X143377629Y-105593170D01*
X142956709Y-105311921D01*
X142460200Y-105213159D01*
X140560200Y-105213159D01*
X140063691Y-105311921D01*
X139952799Y-105386016D01*
X139952799Y-102674889D01*
X140325200Y-102674889D01*
X140325200Y-103146311D01*
X140505605Y-103581849D01*
X140838951Y-103915195D01*
X141274489Y-104095600D01*
X141745911Y-104095600D01*
X142181449Y-103915195D01*
X142514795Y-103581849D01*
X142695200Y-103146311D01*
X142695200Y-102674889D01*
X142514795Y-102239351D01*
X142181449Y-101906005D01*
X141745911Y-101725600D01*
X141274489Y-101725600D01*
X140838951Y-101906005D01*
X140505605Y-102239351D01*
X140325200Y-102674889D01*
X139952799Y-102674889D01*
X139952799Y-98174889D01*
X140325200Y-98174889D01*
X140325200Y-98646311D01*
X140505605Y-99081849D01*
X140838951Y-99415195D01*
X141274489Y-99595600D01*
X141745911Y-99595600D01*
X142181449Y-99415195D01*
X142514795Y-99081849D01*
X142695200Y-98646311D01*
X142695200Y-98174889D01*
X142514795Y-97739351D01*
X142181449Y-97406005D01*
X141745911Y-97225600D01*
X141274489Y-97225600D01*
X140838951Y-97406005D01*
X140505605Y-97739351D01*
X140325200Y-98174889D01*
X139952799Y-98174889D01*
X139952799Y-95935184D01*
X140063691Y-96009279D01*
X140560200Y-96108041D01*
X142460200Y-96108041D01*
X142956709Y-96009279D01*
X143377629Y-95728030D01*
X143658878Y-95307110D01*
X143757640Y-94810601D01*
X143757640Y-94810599D01*
X143658878Y-94314090D01*
X143377629Y-93893170D01*
X142956709Y-93611921D01*
X142460200Y-93513159D01*
X140560200Y-93513159D01*
X140063691Y-93611921D01*
X139642771Y-93893170D01*
X139503642Y-94101392D01*
X139455200Y-94133760D01*
X139455200Y-91855600D01*
X146774864Y-91855600D01*
X146612200Y-92248306D01*
G36*
X153270948Y-92492658D02*
X153256805Y-92506800D01*
X153270948Y-92520943D01*
X153091343Y-92700548D01*
X153077200Y-92686405D01*
X152285288Y-93478317D01*
X152334241Y-93651800D01*
X151367887Y-93651800D01*
X151711347Y-93308340D01*
X151804118Y-93084370D01*
X151864740Y-93230723D01*
X152105683Y-93298712D01*
X152897595Y-92506800D01*
X152883453Y-92492658D01*
X153063058Y-92313053D01*
X153077200Y-92327195D01*
X153091343Y-92313053D01*
X153270948Y-92492658D01*
X153270948Y-92492658D01*
G37*
X153270948Y-92492658D02*
X153256805Y-92506800D01*
X153270948Y-92520943D01*
X153091343Y-92700548D01*
X153077200Y-92686405D01*
X152285288Y-93478317D01*
X152334241Y-93651800D01*
X151367887Y-93651800D01*
X151711347Y-93308340D01*
X151804118Y-93084370D01*
X151864740Y-93230723D01*
X152105683Y-93298712D01*
X152897595Y-92506800D01*
X152883453Y-92492658D01*
X153063058Y-92313053D01*
X153077200Y-92327195D01*
X153091343Y-92313053D01*
X153270948Y-92492658D01*
G04 #@! TD*
M02*
