G04 #@! TF.GenerationSoftware,KiCad,Pcbnew,(6.0.0-rc1-dev-479-g831c9b6f6-dirty)*
G04 #@! TF.CreationDate,2018-09-12T23:56:39+02:00*
G04 #@! TF.ProjectId,RapTorS,526170546F72532E6B696361645F7063,rev?*
G04 #@! TF.SameCoordinates,Original*
G04 #@! TF.FileFunction,Legend,Bot*
G04 #@! TF.FilePolarity,Positive*
%FSLAX46Y46*%
G04 Gerber Fmt 4.6, Leading zero omitted, Abs format (unit mm)*
G04 Created by KiCad (PCBNEW (6.0.0-rc1-dev-479-g831c9b6f6-dirty)) date 2018 September 12, Wednesday 23:56:39*
%MOMM*%
%LPD*%
G01*
G04 APERTURE LIST*
%ADD10C,0.120000*%
%ADD11C,0.010000*%
G04 APERTURE END LIST*
D10*
X145948400Y-108864400D02*
X145973800Y-108712000D01*
X146100800Y-108762800D02*
X145948400Y-108864400D01*
X145897600Y-108559600D02*
X146100800Y-108762800D01*
X145872200Y-109016800D02*
X145897600Y-108559600D01*
X146227800Y-108762800D02*
X145872200Y-109016800D01*
X145821400Y-108381800D02*
X146227800Y-108762800D01*
X145796000Y-109169200D02*
X145821400Y-108381800D01*
X146380200Y-108762800D02*
X145796000Y-109169200D01*
X145719800Y-109347000D02*
X146380200Y-108762800D01*
X145719800Y-108254800D02*
X145719800Y-109347000D01*
X146380200Y-108762800D02*
X145719800Y-108254800D01*
G04 #@! TO.C,J6*
X151439200Y-108771400D02*
G75*
G03X151439200Y-108771400I-950000J0D01*
G01*
G04 #@! TO.C,J5*
X153979200Y-108771400D02*
G75*
G03X153979200Y-108771400I-950000J0D01*
G01*
G04 #@! TO.C,J4*
X148899200Y-108771400D02*
G75*
G03X148899200Y-108771400I-950000J0D01*
G01*
G04 #@! TO.C,J3*
X159059200Y-108771400D02*
G75*
G03X159059200Y-108771400I-950000J0D01*
G01*
G04 #@! TO.C,J2*
X156519200Y-108771400D02*
G75*
G03X156519200Y-108771400I-950000J0D01*
G01*
D11*
G04 #@! TO.C,RAPTORS*
G36*
X150051172Y-98524746D02*
X150441697Y-98939350D01*
X151612369Y-98939349D01*
X151930644Y-98939785D01*
X152191463Y-98941234D01*
X152400864Y-98943911D01*
X152564886Y-98948033D01*
X152689567Y-98953812D01*
X152780946Y-98961465D01*
X152845063Y-98971206D01*
X152887954Y-98983250D01*
X152892015Y-98984882D01*
X152988764Y-99054891D01*
X153032731Y-99157704D01*
X153029593Y-99245603D01*
X153018571Y-99281260D01*
X152996562Y-99310195D01*
X152957474Y-99333106D01*
X152895217Y-99350690D01*
X152803698Y-99363645D01*
X152676827Y-99372668D01*
X152508513Y-99378457D01*
X152292663Y-99381709D01*
X152023188Y-99383123D01*
X151826394Y-99383381D01*
X151536783Y-99384625D01*
X151271790Y-99387938D01*
X151039047Y-99393102D01*
X150846186Y-99399898D01*
X150700839Y-99408106D01*
X150610639Y-99417507D01*
X150605296Y-99418440D01*
X150404183Y-99472759D01*
X150228877Y-99553300D01*
X150094201Y-99652387D01*
X150045350Y-99708410D01*
X150008853Y-99767612D01*
X149986616Y-99831504D01*
X149975301Y-99917691D01*
X149971569Y-100043776D01*
X149971433Y-100098225D01*
X149974493Y-100249252D01*
X149986339Y-100361105D01*
X150011547Y-100457968D01*
X150054694Y-100564028D01*
X150063046Y-100582332D01*
X150183044Y-100785485D01*
X150342185Y-100952362D01*
X150547316Y-101088488D01*
X150805285Y-101199387D01*
X150844250Y-101212634D01*
X150887031Y-101225336D01*
X150936099Y-101236133D01*
X150996922Y-101245223D01*
X151074968Y-101252804D01*
X151175703Y-101259072D01*
X151304596Y-101264227D01*
X151467114Y-101268465D01*
X151668724Y-101271985D01*
X151914894Y-101274984D01*
X152211092Y-101277659D01*
X152562785Y-101280208D01*
X152746363Y-101281404D01*
X154473850Y-101292385D01*
X154217446Y-101012805D01*
X154100574Y-100886798D01*
X153983752Y-100763284D01*
X153882256Y-100658289D01*
X153823318Y-100599328D01*
X153685592Y-100465431D01*
X151060954Y-100447475D01*
X150982609Y-100356366D01*
X150923494Y-100254865D01*
X150918527Y-100159735D01*
X150966859Y-100083341D01*
X151003000Y-100059741D01*
X151045123Y-100047798D01*
X151122416Y-100038209D01*
X151239806Y-100030794D01*
X151402217Y-100025376D01*
X151614576Y-100021777D01*
X151881810Y-100019818D01*
X152120625Y-100019318D01*
X152441559Y-100018496D01*
X152706429Y-100015871D01*
X152922663Y-100010730D01*
X153097687Y-100002359D01*
X153238929Y-99990045D01*
X153353815Y-99973075D01*
X153449774Y-99950734D01*
X153534230Y-99922311D01*
X153614613Y-99887091D01*
X153643056Y-99873078D01*
X153801991Y-99767776D01*
X153909499Y-99634711D01*
X153968706Y-99467597D01*
X153982736Y-99260148D01*
X153979214Y-99196795D01*
X153931790Y-98937368D01*
X153831681Y-98711770D01*
X153678162Y-98519169D01*
X153470504Y-98358734D01*
X153207980Y-98229633D01*
X153098500Y-98190205D01*
X153054418Y-98177160D01*
X153003824Y-98166123D01*
X152941064Y-98156877D01*
X152860482Y-98149207D01*
X152756420Y-98142897D01*
X152623223Y-98137732D01*
X152455235Y-98133494D01*
X152246800Y-98129970D01*
X151992261Y-98126943D01*
X151685962Y-98124197D01*
X151322246Y-98121516D01*
X151292262Y-98121310D01*
X149660648Y-98110142D01*
X150051172Y-98524746D01*
X150051172Y-98524746D01*
G37*
X150051172Y-98524746D02*
X150441697Y-98939350D01*
X151612369Y-98939349D01*
X151930644Y-98939785D01*
X152191463Y-98941234D01*
X152400864Y-98943911D01*
X152564886Y-98948033D01*
X152689567Y-98953812D01*
X152780946Y-98961465D01*
X152845063Y-98971206D01*
X152887954Y-98983250D01*
X152892015Y-98984882D01*
X152988764Y-99054891D01*
X153032731Y-99157704D01*
X153029593Y-99245603D01*
X153018571Y-99281260D01*
X152996562Y-99310195D01*
X152957474Y-99333106D01*
X152895217Y-99350690D01*
X152803698Y-99363645D01*
X152676827Y-99372668D01*
X152508513Y-99378457D01*
X152292663Y-99381709D01*
X152023188Y-99383123D01*
X151826394Y-99383381D01*
X151536783Y-99384625D01*
X151271790Y-99387938D01*
X151039047Y-99393102D01*
X150846186Y-99399898D01*
X150700839Y-99408106D01*
X150610639Y-99417507D01*
X150605296Y-99418440D01*
X150404183Y-99472759D01*
X150228877Y-99553300D01*
X150094201Y-99652387D01*
X150045350Y-99708410D01*
X150008853Y-99767612D01*
X149986616Y-99831504D01*
X149975301Y-99917691D01*
X149971569Y-100043776D01*
X149971433Y-100098225D01*
X149974493Y-100249252D01*
X149986339Y-100361105D01*
X150011547Y-100457968D01*
X150054694Y-100564028D01*
X150063046Y-100582332D01*
X150183044Y-100785485D01*
X150342185Y-100952362D01*
X150547316Y-101088488D01*
X150805285Y-101199387D01*
X150844250Y-101212634D01*
X150887031Y-101225336D01*
X150936099Y-101236133D01*
X150996922Y-101245223D01*
X151074968Y-101252804D01*
X151175703Y-101259072D01*
X151304596Y-101264227D01*
X151467114Y-101268465D01*
X151668724Y-101271985D01*
X151914894Y-101274984D01*
X152211092Y-101277659D01*
X152562785Y-101280208D01*
X152746363Y-101281404D01*
X154473850Y-101292385D01*
X154217446Y-101012805D01*
X154100574Y-100886798D01*
X153983752Y-100763284D01*
X153882256Y-100658289D01*
X153823318Y-100599328D01*
X153685592Y-100465431D01*
X151060954Y-100447475D01*
X150982609Y-100356366D01*
X150923494Y-100254865D01*
X150918527Y-100159735D01*
X150966859Y-100083341D01*
X151003000Y-100059741D01*
X151045123Y-100047798D01*
X151122416Y-100038209D01*
X151239806Y-100030794D01*
X151402217Y-100025376D01*
X151614576Y-100021777D01*
X151881810Y-100019818D01*
X152120625Y-100019318D01*
X152441559Y-100018496D01*
X152706429Y-100015871D01*
X152922663Y-100010730D01*
X153097687Y-100002359D01*
X153238929Y-99990045D01*
X153353815Y-99973075D01*
X153449774Y-99950734D01*
X153534230Y-99922311D01*
X153614613Y-99887091D01*
X153643056Y-99873078D01*
X153801991Y-99767776D01*
X153909499Y-99634711D01*
X153968706Y-99467597D01*
X153982736Y-99260148D01*
X153979214Y-99196795D01*
X153931790Y-98937368D01*
X153831681Y-98711770D01*
X153678162Y-98519169D01*
X153470504Y-98358734D01*
X153207980Y-98229633D01*
X153098500Y-98190205D01*
X153054418Y-98177160D01*
X153003824Y-98166123D01*
X152941064Y-98156877D01*
X152860482Y-98149207D01*
X152756420Y-98142897D01*
X152623223Y-98137732D01*
X152455235Y-98133494D01*
X152246800Y-98129970D01*
X151992261Y-98126943D01*
X151685962Y-98124197D01*
X151322246Y-98121516D01*
X151292262Y-98121310D01*
X149660648Y-98110142D01*
X150051172Y-98524746D01*
G36*
X156672113Y-98122237D02*
X156334873Y-98126024D01*
X156054199Y-98130163D01*
X155823158Y-98135392D01*
X155634816Y-98142448D01*
X155482240Y-98152071D01*
X155358498Y-98164997D01*
X155256656Y-98181965D01*
X155169781Y-98203712D01*
X155090940Y-98230976D01*
X155013200Y-98264494D01*
X154929628Y-98305005D01*
X154922844Y-98308390D01*
X154784105Y-98399132D01*
X154654389Y-98521526D01*
X154550674Y-98656970D01*
X154491708Y-98780739D01*
X154475570Y-98872925D01*
X154467443Y-99000440D01*
X154469007Y-99133344D01*
X154513671Y-99398360D01*
X154615181Y-99641191D01*
X154769178Y-99856564D01*
X154971302Y-100039205D01*
X155217193Y-100183839D01*
X155395444Y-100253998D01*
X155420416Y-100269496D01*
X155418017Y-100298756D01*
X155383189Y-100352223D01*
X155310879Y-100440341D01*
X155297877Y-100455569D01*
X155198364Y-100573634D01*
X155089587Y-100705669D01*
X154978926Y-100842354D01*
X154873758Y-100974368D01*
X154781462Y-101092389D01*
X154709415Y-101187098D01*
X154664996Y-101249172D01*
X154654250Y-101268665D01*
X154684434Y-101274734D01*
X154768720Y-101280071D01*
X154897712Y-101284387D01*
X155062016Y-101287389D01*
X155252234Y-101288786D01*
X155304026Y-101288850D01*
X155953801Y-101288850D01*
X156231915Y-100876100D01*
X156510028Y-100463349D01*
X157264889Y-100463350D01*
X157476355Y-100463668D01*
X157665110Y-100464563D01*
X157822407Y-100465943D01*
X157939502Y-100467715D01*
X158007649Y-100469789D01*
X158021567Y-100471287D01*
X158027540Y-100503698D01*
X158042558Y-100586554D01*
X158064440Y-100707801D01*
X158091008Y-100855382D01*
X158094734Y-100876100D01*
X158166084Y-101272975D01*
X158665226Y-101281722D01*
X159164367Y-101290470D01*
X159148230Y-101218222D01*
X159138086Y-101165917D01*
X159119086Y-101061621D01*
X159093116Y-100915932D01*
X159062061Y-100739443D01*
X159027805Y-100542751D01*
X159019557Y-100495100D01*
X158984673Y-100294006D01*
X158952450Y-100109494D01*
X158924810Y-99952466D01*
X158903674Y-99833822D01*
X158890961Y-99764464D01*
X158889487Y-99756912D01*
X158871955Y-99669600D01*
X157421915Y-99669422D01*
X157046499Y-99668614D01*
X156716125Y-99666329D01*
X156433916Y-99662635D01*
X156202995Y-99657597D01*
X156026484Y-99651284D01*
X155907507Y-99643761D01*
X155851945Y-99635940D01*
X155730910Y-99582806D01*
X155618748Y-99500408D01*
X155533801Y-99404815D01*
X155496545Y-99324535D01*
X155498069Y-99193946D01*
X155555734Y-99077565D01*
X155627698Y-99012447D01*
X155652028Y-98999102D01*
X155684577Y-98987858D01*
X155730942Y-98978456D01*
X155796720Y-98970643D01*
X155887508Y-98964160D01*
X156008904Y-98958751D01*
X156166506Y-98954161D01*
X156365910Y-98950131D01*
X156612713Y-98946407D01*
X156912515Y-98942732D01*
X157223137Y-98939350D01*
X158731295Y-98923475D01*
X157943851Y-98108905D01*
X156672113Y-98122237D01*
X156672113Y-98122237D01*
G37*
X156672113Y-98122237D02*
X156334873Y-98126024D01*
X156054199Y-98130163D01*
X155823158Y-98135392D01*
X155634816Y-98142448D01*
X155482240Y-98152071D01*
X155358498Y-98164997D01*
X155256656Y-98181965D01*
X155169781Y-98203712D01*
X155090940Y-98230976D01*
X155013200Y-98264494D01*
X154929628Y-98305005D01*
X154922844Y-98308390D01*
X154784105Y-98399132D01*
X154654389Y-98521526D01*
X154550674Y-98656970D01*
X154491708Y-98780739D01*
X154475570Y-98872925D01*
X154467443Y-99000440D01*
X154469007Y-99133344D01*
X154513671Y-99398360D01*
X154615181Y-99641191D01*
X154769178Y-99856564D01*
X154971302Y-100039205D01*
X155217193Y-100183839D01*
X155395444Y-100253998D01*
X155420416Y-100269496D01*
X155418017Y-100298756D01*
X155383189Y-100352223D01*
X155310879Y-100440341D01*
X155297877Y-100455569D01*
X155198364Y-100573634D01*
X155089587Y-100705669D01*
X154978926Y-100842354D01*
X154873758Y-100974368D01*
X154781462Y-101092389D01*
X154709415Y-101187098D01*
X154664996Y-101249172D01*
X154654250Y-101268665D01*
X154684434Y-101274734D01*
X154768720Y-101280071D01*
X154897712Y-101284387D01*
X155062016Y-101287389D01*
X155252234Y-101288786D01*
X155304026Y-101288850D01*
X155953801Y-101288850D01*
X156231915Y-100876100D01*
X156510028Y-100463349D01*
X157264889Y-100463350D01*
X157476355Y-100463668D01*
X157665110Y-100464563D01*
X157822407Y-100465943D01*
X157939502Y-100467715D01*
X158007649Y-100469789D01*
X158021567Y-100471287D01*
X158027540Y-100503698D01*
X158042558Y-100586554D01*
X158064440Y-100707801D01*
X158091008Y-100855382D01*
X158094734Y-100876100D01*
X158166084Y-101272975D01*
X158665226Y-101281722D01*
X159164367Y-101290470D01*
X159148230Y-101218222D01*
X159138086Y-101165917D01*
X159119086Y-101061621D01*
X159093116Y-100915932D01*
X159062061Y-100739443D01*
X159027805Y-100542751D01*
X159019557Y-100495100D01*
X158984673Y-100294006D01*
X158952450Y-100109494D01*
X158924810Y-99952466D01*
X158903674Y-99833822D01*
X158890961Y-99764464D01*
X158889487Y-99756912D01*
X158871955Y-99669600D01*
X157421915Y-99669422D01*
X157046499Y-99668614D01*
X156716125Y-99666329D01*
X156433916Y-99662635D01*
X156202995Y-99657597D01*
X156026484Y-99651284D01*
X155907507Y-99643761D01*
X155851945Y-99635940D01*
X155730910Y-99582806D01*
X155618748Y-99500408D01*
X155533801Y-99404815D01*
X155496545Y-99324535D01*
X155498069Y-99193946D01*
X155555734Y-99077565D01*
X155627698Y-99012447D01*
X155652028Y-98999102D01*
X155684577Y-98987858D01*
X155730942Y-98978456D01*
X155796720Y-98970643D01*
X155887508Y-98964160D01*
X156008904Y-98958751D01*
X156166506Y-98954161D01*
X156365910Y-98950131D01*
X156612713Y-98946407D01*
X156912515Y-98942732D01*
X157223137Y-98939350D01*
X158731295Y-98923475D01*
X157943851Y-98108905D01*
X156672113Y-98122237D01*
G36*
X165305721Y-98121523D02*
X163501858Y-98129725D01*
X163880242Y-98532629D01*
X164258625Y-98935534D01*
X164838063Y-98937442D01*
X165021964Y-98939249D01*
X165181804Y-98943115D01*
X165307633Y-98948609D01*
X165389501Y-98955303D01*
X165417500Y-98962485D01*
X165422860Y-99000618D01*
X165437916Y-99092552D01*
X165461134Y-99229591D01*
X165490980Y-99403038D01*
X165525920Y-99604195D01*
X165564420Y-99824366D01*
X165604945Y-100054854D01*
X165645961Y-100286962D01*
X165685933Y-100511991D01*
X165723329Y-100721247D01*
X165756613Y-100906030D01*
X165784252Y-101057645D01*
X165804710Y-101167394D01*
X165816454Y-101226580D01*
X165818082Y-101233287D01*
X165830030Y-101254496D01*
X165857592Y-101269552D01*
X165910210Y-101279487D01*
X165997329Y-101285328D01*
X166128394Y-101288105D01*
X166312849Y-101288847D01*
X166327957Y-101288850D01*
X166821384Y-101288850D01*
X166804194Y-101217412D01*
X166794687Y-101169530D01*
X166775761Y-101067138D01*
X166748858Y-100918288D01*
X166715419Y-100731034D01*
X166676885Y-100513430D01*
X166634697Y-100273529D01*
X166609582Y-100129975D01*
X166565868Y-99880077D01*
X166524969Y-99647085D01*
X166488338Y-99439212D01*
X166457427Y-99264671D01*
X166433690Y-99131677D01*
X166418578Y-99048442D01*
X166414432Y-99026662D01*
X166396705Y-98939350D01*
X167132124Y-98939350D01*
X167339840Y-98938228D01*
X167523917Y-98935082D01*
X167675691Y-98930237D01*
X167786499Y-98924020D01*
X167847679Y-98916758D01*
X167856959Y-98912027D01*
X167832482Y-98881012D01*
X167771424Y-98812455D01*
X167681281Y-98714524D01*
X167569548Y-98595387D01*
X167477979Y-98499013D01*
X167109583Y-98113321D01*
X165305721Y-98121523D01*
X165305721Y-98121523D01*
G37*
X165305721Y-98121523D02*
X163501858Y-98129725D01*
X163880242Y-98532629D01*
X164258625Y-98935534D01*
X164838063Y-98937442D01*
X165021964Y-98939249D01*
X165181804Y-98943115D01*
X165307633Y-98948609D01*
X165389501Y-98955303D01*
X165417500Y-98962485D01*
X165422860Y-99000618D01*
X165437916Y-99092552D01*
X165461134Y-99229591D01*
X165490980Y-99403038D01*
X165525920Y-99604195D01*
X165564420Y-99824366D01*
X165604945Y-100054854D01*
X165645961Y-100286962D01*
X165685933Y-100511991D01*
X165723329Y-100721247D01*
X165756613Y-100906030D01*
X165784252Y-101057645D01*
X165804710Y-101167394D01*
X165816454Y-101226580D01*
X165818082Y-101233287D01*
X165830030Y-101254496D01*
X165857592Y-101269552D01*
X165910210Y-101279487D01*
X165997329Y-101285328D01*
X166128394Y-101288105D01*
X166312849Y-101288847D01*
X166327957Y-101288850D01*
X166821384Y-101288850D01*
X166804194Y-101217412D01*
X166794687Y-101169530D01*
X166775761Y-101067138D01*
X166748858Y-100918288D01*
X166715419Y-100731034D01*
X166676885Y-100513430D01*
X166634697Y-100273529D01*
X166609582Y-100129975D01*
X166565868Y-99880077D01*
X166524969Y-99647085D01*
X166488338Y-99439212D01*
X166457427Y-99264671D01*
X166433690Y-99131677D01*
X166418578Y-99048442D01*
X166414432Y-99026662D01*
X166396705Y-98939350D01*
X167132124Y-98939350D01*
X167339840Y-98938228D01*
X167523917Y-98935082D01*
X167675691Y-98930237D01*
X167786499Y-98924020D01*
X167847679Y-98916758D01*
X167856959Y-98912027D01*
X167832482Y-98881012D01*
X167771424Y-98812455D01*
X167681281Y-98714524D01*
X167569548Y-98595387D01*
X167477979Y-98499013D01*
X167109583Y-98113321D01*
X165305721Y-98121523D01*
G36*
X170406904Y-98114401D02*
X170072222Y-98115282D01*
X169795052Y-98117704D01*
X169569419Y-98121868D01*
X169389349Y-98127975D01*
X169248869Y-98136226D01*
X169142003Y-98146822D01*
X169064589Y-98159577D01*
X168785400Y-98242107D01*
X168557438Y-98359966D01*
X168381617Y-98512184D01*
X168258851Y-98697790D01*
X168190053Y-98915812D01*
X168174431Y-99105119D01*
X168204527Y-99390296D01*
X168291041Y-99648680D01*
X168431811Y-99877994D01*
X168624679Y-100075959D01*
X168867484Y-100240299D01*
X169158066Y-100368736D01*
X169449750Y-100449862D01*
X169538101Y-100464054D01*
X169659668Y-100475251D01*
X169820345Y-100483673D01*
X170026030Y-100489543D01*
X170282619Y-100493080D01*
X170596006Y-100494506D01*
X170641882Y-100494548D01*
X171627638Y-100495100D01*
X171683980Y-100836412D01*
X171708512Y-100981497D01*
X171730816Y-101107087D01*
X171748056Y-101197550D01*
X171756051Y-101233287D01*
X171767730Y-101254545D01*
X171795093Y-101269620D01*
X171847598Y-101279550D01*
X171934702Y-101285372D01*
X172065866Y-101288126D01*
X172250547Y-101288848D01*
X172262370Y-101288850D01*
X172752960Y-101288850D01*
X172737027Y-101217412D01*
X172726946Y-101165362D01*
X172708005Y-101061307D01*
X172682084Y-100915825D01*
X172651065Y-100739494D01*
X172616830Y-100542895D01*
X172608557Y-100495100D01*
X172573673Y-100294006D01*
X172541450Y-100109494D01*
X172513810Y-99952466D01*
X172492674Y-99833822D01*
X172479961Y-99764464D01*
X172478487Y-99756912D01*
X172460955Y-99669600D01*
X171010915Y-99668902D01*
X170667576Y-99668593D01*
X170381813Y-99667874D01*
X170147705Y-99666520D01*
X169959328Y-99664307D01*
X169810759Y-99661010D01*
X169696076Y-99656402D01*
X169609356Y-99650261D01*
X169544676Y-99642359D01*
X169496113Y-99632473D01*
X169457744Y-99620377D01*
X169430145Y-99608838D01*
X169299636Y-99524062D01*
X169213589Y-99415774D01*
X169173926Y-99295821D01*
X169182570Y-99176051D01*
X169241445Y-99068314D01*
X169330688Y-98996029D01*
X169364554Y-98985609D01*
X169430056Y-98976517D01*
X169531539Y-98968589D01*
X169673350Y-98961666D01*
X169859833Y-98955587D01*
X170095335Y-98950190D01*
X170384202Y-98945314D01*
X170730779Y-98940798D01*
X170859404Y-98939350D01*
X172316683Y-98923475D01*
X171927683Y-98518662D01*
X171538682Y-98113849D01*
X170406904Y-98114401D01*
X170406904Y-98114401D01*
G37*
X170406904Y-98114401D02*
X170072222Y-98115282D01*
X169795052Y-98117704D01*
X169569419Y-98121868D01*
X169389349Y-98127975D01*
X169248869Y-98136226D01*
X169142003Y-98146822D01*
X169064589Y-98159577D01*
X168785400Y-98242107D01*
X168557438Y-98359966D01*
X168381617Y-98512184D01*
X168258851Y-98697790D01*
X168190053Y-98915812D01*
X168174431Y-99105119D01*
X168204527Y-99390296D01*
X168291041Y-99648680D01*
X168431811Y-99877994D01*
X168624679Y-100075959D01*
X168867484Y-100240299D01*
X169158066Y-100368736D01*
X169449750Y-100449862D01*
X169538101Y-100464054D01*
X169659668Y-100475251D01*
X169820345Y-100483673D01*
X170026030Y-100489543D01*
X170282619Y-100493080D01*
X170596006Y-100494506D01*
X170641882Y-100494548D01*
X171627638Y-100495100D01*
X171683980Y-100836412D01*
X171708512Y-100981497D01*
X171730816Y-101107087D01*
X171748056Y-101197550D01*
X171756051Y-101233287D01*
X171767730Y-101254545D01*
X171795093Y-101269620D01*
X171847598Y-101279550D01*
X171934702Y-101285372D01*
X172065866Y-101288126D01*
X172250547Y-101288848D01*
X172262370Y-101288850D01*
X172752960Y-101288850D01*
X172737027Y-101217412D01*
X172726946Y-101165362D01*
X172708005Y-101061307D01*
X172682084Y-100915825D01*
X172651065Y-100739494D01*
X172616830Y-100542895D01*
X172608557Y-100495100D01*
X172573673Y-100294006D01*
X172541450Y-100109494D01*
X172513810Y-99952466D01*
X172492674Y-99833822D01*
X172479961Y-99764464D01*
X172478487Y-99756912D01*
X172460955Y-99669600D01*
X171010915Y-99668902D01*
X170667576Y-99668593D01*
X170381813Y-99667874D01*
X170147705Y-99666520D01*
X169959328Y-99664307D01*
X169810759Y-99661010D01*
X169696076Y-99656402D01*
X169609356Y-99650261D01*
X169544676Y-99642359D01*
X169496113Y-99632473D01*
X169457744Y-99620377D01*
X169430145Y-99608838D01*
X169299636Y-99524062D01*
X169213589Y-99415774D01*
X169173926Y-99295821D01*
X169182570Y-99176051D01*
X169241445Y-99068314D01*
X169330688Y-98996029D01*
X169364554Y-98985609D01*
X169430056Y-98976517D01*
X169531539Y-98968589D01*
X169673350Y-98961666D01*
X169859833Y-98955587D01*
X170095335Y-98950190D01*
X170384202Y-98945314D01*
X170730779Y-98940798D01*
X170859404Y-98939350D01*
X172316683Y-98923475D01*
X171927683Y-98518662D01*
X171538682Y-98113849D01*
X170406904Y-98114401D01*
G36*
X174989435Y-98100000D02*
X174822925Y-98164195D01*
X174682948Y-98278238D01*
X174634371Y-98340807D01*
X174600371Y-98397392D01*
X174542807Y-98500411D01*
X174464998Y-98643480D01*
X174370263Y-98820211D01*
X174261923Y-99024219D01*
X174143295Y-99249117D01*
X174017700Y-99488520D01*
X173888457Y-99736040D01*
X173758885Y-99985293D01*
X173632304Y-100229892D01*
X173512033Y-100463451D01*
X173401391Y-100679583D01*
X173303697Y-100871903D01*
X173222271Y-101034025D01*
X173160433Y-101159562D01*
X173121502Y-101242129D01*
X173108796Y-101275338D01*
X173108931Y-101275613D01*
X173142314Y-101277992D01*
X173233537Y-101279962D01*
X173376938Y-101281505D01*
X173566859Y-101282606D01*
X173797639Y-101283246D01*
X174063619Y-101283410D01*
X174359138Y-101283078D01*
X174678537Y-101282236D01*
X174949648Y-101281172D01*
X176776609Y-101272975D01*
X176413096Y-100868162D01*
X176049582Y-100463350D01*
X174697617Y-100463350D01*
X174994505Y-99899787D01*
X175086356Y-99724416D01*
X175168507Y-99565642D01*
X175236118Y-99432976D01*
X175284350Y-99335925D01*
X175308363Y-99284001D01*
X175309586Y-99280662D01*
X175334938Y-99234005D01*
X175349453Y-99225411D01*
X175374470Y-99248415D01*
X175437245Y-99314075D01*
X175533372Y-99417569D01*
X175658446Y-99554073D01*
X175808060Y-99718762D01*
X175977808Y-99906813D01*
X176163285Y-100113402D01*
X176291875Y-100257227D01*
X177212625Y-101288731D01*
X177798003Y-101288790D01*
X178383381Y-101288850D01*
X178303319Y-101201537D01*
X178267648Y-101161889D01*
X178193943Y-101079364D01*
X178086317Y-100958583D01*
X177948879Y-100804168D01*
X177785741Y-100620740D01*
X177601014Y-100412922D01*
X177398808Y-100185335D01*
X177183234Y-99942600D01*
X177039520Y-99780725D01*
X176816391Y-99529794D01*
X176602883Y-99290502D01*
X176403250Y-99067563D01*
X176221749Y-98865693D01*
X176062635Y-98689605D01*
X175930163Y-98544014D01*
X175828589Y-98433635D01*
X175762169Y-98363181D01*
X175740454Y-98341568D01*
X175557987Y-98206436D01*
X175365984Y-98121126D01*
X175173460Y-98085645D01*
X174989435Y-98100000D01*
X174989435Y-98100000D01*
G37*
X174989435Y-98100000D02*
X174822925Y-98164195D01*
X174682948Y-98278238D01*
X174634371Y-98340807D01*
X174600371Y-98397392D01*
X174542807Y-98500411D01*
X174464998Y-98643480D01*
X174370263Y-98820211D01*
X174261923Y-99024219D01*
X174143295Y-99249117D01*
X174017700Y-99488520D01*
X173888457Y-99736040D01*
X173758885Y-99985293D01*
X173632304Y-100229892D01*
X173512033Y-100463451D01*
X173401391Y-100679583D01*
X173303697Y-100871903D01*
X173222271Y-101034025D01*
X173160433Y-101159562D01*
X173121502Y-101242129D01*
X173108796Y-101275338D01*
X173108931Y-101275613D01*
X173142314Y-101277992D01*
X173233537Y-101279962D01*
X173376938Y-101281505D01*
X173566859Y-101282606D01*
X173797639Y-101283246D01*
X174063619Y-101283410D01*
X174359138Y-101283078D01*
X174678537Y-101282236D01*
X174949648Y-101281172D01*
X176776609Y-101272975D01*
X176413096Y-100868162D01*
X176049582Y-100463350D01*
X174697617Y-100463350D01*
X174994505Y-99899787D01*
X175086356Y-99724416D01*
X175168507Y-99565642D01*
X175236118Y-99432976D01*
X175284350Y-99335925D01*
X175308363Y-99284001D01*
X175309586Y-99280662D01*
X175334938Y-99234005D01*
X175349453Y-99225411D01*
X175374470Y-99248415D01*
X175437245Y-99314075D01*
X175533372Y-99417569D01*
X175658446Y-99554073D01*
X175808060Y-99718762D01*
X175977808Y-99906813D01*
X176163285Y-100113402D01*
X176291875Y-100257227D01*
X177212625Y-101288731D01*
X177798003Y-101288790D01*
X178383381Y-101288850D01*
X178303319Y-101201537D01*
X178267648Y-101161889D01*
X178193943Y-101079364D01*
X178086317Y-100958583D01*
X177948879Y-100804168D01*
X177785741Y-100620740D01*
X177601014Y-100412922D01*
X177398808Y-100185335D01*
X177183234Y-99942600D01*
X177039520Y-99780725D01*
X176816391Y-99529794D01*
X176602883Y-99290502D01*
X176403250Y-99067563D01*
X176221749Y-98865693D01*
X176062635Y-98689605D01*
X175930163Y-98544014D01*
X175828589Y-98433635D01*
X175762169Y-98363181D01*
X175740454Y-98341568D01*
X175557987Y-98206436D01*
X175365984Y-98121126D01*
X175173460Y-98085645D01*
X174989435Y-98100000D01*
G36*
X180516363Y-98122237D02*
X180179123Y-98126024D01*
X179898449Y-98130163D01*
X179667408Y-98135392D01*
X179479066Y-98142448D01*
X179326490Y-98152071D01*
X179202748Y-98164997D01*
X179100906Y-98181965D01*
X179014031Y-98203712D01*
X178935190Y-98230976D01*
X178857450Y-98264494D01*
X178773878Y-98305005D01*
X178767094Y-98308390D01*
X178628355Y-98399132D01*
X178498639Y-98521526D01*
X178394924Y-98656970D01*
X178335958Y-98780739D01*
X178319820Y-98872925D01*
X178311693Y-99000440D01*
X178313257Y-99133344D01*
X178357921Y-99398360D01*
X178459431Y-99641191D01*
X178613428Y-99856564D01*
X178815552Y-100039205D01*
X179061443Y-100183839D01*
X179239694Y-100253998D01*
X179264666Y-100269496D01*
X179262267Y-100298756D01*
X179227439Y-100352223D01*
X179155129Y-100440341D01*
X179142127Y-100455569D01*
X179042614Y-100573634D01*
X178933837Y-100705669D01*
X178823176Y-100842354D01*
X178718008Y-100974368D01*
X178625712Y-101092389D01*
X178553665Y-101187098D01*
X178509246Y-101249172D01*
X178498500Y-101268665D01*
X178528684Y-101274734D01*
X178612970Y-101280071D01*
X178741962Y-101284387D01*
X178906266Y-101287389D01*
X179096484Y-101288786D01*
X179148276Y-101288850D01*
X179798051Y-101288850D01*
X180076165Y-100876100D01*
X180354278Y-100463349D01*
X181109139Y-100463350D01*
X181320605Y-100463668D01*
X181509360Y-100464563D01*
X181666657Y-100465943D01*
X181783752Y-100467715D01*
X181851899Y-100469789D01*
X181865817Y-100471287D01*
X181871790Y-100503698D01*
X181886808Y-100586554D01*
X181908690Y-100707801D01*
X181935258Y-100855382D01*
X181938984Y-100876100D01*
X182010334Y-101272975D01*
X182509476Y-101281722D01*
X183008617Y-101290470D01*
X182992480Y-101218222D01*
X182982336Y-101165917D01*
X182963336Y-101061621D01*
X182937366Y-100915932D01*
X182906311Y-100739443D01*
X182872055Y-100542751D01*
X182863807Y-100495100D01*
X182828923Y-100294006D01*
X182796700Y-100109494D01*
X182769060Y-99952466D01*
X182747924Y-99833822D01*
X182735211Y-99764464D01*
X182733737Y-99756912D01*
X182716205Y-99669600D01*
X181266165Y-99669422D01*
X180890749Y-99668614D01*
X180560375Y-99666329D01*
X180278166Y-99662635D01*
X180047245Y-99657597D01*
X179870734Y-99651284D01*
X179751757Y-99643761D01*
X179696195Y-99635940D01*
X179575160Y-99582806D01*
X179462998Y-99500408D01*
X179378051Y-99404815D01*
X179340795Y-99324535D01*
X179342319Y-99193946D01*
X179399984Y-99077565D01*
X179471948Y-99012447D01*
X179496278Y-98999102D01*
X179528827Y-98987858D01*
X179575192Y-98978456D01*
X179640970Y-98970643D01*
X179731758Y-98964160D01*
X179853154Y-98958751D01*
X180010756Y-98954161D01*
X180210160Y-98950131D01*
X180456963Y-98946407D01*
X180756765Y-98942732D01*
X181067387Y-98939350D01*
X182575545Y-98923475D01*
X181788101Y-98108905D01*
X180516363Y-98122237D01*
X180516363Y-98122237D01*
G37*
X180516363Y-98122237D02*
X180179123Y-98126024D01*
X179898449Y-98130163D01*
X179667408Y-98135392D01*
X179479066Y-98142448D01*
X179326490Y-98152071D01*
X179202748Y-98164997D01*
X179100906Y-98181965D01*
X179014031Y-98203712D01*
X178935190Y-98230976D01*
X178857450Y-98264494D01*
X178773878Y-98305005D01*
X178767094Y-98308390D01*
X178628355Y-98399132D01*
X178498639Y-98521526D01*
X178394924Y-98656970D01*
X178335958Y-98780739D01*
X178319820Y-98872925D01*
X178311693Y-99000440D01*
X178313257Y-99133344D01*
X178357921Y-99398360D01*
X178459431Y-99641191D01*
X178613428Y-99856564D01*
X178815552Y-100039205D01*
X179061443Y-100183839D01*
X179239694Y-100253998D01*
X179264666Y-100269496D01*
X179262267Y-100298756D01*
X179227439Y-100352223D01*
X179155129Y-100440341D01*
X179142127Y-100455569D01*
X179042614Y-100573634D01*
X178933837Y-100705669D01*
X178823176Y-100842354D01*
X178718008Y-100974368D01*
X178625712Y-101092389D01*
X178553665Y-101187098D01*
X178509246Y-101249172D01*
X178498500Y-101268665D01*
X178528684Y-101274734D01*
X178612970Y-101280071D01*
X178741962Y-101284387D01*
X178906266Y-101287389D01*
X179096484Y-101288786D01*
X179148276Y-101288850D01*
X179798051Y-101288850D01*
X180076165Y-100876100D01*
X180354278Y-100463349D01*
X181109139Y-100463350D01*
X181320605Y-100463668D01*
X181509360Y-100464563D01*
X181666657Y-100465943D01*
X181783752Y-100467715D01*
X181851899Y-100469789D01*
X181865817Y-100471287D01*
X181871790Y-100503698D01*
X181886808Y-100586554D01*
X181908690Y-100707801D01*
X181935258Y-100855382D01*
X181938984Y-100876100D01*
X182010334Y-101272975D01*
X182509476Y-101281722D01*
X183008617Y-101290470D01*
X182992480Y-101218222D01*
X182982336Y-101165917D01*
X182963336Y-101061621D01*
X182937366Y-100915932D01*
X182906311Y-100739443D01*
X182872055Y-100542751D01*
X182863807Y-100495100D01*
X182828923Y-100294006D01*
X182796700Y-100109494D01*
X182769060Y-99952466D01*
X182747924Y-99833822D01*
X182735211Y-99764464D01*
X182733737Y-99756912D01*
X182716205Y-99669600D01*
X181266165Y-99669422D01*
X180890749Y-99668614D01*
X180560375Y-99666329D01*
X180278166Y-99662635D01*
X180047245Y-99657597D01*
X179870734Y-99651284D01*
X179751757Y-99643761D01*
X179696195Y-99635940D01*
X179575160Y-99582806D01*
X179462998Y-99500408D01*
X179378051Y-99404815D01*
X179340795Y-99324535D01*
X179342319Y-99193946D01*
X179399984Y-99077565D01*
X179471948Y-99012447D01*
X179496278Y-98999102D01*
X179528827Y-98987858D01*
X179575192Y-98978456D01*
X179640970Y-98970643D01*
X179731758Y-98964160D01*
X179853154Y-98958751D01*
X180010756Y-98954161D01*
X180210160Y-98950131D01*
X180456963Y-98946407D01*
X180756765Y-98942732D01*
X181067387Y-98939350D01*
X182575545Y-98923475D01*
X181788101Y-98108905D01*
X180516363Y-98122237D01*
G36*
X161000967Y-98098267D02*
X160616865Y-98146287D01*
X160281336Y-98225582D01*
X159995980Y-98335486D01*
X159762399Y-98475331D01*
X159582193Y-98644451D01*
X159456963Y-98842178D01*
X159426401Y-98918060D01*
X159392352Y-99064893D01*
X159373893Y-99251549D01*
X159371320Y-99456222D01*
X159384931Y-99657105D01*
X159414030Y-99828350D01*
X159520849Y-100151729D01*
X159674756Y-100434950D01*
X159876226Y-100678283D01*
X160125737Y-100881995D01*
X160423766Y-101046357D01*
X160770788Y-101171637D01*
X161167282Y-101258104D01*
X161613723Y-101306027D01*
X162052000Y-101316494D01*
X162230352Y-101312522D01*
X162409880Y-101304761D01*
X162567872Y-101294394D01*
X162668047Y-101284443D01*
X163028888Y-101218188D01*
X163338262Y-101118902D01*
X163595240Y-100987108D01*
X163798891Y-100823331D01*
X163948283Y-100628094D01*
X163994227Y-100537739D01*
X164055944Y-100330546D01*
X164078266Y-100087744D01*
X164069990Y-99948973D01*
X163081283Y-99948973D01*
X163052531Y-100119788D01*
X162976394Y-100253092D01*
X162849874Y-100352507D01*
X162669972Y-100421655D01*
X162466963Y-100460105D01*
X162260234Y-100478767D01*
X162014399Y-100488380D01*
X161753213Y-100488901D01*
X161500428Y-100480286D01*
X161279798Y-100462491D01*
X161278196Y-100462308D01*
X161127418Y-100439214D01*
X160979544Y-100406835D01*
X160861503Y-100371288D01*
X160840252Y-100362814D01*
X160661453Y-100252875D01*
X160523393Y-100095656D01*
X160427183Y-99893496D01*
X160373934Y-99648733D01*
X160364759Y-99363707D01*
X160364813Y-99362473D01*
X160397720Y-99249234D01*
X160476796Y-99138246D01*
X160586859Y-99048151D01*
X160645081Y-99018282D01*
X160784026Y-98976922D01*
X160973041Y-98944895D01*
X161199290Y-98922863D01*
X161449938Y-98911486D01*
X161712150Y-98911423D01*
X161973089Y-98923336D01*
X162159055Y-98940391D01*
X162424850Y-98986233D01*
X162637024Y-99059646D01*
X162801327Y-99165683D01*
X162923514Y-99309400D01*
X163009336Y-99495851D01*
X163064545Y-99730092D01*
X163065650Y-99737025D01*
X163081283Y-99948973D01*
X164069990Y-99948973D01*
X164062447Y-99822509D01*
X164009739Y-99548016D01*
X163921397Y-99277441D01*
X163861416Y-99141891D01*
X163697665Y-98876320D01*
X163483923Y-98649103D01*
X163220048Y-98460178D01*
X162905898Y-98309484D01*
X162541331Y-98196958D01*
X162126203Y-98122539D01*
X161660373Y-98086163D01*
X161432043Y-98082189D01*
X161000967Y-98098267D01*
X161000967Y-98098267D01*
G37*
X161000967Y-98098267D02*
X160616865Y-98146287D01*
X160281336Y-98225582D01*
X159995980Y-98335486D01*
X159762399Y-98475331D01*
X159582193Y-98644451D01*
X159456963Y-98842178D01*
X159426401Y-98918060D01*
X159392352Y-99064893D01*
X159373893Y-99251549D01*
X159371320Y-99456222D01*
X159384931Y-99657105D01*
X159414030Y-99828350D01*
X159520849Y-100151729D01*
X159674756Y-100434950D01*
X159876226Y-100678283D01*
X160125737Y-100881995D01*
X160423766Y-101046357D01*
X160770788Y-101171637D01*
X161167282Y-101258104D01*
X161613723Y-101306027D01*
X162052000Y-101316494D01*
X162230352Y-101312522D01*
X162409880Y-101304761D01*
X162567872Y-101294394D01*
X162668047Y-101284443D01*
X163028888Y-101218188D01*
X163338262Y-101118902D01*
X163595240Y-100987108D01*
X163798891Y-100823331D01*
X163948283Y-100628094D01*
X163994227Y-100537739D01*
X164055944Y-100330546D01*
X164078266Y-100087744D01*
X164069990Y-99948973D01*
X163081283Y-99948973D01*
X163052531Y-100119788D01*
X162976394Y-100253092D01*
X162849874Y-100352507D01*
X162669972Y-100421655D01*
X162466963Y-100460105D01*
X162260234Y-100478767D01*
X162014399Y-100488380D01*
X161753213Y-100488901D01*
X161500428Y-100480286D01*
X161279798Y-100462491D01*
X161278196Y-100462308D01*
X161127418Y-100439214D01*
X160979544Y-100406835D01*
X160861503Y-100371288D01*
X160840252Y-100362814D01*
X160661453Y-100252875D01*
X160523393Y-100095656D01*
X160427183Y-99893496D01*
X160373934Y-99648733D01*
X160364759Y-99363707D01*
X160364813Y-99362473D01*
X160397720Y-99249234D01*
X160476796Y-99138246D01*
X160586859Y-99048151D01*
X160645081Y-99018282D01*
X160784026Y-98976922D01*
X160973041Y-98944895D01*
X161199290Y-98922863D01*
X161449938Y-98911486D01*
X161712150Y-98911423D01*
X161973089Y-98923336D01*
X162159055Y-98940391D01*
X162424850Y-98986233D01*
X162637024Y-99059646D01*
X162801327Y-99165683D01*
X162923514Y-99309400D01*
X163009336Y-99495851D01*
X163064545Y-99730092D01*
X163065650Y-99737025D01*
X163081283Y-99948973D01*
X164069990Y-99948973D01*
X164062447Y-99822509D01*
X164009739Y-99548016D01*
X163921397Y-99277441D01*
X163861416Y-99141891D01*
X163697665Y-98876320D01*
X163483923Y-98649103D01*
X163220048Y-98460178D01*
X162905898Y-98309484D01*
X162541331Y-98196958D01*
X162126203Y-98122539D01*
X161660373Y-98086163D01*
X161432043Y-98082189D01*
X161000967Y-98098267D01*
G36*
X150259512Y-101979412D02*
X150302049Y-102213242D01*
X150336169Y-102392247D01*
X150363831Y-102524248D01*
X150386993Y-102617066D01*
X150407615Y-102678522D01*
X150427653Y-102716437D01*
X150449066Y-102738632D01*
X150449745Y-102739133D01*
X150505397Y-102769843D01*
X150560726Y-102772609D01*
X150624754Y-102742414D01*
X150706504Y-102674244D01*
X150814997Y-102563083D01*
X150865669Y-102507915D01*
X151114125Y-102234730D01*
X151161751Y-102499977D01*
X151209376Y-102765225D01*
X151328438Y-102775079D01*
X151414933Y-102773433D01*
X151446881Y-102748488D01*
X151447290Y-102743329D01*
X151442049Y-102696838D01*
X151427979Y-102602087D01*
X151407290Y-102473348D01*
X151384846Y-102340267D01*
X151346771Y-102145825D01*
X151307806Y-102007735D01*
X151264635Y-101918896D01*
X151213944Y-101872208D01*
X151160741Y-101860350D01*
X151117471Y-101882047D01*
X151042276Y-101940839D01*
X150946425Y-102027274D01*
X150859233Y-102113255D01*
X150758501Y-102213317D01*
X150673328Y-102292052D01*
X150613483Y-102340803D01*
X150589632Y-102352092D01*
X150573072Y-102315161D01*
X150555093Y-102235541D01*
X150545035Y-102170625D01*
X150525412Y-102028906D01*
X150506697Y-101938625D01*
X150482096Y-101888191D01*
X150444811Y-101866010D01*
X150388046Y-101860491D01*
X150363120Y-101860350D01*
X150238123Y-101860350D01*
X150259512Y-101979412D01*
X150259512Y-101979412D01*
G37*
X150259512Y-101979412D02*
X150302049Y-102213242D01*
X150336169Y-102392247D01*
X150363831Y-102524248D01*
X150386993Y-102617066D01*
X150407615Y-102678522D01*
X150427653Y-102716437D01*
X150449066Y-102738632D01*
X150449745Y-102739133D01*
X150505397Y-102769843D01*
X150560726Y-102772609D01*
X150624754Y-102742414D01*
X150706504Y-102674244D01*
X150814997Y-102563083D01*
X150865669Y-102507915D01*
X151114125Y-102234730D01*
X151161751Y-102499977D01*
X151209376Y-102765225D01*
X151328438Y-102775079D01*
X151414933Y-102773433D01*
X151446881Y-102748488D01*
X151447290Y-102743329D01*
X151442049Y-102696838D01*
X151427979Y-102602087D01*
X151407290Y-102473348D01*
X151384846Y-102340267D01*
X151346771Y-102145825D01*
X151307806Y-102007735D01*
X151264635Y-101918896D01*
X151213944Y-101872208D01*
X151160741Y-101860350D01*
X151117471Y-101882047D01*
X151042276Y-101940839D01*
X150946425Y-102027274D01*
X150859233Y-102113255D01*
X150758501Y-102213317D01*
X150673328Y-102292052D01*
X150613483Y-102340803D01*
X150589632Y-102352092D01*
X150573072Y-102315161D01*
X150555093Y-102235541D01*
X150545035Y-102170625D01*
X150525412Y-102028906D01*
X150506697Y-101938625D01*
X150482096Y-101888191D01*
X150444811Y-101866010D01*
X150388046Y-101860491D01*
X150363120Y-101860350D01*
X150238123Y-101860350D01*
X150259512Y-101979412D01*
G36*
X153522873Y-101886590D02*
X153506505Y-101889789D01*
X153349132Y-101938963D01*
X153246419Y-102013268D01*
X153192333Y-102119159D01*
X153180093Y-102239163D01*
X153209397Y-102416918D01*
X153290995Y-102559262D01*
X153423996Y-102665477D01*
X153607510Y-102734846D01*
X153834424Y-102766331D01*
X153969774Y-102768382D01*
X154097906Y-102761669D01*
X154187834Y-102748281D01*
X154314187Y-102709449D01*
X154394314Y-102663360D01*
X154445337Y-102598334D01*
X154463067Y-102560501D01*
X154491065Y-102415713D01*
X154486602Y-102386271D01*
X154204419Y-102386271D01*
X154174735Y-102470127D01*
X154104527Y-102523401D01*
X153987580Y-102548676D01*
X153817680Y-102548536D01*
X153814494Y-102548341D01*
X153691941Y-102537671D01*
X153613327Y-102519932D01*
X153559090Y-102488463D01*
X153519077Y-102447730D01*
X153462267Y-102346897D01*
X153454330Y-102245598D01*
X153494014Y-102160817D01*
X153543000Y-102123479D01*
X153639602Y-102095992D01*
X153770763Y-102084590D01*
X153909507Y-102089684D01*
X154028858Y-102111686D01*
X154041711Y-102115869D01*
X154143330Y-102181524D01*
X154198531Y-102285039D01*
X154204419Y-102386271D01*
X154486602Y-102386271D01*
X154467926Y-102263071D01*
X154400997Y-102119456D01*
X154297626Y-102001749D01*
X154191575Y-101936717D01*
X154050865Y-101896866D01*
X153874906Y-101874022D01*
X153690107Y-101869994D01*
X153522873Y-101886590D01*
X153522873Y-101886590D01*
G37*
X153522873Y-101886590D02*
X153506505Y-101889789D01*
X153349132Y-101938963D01*
X153246419Y-102013268D01*
X153192333Y-102119159D01*
X153180093Y-102239163D01*
X153209397Y-102416918D01*
X153290995Y-102559262D01*
X153423996Y-102665477D01*
X153607510Y-102734846D01*
X153834424Y-102766331D01*
X153969774Y-102768382D01*
X154097906Y-102761669D01*
X154187834Y-102748281D01*
X154314187Y-102709449D01*
X154394314Y-102663360D01*
X154445337Y-102598334D01*
X154463067Y-102560501D01*
X154491065Y-102415713D01*
X154486602Y-102386271D01*
X154204419Y-102386271D01*
X154174735Y-102470127D01*
X154104527Y-102523401D01*
X153987580Y-102548676D01*
X153817680Y-102548536D01*
X153814494Y-102548341D01*
X153691941Y-102537671D01*
X153613327Y-102519932D01*
X153559090Y-102488463D01*
X153519077Y-102447730D01*
X153462267Y-102346897D01*
X153454330Y-102245598D01*
X153494014Y-102160817D01*
X153543000Y-102123479D01*
X153639602Y-102095992D01*
X153770763Y-102084590D01*
X153909507Y-102089684D01*
X154028858Y-102111686D01*
X154041711Y-102115869D01*
X154143330Y-102181524D01*
X154198531Y-102285039D01*
X154204419Y-102386271D01*
X154486602Y-102386271D01*
X154467926Y-102263071D01*
X154400997Y-102119456D01*
X154297626Y-102001749D01*
X154191575Y-101936717D01*
X154050865Y-101896866D01*
X153874906Y-101874022D01*
X153690107Y-101869994D01*
X153522873Y-101886590D01*
G36*
X156416339Y-102781100D02*
X156551295Y-102781100D01*
X156633732Y-102775872D01*
X156681478Y-102762725D01*
X156686250Y-102756162D01*
X156680980Y-102716789D01*
X156666890Y-102629682D01*
X156646556Y-102509574D01*
X156622560Y-102371200D01*
X156597478Y-102229293D01*
X156573891Y-102098587D01*
X156554375Y-101993815D01*
X156541971Y-101931787D01*
X156521921Y-101885905D01*
X156476040Y-101865087D01*
X156390498Y-101860350D01*
X156254705Y-101860350D01*
X156416339Y-102781100D01*
X156416339Y-102781100D01*
G37*
X156416339Y-102781100D02*
X156551295Y-102781100D01*
X156633732Y-102775872D01*
X156681478Y-102762725D01*
X156686250Y-102756162D01*
X156680980Y-102716789D01*
X156666890Y-102629682D01*
X156646556Y-102509574D01*
X156622560Y-102371200D01*
X156597478Y-102229293D01*
X156573891Y-102098587D01*
X156554375Y-101993815D01*
X156541971Y-101931787D01*
X156521921Y-101885905D01*
X156476040Y-101865087D01*
X156390498Y-101860350D01*
X156254705Y-101860350D01*
X156416339Y-102781100D01*
G36*
X158450602Y-101966225D02*
X158543625Y-102078015D01*
X158866466Y-102080307D01*
X159039854Y-102083299D01*
X159159288Y-102090844D01*
X159234271Y-102105134D01*
X159274307Y-102128359D01*
X159288897Y-102162711D01*
X159289750Y-102177902D01*
X159283777Y-102202117D01*
X159259000Y-102219014D01*
X159205136Y-102230417D01*
X159111901Y-102238152D01*
X158969010Y-102244045D01*
X158906159Y-102245986D01*
X158741293Y-102251930D01*
X158628121Y-102259634D01*
X158554839Y-102271147D01*
X158509643Y-102288518D01*
X158480728Y-102313795D01*
X158475269Y-102320768D01*
X158444324Y-102408376D01*
X158449887Y-102517810D01*
X158488676Y-102621410D01*
X158515278Y-102657859D01*
X158571347Y-102703151D01*
X158651726Y-102736590D01*
X158765016Y-102759606D01*
X158919823Y-102773626D01*
X159124748Y-102780081D01*
X159256291Y-102780922D01*
X159714957Y-102781100D01*
X159607250Y-102669975D01*
X159499544Y-102558850D01*
X159128660Y-102558850D01*
X158951516Y-102556490D01*
X158829805Y-102548857D01*
X158755615Y-102535121D01*
X158722414Y-102516241D01*
X158701871Y-102481184D01*
X158713613Y-102457121D01*
X158765113Y-102442109D01*
X158863843Y-102434206D01*
X159017277Y-102431472D01*
X159048980Y-102431381D01*
X159215594Y-102426849D01*
X159348946Y-102414680D01*
X159435610Y-102396231D01*
X159447973Y-102391019D01*
X159532674Y-102317703D01*
X159563821Y-102215968D01*
X159538876Y-102095208D01*
X159532039Y-102079983D01*
X159493818Y-102008624D01*
X159450099Y-101956007D01*
X159390889Y-101919000D01*
X159306196Y-101894474D01*
X159186026Y-101879296D01*
X159020385Y-101870338D01*
X158847477Y-101865523D01*
X158357579Y-101854434D01*
X158450602Y-101966225D01*
X158450602Y-101966225D01*
G37*
X158450602Y-101966225D02*
X158543625Y-102078015D01*
X158866466Y-102080307D01*
X159039854Y-102083299D01*
X159159288Y-102090844D01*
X159234271Y-102105134D01*
X159274307Y-102128359D01*
X159288897Y-102162711D01*
X159289750Y-102177902D01*
X159283777Y-102202117D01*
X159259000Y-102219014D01*
X159205136Y-102230417D01*
X159111901Y-102238152D01*
X158969010Y-102244045D01*
X158906159Y-102245986D01*
X158741293Y-102251930D01*
X158628121Y-102259634D01*
X158554839Y-102271147D01*
X158509643Y-102288518D01*
X158480728Y-102313795D01*
X158475269Y-102320768D01*
X158444324Y-102408376D01*
X158449887Y-102517810D01*
X158488676Y-102621410D01*
X158515278Y-102657859D01*
X158571347Y-102703151D01*
X158651726Y-102736590D01*
X158765016Y-102759606D01*
X158919823Y-102773626D01*
X159124748Y-102780081D01*
X159256291Y-102780922D01*
X159714957Y-102781100D01*
X159607250Y-102669975D01*
X159499544Y-102558850D01*
X159128660Y-102558850D01*
X158951516Y-102556490D01*
X158829805Y-102548857D01*
X158755615Y-102535121D01*
X158722414Y-102516241D01*
X158701871Y-102481184D01*
X158713613Y-102457121D01*
X158765113Y-102442109D01*
X158863843Y-102434206D01*
X159017277Y-102431472D01*
X159048980Y-102431381D01*
X159215594Y-102426849D01*
X159348946Y-102414680D01*
X159435610Y-102396231D01*
X159447973Y-102391019D01*
X159532674Y-102317703D01*
X159563821Y-102215968D01*
X159538876Y-102095208D01*
X159532039Y-102079983D01*
X159493818Y-102008624D01*
X159450099Y-101956007D01*
X159390889Y-101919000D01*
X159306196Y-101894474D01*
X159186026Y-101879296D01*
X159020385Y-101870338D01*
X158847477Y-101865523D01*
X158357579Y-101854434D01*
X158450602Y-101966225D01*
G36*
X161435102Y-101966225D02*
X161528125Y-102078015D01*
X161850966Y-102080307D01*
X162024354Y-102083299D01*
X162143788Y-102090844D01*
X162218771Y-102105134D01*
X162258807Y-102128359D01*
X162273397Y-102162711D01*
X162274250Y-102177902D01*
X162268277Y-102202117D01*
X162243500Y-102219014D01*
X162189636Y-102230417D01*
X162096401Y-102238152D01*
X161953510Y-102244045D01*
X161890659Y-102245986D01*
X161725793Y-102251930D01*
X161612621Y-102259634D01*
X161539339Y-102271147D01*
X161494143Y-102288518D01*
X161465228Y-102313795D01*
X161459769Y-102320768D01*
X161428824Y-102408376D01*
X161434387Y-102517810D01*
X161473176Y-102621410D01*
X161499778Y-102657859D01*
X161555847Y-102703151D01*
X161636226Y-102736590D01*
X161749516Y-102759606D01*
X161904323Y-102773626D01*
X162109248Y-102780081D01*
X162240791Y-102780922D01*
X162699457Y-102781100D01*
X162591750Y-102669975D01*
X162484044Y-102558850D01*
X162113160Y-102558850D01*
X161936016Y-102556490D01*
X161814305Y-102548857D01*
X161740115Y-102535121D01*
X161706914Y-102516241D01*
X161686371Y-102481184D01*
X161698113Y-102457121D01*
X161749613Y-102442109D01*
X161848343Y-102434206D01*
X162001777Y-102431472D01*
X162033480Y-102431381D01*
X162200094Y-102426849D01*
X162333446Y-102414680D01*
X162420110Y-102396231D01*
X162432473Y-102391019D01*
X162517174Y-102317703D01*
X162548321Y-102215968D01*
X162523376Y-102095208D01*
X162516539Y-102079983D01*
X162478318Y-102008624D01*
X162434599Y-101956007D01*
X162375389Y-101919000D01*
X162290696Y-101894474D01*
X162170526Y-101879296D01*
X162004885Y-101870338D01*
X161831977Y-101865523D01*
X161342079Y-101854434D01*
X161435102Y-101966225D01*
X161435102Y-101966225D01*
G37*
X161435102Y-101966225D02*
X161528125Y-102078015D01*
X161850966Y-102080307D01*
X162024354Y-102083299D01*
X162143788Y-102090844D01*
X162218771Y-102105134D01*
X162258807Y-102128359D01*
X162273397Y-102162711D01*
X162274250Y-102177902D01*
X162268277Y-102202117D01*
X162243500Y-102219014D01*
X162189636Y-102230417D01*
X162096401Y-102238152D01*
X161953510Y-102244045D01*
X161890659Y-102245986D01*
X161725793Y-102251930D01*
X161612621Y-102259634D01*
X161539339Y-102271147D01*
X161494143Y-102288518D01*
X161465228Y-102313795D01*
X161459769Y-102320768D01*
X161428824Y-102408376D01*
X161434387Y-102517810D01*
X161473176Y-102621410D01*
X161499778Y-102657859D01*
X161555847Y-102703151D01*
X161636226Y-102736590D01*
X161749516Y-102759606D01*
X161904323Y-102773626D01*
X162109248Y-102780081D01*
X162240791Y-102780922D01*
X162699457Y-102781100D01*
X162591750Y-102669975D01*
X162484044Y-102558850D01*
X162113160Y-102558850D01*
X161936016Y-102556490D01*
X161814305Y-102548857D01*
X161740115Y-102535121D01*
X161706914Y-102516241D01*
X161686371Y-102481184D01*
X161698113Y-102457121D01*
X161749613Y-102442109D01*
X161848343Y-102434206D01*
X162001777Y-102431472D01*
X162033480Y-102431381D01*
X162200094Y-102426849D01*
X162333446Y-102414680D01*
X162420110Y-102396231D01*
X162432473Y-102391019D01*
X162517174Y-102317703D01*
X162548321Y-102215968D01*
X162523376Y-102095208D01*
X162516539Y-102079983D01*
X162478318Y-102008624D01*
X162434599Y-101956007D01*
X162375389Y-101919000D01*
X162290696Y-101894474D01*
X162170526Y-101879296D01*
X162004885Y-101870338D01*
X161831977Y-101865523D01*
X161342079Y-101854434D01*
X161435102Y-101966225D01*
G36*
X164480839Y-102781100D02*
X164615795Y-102781100D01*
X164698232Y-102775872D01*
X164745978Y-102762725D01*
X164750750Y-102756162D01*
X164745480Y-102716789D01*
X164731390Y-102629682D01*
X164711056Y-102509574D01*
X164687060Y-102371200D01*
X164661978Y-102229293D01*
X164638391Y-102098587D01*
X164618875Y-101993815D01*
X164606471Y-101931787D01*
X164586421Y-101885905D01*
X164540540Y-101865087D01*
X164454998Y-101860350D01*
X164319205Y-101860350D01*
X164480839Y-102781100D01*
X164480839Y-102781100D01*
G37*
X164480839Y-102781100D02*
X164615795Y-102781100D01*
X164698232Y-102775872D01*
X164745978Y-102762725D01*
X164750750Y-102756162D01*
X164745480Y-102716789D01*
X164731390Y-102629682D01*
X164711056Y-102509574D01*
X164687060Y-102371200D01*
X164661978Y-102229293D01*
X164638391Y-102098587D01*
X164618875Y-101993815D01*
X164606471Y-101931787D01*
X164586421Y-101885905D01*
X164540540Y-101865087D01*
X164454998Y-101860350D01*
X164319205Y-101860350D01*
X164480839Y-102781100D01*
G36*
X167578346Y-101885412D02*
X167532309Y-101938704D01*
X167483116Y-102035093D01*
X167423587Y-102183130D01*
X167418274Y-102197165D01*
X167371413Y-102312692D01*
X167330537Y-102397823D01*
X167301576Y-102440940D01*
X167292975Y-102442660D01*
X167265017Y-102406180D01*
X167209896Y-102331875D01*
X167137683Y-102233359D01*
X167107905Y-102192475D01*
X167001313Y-102049649D01*
X166920795Y-101953082D01*
X166858059Y-101895635D01*
X166804815Y-101870168D01*
X166752774Y-101869541D01*
X166736888Y-101872945D01*
X166699156Y-101885255D01*
X166671379Y-101906939D01*
X166650615Y-101948024D01*
X166633922Y-102018539D01*
X166618358Y-102128511D01*
X166600978Y-102287968D01*
X166593485Y-102361657D01*
X166576216Y-102531675D01*
X166566234Y-102648376D01*
X166565693Y-102721735D01*
X166576749Y-102761727D01*
X166601557Y-102778328D01*
X166642273Y-102781514D01*
X166684104Y-102781100D01*
X166765788Y-102774027D01*
X166814586Y-102744435D01*
X166838713Y-102679760D01*
X166846381Y-102567440D01*
X166846684Y-102532440D01*
X166849854Y-102395074D01*
X166861969Y-102315570D01*
X166888404Y-102293047D01*
X166934529Y-102326626D01*
X167005717Y-102415425D01*
X167064086Y-102496819D01*
X167181907Y-102650924D01*
X167279847Y-102746429D01*
X167362354Y-102783387D01*
X167433875Y-102761854D01*
X167498862Y-102681881D01*
X167561761Y-102543523D01*
X167576558Y-102503004D01*
X167617054Y-102392427D01*
X167650994Y-102306949D01*
X167671869Y-102262839D01*
X167673474Y-102260793D01*
X167692535Y-102279957D01*
X167728926Y-102345948D01*
X167776299Y-102446674D01*
X167801269Y-102504267D01*
X167911581Y-102765225D01*
X168045666Y-102774988D01*
X168127658Y-102777819D01*
X168175069Y-102773380D01*
X168179750Y-102769815D01*
X168166856Y-102737398D01*
X168131335Y-102658046D01*
X168077937Y-102542119D01*
X168011407Y-102399979D01*
X167975836Y-102324712D01*
X167893074Y-102153237D01*
X167830006Y-102031486D01*
X167781184Y-101950872D01*
X167741157Y-101902810D01*
X167704474Y-101878714D01*
X167689674Y-101873902D01*
X167628407Y-101866662D01*
X167578346Y-101885412D01*
X167578346Y-101885412D01*
G37*
X167578346Y-101885412D02*
X167532309Y-101938704D01*
X167483116Y-102035093D01*
X167423587Y-102183130D01*
X167418274Y-102197165D01*
X167371413Y-102312692D01*
X167330537Y-102397823D01*
X167301576Y-102440940D01*
X167292975Y-102442660D01*
X167265017Y-102406180D01*
X167209896Y-102331875D01*
X167137683Y-102233359D01*
X167107905Y-102192475D01*
X167001313Y-102049649D01*
X166920795Y-101953082D01*
X166858059Y-101895635D01*
X166804815Y-101870168D01*
X166752774Y-101869541D01*
X166736888Y-101872945D01*
X166699156Y-101885255D01*
X166671379Y-101906939D01*
X166650615Y-101948024D01*
X166633922Y-102018539D01*
X166618358Y-102128511D01*
X166600978Y-102287968D01*
X166593485Y-102361657D01*
X166576216Y-102531675D01*
X166566234Y-102648376D01*
X166565693Y-102721735D01*
X166576749Y-102761727D01*
X166601557Y-102778328D01*
X166642273Y-102781514D01*
X166684104Y-102781100D01*
X166765788Y-102774027D01*
X166814586Y-102744435D01*
X166838713Y-102679760D01*
X166846381Y-102567440D01*
X166846684Y-102532440D01*
X166849854Y-102395074D01*
X166861969Y-102315570D01*
X166888404Y-102293047D01*
X166934529Y-102326626D01*
X167005717Y-102415425D01*
X167064086Y-102496819D01*
X167181907Y-102650924D01*
X167279847Y-102746429D01*
X167362354Y-102783387D01*
X167433875Y-102761854D01*
X167498862Y-102681881D01*
X167561761Y-102543523D01*
X167576558Y-102503004D01*
X167617054Y-102392427D01*
X167650994Y-102306949D01*
X167671869Y-102262839D01*
X167673474Y-102260793D01*
X167692535Y-102279957D01*
X167728926Y-102345948D01*
X167776299Y-102446674D01*
X167801269Y-102504267D01*
X167911581Y-102765225D01*
X168045666Y-102774988D01*
X168127658Y-102777819D01*
X168175069Y-102773380D01*
X168179750Y-102769815D01*
X168166856Y-102737398D01*
X168131335Y-102658046D01*
X168077937Y-102542119D01*
X168011407Y-102399979D01*
X167975836Y-102324712D01*
X167893074Y-102153237D01*
X167830006Y-102031486D01*
X167781184Y-101950872D01*
X167741157Y-101902810D01*
X167704474Y-101878714D01*
X167689674Y-101873902D01*
X167628407Y-101866662D01*
X167578346Y-101885412D01*
G36*
X169880602Y-101966225D02*
X169973625Y-102078015D01*
X170296466Y-102080307D01*
X170469854Y-102083299D01*
X170589288Y-102090844D01*
X170664271Y-102105134D01*
X170704307Y-102128359D01*
X170718897Y-102162711D01*
X170719750Y-102177902D01*
X170713777Y-102202117D01*
X170689000Y-102219014D01*
X170635136Y-102230417D01*
X170541901Y-102238152D01*
X170399010Y-102244045D01*
X170336159Y-102245986D01*
X170171293Y-102251930D01*
X170058121Y-102259634D01*
X169984839Y-102271147D01*
X169939643Y-102288518D01*
X169910728Y-102313795D01*
X169905269Y-102320768D01*
X169874324Y-102408376D01*
X169879887Y-102517810D01*
X169918676Y-102621410D01*
X169945278Y-102657859D01*
X170001347Y-102703151D01*
X170081726Y-102736590D01*
X170195016Y-102759606D01*
X170349823Y-102773626D01*
X170554748Y-102780081D01*
X170686291Y-102780922D01*
X171144957Y-102781100D01*
X171037250Y-102669975D01*
X170929544Y-102558850D01*
X170558660Y-102558850D01*
X170381516Y-102556490D01*
X170259805Y-102548857D01*
X170185615Y-102535121D01*
X170152414Y-102516241D01*
X170131871Y-102481184D01*
X170143613Y-102457121D01*
X170195113Y-102442109D01*
X170293843Y-102434206D01*
X170447277Y-102431472D01*
X170478980Y-102431381D01*
X170645594Y-102426849D01*
X170778946Y-102414680D01*
X170865610Y-102396231D01*
X170877973Y-102391019D01*
X170962674Y-102317703D01*
X170993821Y-102215968D01*
X170968876Y-102095208D01*
X170962039Y-102079983D01*
X170923818Y-102008624D01*
X170880099Y-101956007D01*
X170820889Y-101919000D01*
X170736196Y-101894474D01*
X170616026Y-101879296D01*
X170450385Y-101870338D01*
X170277477Y-101865523D01*
X169787579Y-101854434D01*
X169880602Y-101966225D01*
X169880602Y-101966225D01*
G37*
X169880602Y-101966225D02*
X169973625Y-102078015D01*
X170296466Y-102080307D01*
X170469854Y-102083299D01*
X170589288Y-102090844D01*
X170664271Y-102105134D01*
X170704307Y-102128359D01*
X170718897Y-102162711D01*
X170719750Y-102177902D01*
X170713777Y-102202117D01*
X170689000Y-102219014D01*
X170635136Y-102230417D01*
X170541901Y-102238152D01*
X170399010Y-102244045D01*
X170336159Y-102245986D01*
X170171293Y-102251930D01*
X170058121Y-102259634D01*
X169984839Y-102271147D01*
X169939643Y-102288518D01*
X169910728Y-102313795D01*
X169905269Y-102320768D01*
X169874324Y-102408376D01*
X169879887Y-102517810D01*
X169918676Y-102621410D01*
X169945278Y-102657859D01*
X170001347Y-102703151D01*
X170081726Y-102736590D01*
X170195016Y-102759606D01*
X170349823Y-102773626D01*
X170554748Y-102780081D01*
X170686291Y-102780922D01*
X171144957Y-102781100D01*
X171037250Y-102669975D01*
X170929544Y-102558850D01*
X170558660Y-102558850D01*
X170381516Y-102556490D01*
X170259805Y-102548857D01*
X170185615Y-102535121D01*
X170152414Y-102516241D01*
X170131871Y-102481184D01*
X170143613Y-102457121D01*
X170195113Y-102442109D01*
X170293843Y-102434206D01*
X170447277Y-102431472D01*
X170478980Y-102431381D01*
X170645594Y-102426849D01*
X170778946Y-102414680D01*
X170865610Y-102396231D01*
X170877973Y-102391019D01*
X170962674Y-102317703D01*
X170993821Y-102215968D01*
X170968876Y-102095208D01*
X170962039Y-102079983D01*
X170923818Y-102008624D01*
X170880099Y-101956007D01*
X170820889Y-101919000D01*
X170736196Y-101894474D01*
X170616026Y-101879296D01*
X170450385Y-101870338D01*
X170277477Y-101865523D01*
X169787579Y-101854434D01*
X169880602Y-101966225D01*
G36*
X172802012Y-101979412D02*
X172844549Y-102213242D01*
X172878669Y-102392247D01*
X172906331Y-102524248D01*
X172929493Y-102617066D01*
X172950115Y-102678522D01*
X172970153Y-102716437D01*
X172991566Y-102738632D01*
X172992245Y-102739133D01*
X173047897Y-102769843D01*
X173103226Y-102772609D01*
X173167254Y-102742414D01*
X173249004Y-102674244D01*
X173357497Y-102563083D01*
X173408169Y-102507915D01*
X173656625Y-102234730D01*
X173704251Y-102499977D01*
X173751876Y-102765225D01*
X173870938Y-102775079D01*
X173957433Y-102773433D01*
X173989381Y-102748488D01*
X173989790Y-102743329D01*
X173984549Y-102696838D01*
X173970479Y-102602087D01*
X173949790Y-102473348D01*
X173927346Y-102340267D01*
X173889271Y-102145825D01*
X173850306Y-102007735D01*
X173807135Y-101918896D01*
X173756444Y-101872208D01*
X173703241Y-101860350D01*
X173659971Y-101882047D01*
X173584776Y-101940839D01*
X173488925Y-102027274D01*
X173401733Y-102113255D01*
X173301001Y-102213317D01*
X173215828Y-102292052D01*
X173155983Y-102340803D01*
X173132132Y-102352092D01*
X173115572Y-102315161D01*
X173097593Y-102235541D01*
X173087535Y-102170625D01*
X173067912Y-102028906D01*
X173049197Y-101938625D01*
X173024596Y-101888191D01*
X172987311Y-101866010D01*
X172930546Y-101860491D01*
X172905620Y-101860350D01*
X172780623Y-101860350D01*
X172802012Y-101979412D01*
X172802012Y-101979412D01*
G37*
X172802012Y-101979412D02*
X172844549Y-102213242D01*
X172878669Y-102392247D01*
X172906331Y-102524248D01*
X172929493Y-102617066D01*
X172950115Y-102678522D01*
X172970153Y-102716437D01*
X172991566Y-102738632D01*
X172992245Y-102739133D01*
X173047897Y-102769843D01*
X173103226Y-102772609D01*
X173167254Y-102742414D01*
X173249004Y-102674244D01*
X173357497Y-102563083D01*
X173408169Y-102507915D01*
X173656625Y-102234730D01*
X173704251Y-102499977D01*
X173751876Y-102765225D01*
X173870938Y-102775079D01*
X173957433Y-102773433D01*
X173989381Y-102748488D01*
X173989790Y-102743329D01*
X173984549Y-102696838D01*
X173970479Y-102602087D01*
X173949790Y-102473348D01*
X173927346Y-102340267D01*
X173889271Y-102145825D01*
X173850306Y-102007735D01*
X173807135Y-101918896D01*
X173756444Y-101872208D01*
X173703241Y-101860350D01*
X173659971Y-101882047D01*
X173584776Y-101940839D01*
X173488925Y-102027274D01*
X173401733Y-102113255D01*
X173301001Y-102213317D01*
X173215828Y-102292052D01*
X173155983Y-102340803D01*
X173132132Y-102352092D01*
X173115572Y-102315161D01*
X173097593Y-102235541D01*
X173087535Y-102170625D01*
X173067912Y-102028906D01*
X173049197Y-101938625D01*
X173024596Y-101888191D01*
X172987311Y-101866010D01*
X172930546Y-101860491D01*
X172905620Y-101860350D01*
X172780623Y-101860350D01*
X172802012Y-101979412D01*
G36*
X176322255Y-101873948D02*
X176270260Y-101912266D01*
X176212855Y-101985859D01*
X176143994Y-102101498D01*
X176057631Y-102265955D01*
X176020766Y-102339064D01*
X175799327Y-102781100D01*
X176818458Y-102781100D01*
X176729792Y-102669975D01*
X176673954Y-102606454D01*
X176621335Y-102573265D01*
X176548148Y-102560661D01*
X176458563Y-102558850D01*
X176360486Y-102553979D01*
X176294218Y-102541365D01*
X176276000Y-102527949D01*
X176288940Y-102481199D01*
X176320989Y-102405885D01*
X176361997Y-102322344D01*
X176401810Y-102250913D01*
X176430275Y-102211931D01*
X176434918Y-102209600D01*
X176461968Y-102232228D01*
X176521339Y-102293829D01*
X176604246Y-102384972D01*
X176701144Y-102495350D01*
X176948105Y-102781100D01*
X177109099Y-102781100D01*
X177201945Y-102779353D01*
X177242375Y-102770526D01*
X177241451Y-102749242D01*
X177223375Y-102725537D01*
X177081401Y-102559191D01*
X176938058Y-102395724D01*
X176800167Y-102242478D01*
X176674547Y-102106795D01*
X176568019Y-101996015D01*
X176487402Y-101917480D01*
X176439516Y-101878531D01*
X176434202Y-101876051D01*
X176374887Y-101864133D01*
X176322255Y-101873948D01*
X176322255Y-101873948D01*
G37*
X176322255Y-101873948D02*
X176270260Y-101912266D01*
X176212855Y-101985859D01*
X176143994Y-102101498D01*
X176057631Y-102265955D01*
X176020766Y-102339064D01*
X175799327Y-102781100D01*
X176818458Y-102781100D01*
X176729792Y-102669975D01*
X176673954Y-102606454D01*
X176621335Y-102573265D01*
X176548148Y-102560661D01*
X176458563Y-102558850D01*
X176360486Y-102553979D01*
X176294218Y-102541365D01*
X176276000Y-102527949D01*
X176288940Y-102481199D01*
X176320989Y-102405885D01*
X176361997Y-102322344D01*
X176401810Y-102250913D01*
X176430275Y-102211931D01*
X176434918Y-102209600D01*
X176461968Y-102232228D01*
X176521339Y-102293829D01*
X176604246Y-102384972D01*
X176701144Y-102495350D01*
X176948105Y-102781100D01*
X177109099Y-102781100D01*
X177201945Y-102779353D01*
X177242375Y-102770526D01*
X177241451Y-102749242D01*
X177223375Y-102725537D01*
X177081401Y-102559191D01*
X176938058Y-102395724D01*
X176800167Y-102242478D01*
X176674547Y-102106795D01*
X176568019Y-101996015D01*
X176487402Y-101917480D01*
X176439516Y-101878531D01*
X176434202Y-101876051D01*
X176374887Y-101864133D01*
X176322255Y-101873948D01*
G36*
X179487958Y-101864858D02*
X179319433Y-101871296D01*
X179201121Y-101880279D01*
X179119734Y-101894005D01*
X179061987Y-101914673D01*
X179016758Y-101942864D01*
X178946048Y-102030878D01*
X178920189Y-102143031D01*
X178936882Y-102260926D01*
X178993830Y-102366168D01*
X179078267Y-102435209D01*
X179136877Y-102467217D01*
X179161741Y-102482911D01*
X179152431Y-102512185D01*
X179114231Y-102572593D01*
X179095991Y-102597673D01*
X179026277Y-102692565D01*
X178997286Y-102747343D01*
X179012084Y-102773026D01*
X179073737Y-102780632D01*
X179147051Y-102781100D01*
X179249895Y-102778357D01*
X179312804Y-102762466D01*
X179359321Y-102721930D01*
X179407144Y-102654100D01*
X179455238Y-102585405D01*
X179497980Y-102547418D01*
X179555942Y-102531041D01*
X179649695Y-102527179D01*
X179694341Y-102527100D01*
X179826476Y-102533535D01*
X179897474Y-102552750D01*
X179909720Y-102566787D01*
X179925401Y-102626268D01*
X179941079Y-102693787D01*
X179961319Y-102750660D01*
X180002305Y-102775551D01*
X180085103Y-102781099D01*
X180086605Y-102781100D01*
X180171453Y-102772609D01*
X180211646Y-102750089D01*
X180213000Y-102744013D01*
X180207837Y-102695039D01*
X180194386Y-102604381D01*
X180177991Y-102505888D01*
X180142982Y-102304850D01*
X179705629Y-102304850D01*
X179524022Y-102303653D01*
X179395707Y-102299351D01*
X179310511Y-102290875D01*
X179258260Y-102277158D01*
X179228777Y-102257132D01*
X179226542Y-102254563D01*
X179201972Y-102193376D01*
X179218082Y-102151376D01*
X179242456Y-102128780D01*
X179289534Y-102112159D01*
X179369491Y-102099964D01*
X179492504Y-102090650D01*
X179668749Y-102082669D01*
X179670583Y-102082600D01*
X180089810Y-102066725D01*
X179869526Y-101853491D01*
X179487958Y-101864858D01*
X179487958Y-101864858D01*
G37*
X179487958Y-101864858D02*
X179319433Y-101871296D01*
X179201121Y-101880279D01*
X179119734Y-101894005D01*
X179061987Y-101914673D01*
X179016758Y-101942864D01*
X178946048Y-102030878D01*
X178920189Y-102143031D01*
X178936882Y-102260926D01*
X178993830Y-102366168D01*
X179078267Y-102435209D01*
X179136877Y-102467217D01*
X179161741Y-102482911D01*
X179152431Y-102512185D01*
X179114231Y-102572593D01*
X179095991Y-102597673D01*
X179026277Y-102692565D01*
X178997286Y-102747343D01*
X179012084Y-102773026D01*
X179073737Y-102780632D01*
X179147051Y-102781100D01*
X179249895Y-102778357D01*
X179312804Y-102762466D01*
X179359321Y-102721930D01*
X179407144Y-102654100D01*
X179455238Y-102585405D01*
X179497980Y-102547418D01*
X179555942Y-102531041D01*
X179649695Y-102527179D01*
X179694341Y-102527100D01*
X179826476Y-102533535D01*
X179897474Y-102552750D01*
X179909720Y-102566787D01*
X179925401Y-102626268D01*
X179941079Y-102693787D01*
X179961319Y-102750660D01*
X180002305Y-102775551D01*
X180085103Y-102781099D01*
X180086605Y-102781100D01*
X180171453Y-102772609D01*
X180211646Y-102750089D01*
X180213000Y-102744013D01*
X180207837Y-102695039D01*
X180194386Y-102604381D01*
X180177991Y-102505888D01*
X180142982Y-102304850D01*
X179705629Y-102304850D01*
X179524022Y-102303653D01*
X179395707Y-102299351D01*
X179310511Y-102290875D01*
X179258260Y-102277158D01*
X179228777Y-102257132D01*
X179226542Y-102254563D01*
X179201972Y-102193376D01*
X179218082Y-102151376D01*
X179242456Y-102128780D01*
X179289534Y-102112159D01*
X179369491Y-102099964D01*
X179492504Y-102090650D01*
X179668749Y-102082669D01*
X179670583Y-102082600D01*
X180089810Y-102066725D01*
X179869526Y-101853491D01*
X179487958Y-101864858D01*
G36*
X181852936Y-101969182D02*
X181914213Y-102034459D01*
X181973908Y-102067218D01*
X182058589Y-102078895D01*
X182111059Y-102080307D01*
X182221210Y-102089224D01*
X182282522Y-102110829D01*
X182291063Y-102122287D01*
X182301463Y-102169169D01*
X182319411Y-102262968D01*
X182341964Y-102387975D01*
X182356501Y-102471537D01*
X182409620Y-102781100D01*
X182551700Y-102781100D01*
X182638947Y-102777433D01*
X182676670Y-102762382D01*
X182678621Y-102729868D01*
X182677412Y-102725537D01*
X182663827Y-102666257D01*
X182644705Y-102567046D01*
X182626606Y-102463600D01*
X182605752Y-102341174D01*
X182586403Y-102231829D01*
X182574811Y-102169912D01*
X182557455Y-102082600D01*
X182946732Y-102082600D01*
X182777214Y-101860350D01*
X181762496Y-101860350D01*
X181852936Y-101969182D01*
X181852936Y-101969182D01*
G37*
X181852936Y-101969182D02*
X181914213Y-102034459D01*
X181973908Y-102067218D01*
X182058589Y-102078895D01*
X182111059Y-102080307D01*
X182221210Y-102089224D01*
X182282522Y-102110829D01*
X182291063Y-102122287D01*
X182301463Y-102169169D01*
X182319411Y-102262968D01*
X182341964Y-102387975D01*
X182356501Y-102471537D01*
X182409620Y-102781100D01*
X182551700Y-102781100D01*
X182638947Y-102777433D01*
X182676670Y-102762382D01*
X182678621Y-102729868D01*
X182677412Y-102725537D01*
X182663827Y-102666257D01*
X182644705Y-102567046D01*
X182626606Y-102463600D01*
X182605752Y-102341174D01*
X182586403Y-102231829D01*
X182574811Y-102169912D01*
X182557455Y-102082600D01*
X182946732Y-102082600D01*
X182777214Y-101860350D01*
X181762496Y-101860350D01*
X181852936Y-101969182D01*
G36*
X143163125Y-97566162D02*
X143070814Y-97947704D01*
X143005366Y-98308884D01*
X142964549Y-98669761D01*
X142946132Y-99050392D01*
X142947882Y-99470836D01*
X142948504Y-99494975D01*
X142965162Y-99868632D01*
X142995949Y-100199843D01*
X143044332Y-100508759D01*
X143113777Y-100815533D01*
X143207750Y-101140316D01*
X143258167Y-101295331D01*
X143335050Y-101517612D01*
X143412650Y-101723745D01*
X143495726Y-101923649D01*
X143589033Y-102127245D01*
X143697329Y-102344450D01*
X143825373Y-102585185D01*
X143977920Y-102859368D01*
X144159730Y-103176919D01*
X144164813Y-103185711D01*
X144224375Y-103288698D01*
X144583437Y-103288899D01*
X144724162Y-103287029D01*
X144836437Y-103281797D01*
X144908279Y-103274024D01*
X144928336Y-103265287D01*
X144906996Y-103229923D01*
X144860028Y-103152352D01*
X144794748Y-103044652D01*
X144731183Y-102939850D01*
X144644620Y-102792296D01*
X144542340Y-102610422D01*
X144436825Y-102416802D01*
X144340557Y-102234011D01*
X144336166Y-102225475D01*
X144088039Y-101703798D01*
X143892364Y-101202401D01*
X143748012Y-100712289D01*
X143653857Y-100224466D01*
X143608772Y-99729937D01*
X143611628Y-99219707D01*
X143661300Y-98684779D01*
X143756660Y-98116159D01*
X143797072Y-97923644D01*
X143831235Y-97766196D01*
X143859844Y-97631181D01*
X143880405Y-97530614D01*
X143890423Y-97476510D01*
X143891000Y-97471206D01*
X143861394Y-97461504D01*
X143781131Y-97453668D01*
X143663049Y-97448587D01*
X143542974Y-97447100D01*
X143194948Y-97447100D01*
X143163125Y-97566162D01*
X143163125Y-97566162D01*
G37*
X143163125Y-97566162D02*
X143070814Y-97947704D01*
X143005366Y-98308884D01*
X142964549Y-98669761D01*
X142946132Y-99050392D01*
X142947882Y-99470836D01*
X142948504Y-99494975D01*
X142965162Y-99868632D01*
X142995949Y-100199843D01*
X143044332Y-100508759D01*
X143113777Y-100815533D01*
X143207750Y-101140316D01*
X143258167Y-101295331D01*
X143335050Y-101517612D01*
X143412650Y-101723745D01*
X143495726Y-101923649D01*
X143589033Y-102127245D01*
X143697329Y-102344450D01*
X143825373Y-102585185D01*
X143977920Y-102859368D01*
X144159730Y-103176919D01*
X144164813Y-103185711D01*
X144224375Y-103288698D01*
X144583437Y-103288899D01*
X144724162Y-103287029D01*
X144836437Y-103281797D01*
X144908279Y-103274024D01*
X144928336Y-103265287D01*
X144906996Y-103229923D01*
X144860028Y-103152352D01*
X144794748Y-103044652D01*
X144731183Y-102939850D01*
X144644620Y-102792296D01*
X144542340Y-102610422D01*
X144436825Y-102416802D01*
X144340557Y-102234011D01*
X144336166Y-102225475D01*
X144088039Y-101703798D01*
X143892364Y-101202401D01*
X143748012Y-100712289D01*
X143653857Y-100224466D01*
X143608772Y-99729937D01*
X143611628Y-99219707D01*
X143661300Y-98684779D01*
X143756660Y-98116159D01*
X143797072Y-97923644D01*
X143831235Y-97766196D01*
X143859844Y-97631181D01*
X143880405Y-97530614D01*
X143890423Y-97476510D01*
X143891000Y-97471206D01*
X143861394Y-97461504D01*
X143781131Y-97453668D01*
X143663049Y-97448587D01*
X143542974Y-97447100D01*
X143194948Y-97447100D01*
X143163125Y-97566162D01*
G36*
X145385625Y-97566162D02*
X145293314Y-97947704D01*
X145227866Y-98308884D01*
X145187049Y-98669761D01*
X145168632Y-99050392D01*
X145170382Y-99470836D01*
X145171004Y-99494975D01*
X145187662Y-99868632D01*
X145218449Y-100199843D01*
X145266832Y-100508759D01*
X145336277Y-100815533D01*
X145430250Y-101140316D01*
X145480667Y-101295331D01*
X145557550Y-101517612D01*
X145635150Y-101723745D01*
X145718226Y-101923649D01*
X145811533Y-102127245D01*
X145919829Y-102344450D01*
X146047873Y-102585185D01*
X146200420Y-102859368D01*
X146382230Y-103176919D01*
X146387313Y-103185711D01*
X146446875Y-103288698D01*
X146805937Y-103288899D01*
X146946662Y-103287029D01*
X147058937Y-103281797D01*
X147130779Y-103274024D01*
X147150836Y-103265287D01*
X147129496Y-103229923D01*
X147082528Y-103152352D01*
X147017248Y-103044652D01*
X146953683Y-102939850D01*
X146867120Y-102792296D01*
X146764840Y-102610422D01*
X146659325Y-102416802D01*
X146563057Y-102234011D01*
X146558666Y-102225475D01*
X146310539Y-101703798D01*
X146114864Y-101202401D01*
X145970512Y-100712289D01*
X145876357Y-100224466D01*
X145831272Y-99729937D01*
X145834128Y-99219707D01*
X145883800Y-98684779D01*
X145979160Y-98116159D01*
X146019572Y-97923644D01*
X146053735Y-97766196D01*
X146082344Y-97631181D01*
X146102905Y-97530614D01*
X146112923Y-97476510D01*
X146113500Y-97471206D01*
X146083894Y-97461504D01*
X146003631Y-97453668D01*
X145885549Y-97448587D01*
X145765474Y-97447100D01*
X145417448Y-97447100D01*
X145385625Y-97566162D01*
X145385625Y-97566162D01*
G37*
X145385625Y-97566162D02*
X145293314Y-97947704D01*
X145227866Y-98308884D01*
X145187049Y-98669761D01*
X145168632Y-99050392D01*
X145170382Y-99470836D01*
X145171004Y-99494975D01*
X145187662Y-99868632D01*
X145218449Y-100199843D01*
X145266832Y-100508759D01*
X145336277Y-100815533D01*
X145430250Y-101140316D01*
X145480667Y-101295331D01*
X145557550Y-101517612D01*
X145635150Y-101723745D01*
X145718226Y-101923649D01*
X145811533Y-102127245D01*
X145919829Y-102344450D01*
X146047873Y-102585185D01*
X146200420Y-102859368D01*
X146382230Y-103176919D01*
X146387313Y-103185711D01*
X146446875Y-103288698D01*
X146805937Y-103288899D01*
X146946662Y-103287029D01*
X147058937Y-103281797D01*
X147130779Y-103274024D01*
X147150836Y-103265287D01*
X147129496Y-103229923D01*
X147082528Y-103152352D01*
X147017248Y-103044652D01*
X146953683Y-102939850D01*
X146867120Y-102792296D01*
X146764840Y-102610422D01*
X146659325Y-102416802D01*
X146563057Y-102234011D01*
X146558666Y-102225475D01*
X146310539Y-101703798D01*
X146114864Y-101202401D01*
X145970512Y-100712289D01*
X145876357Y-100224466D01*
X145831272Y-99729937D01*
X145834128Y-99219707D01*
X145883800Y-98684779D01*
X145979160Y-98116159D01*
X146019572Y-97923644D01*
X146053735Y-97766196D01*
X146082344Y-97631181D01*
X146102905Y-97530614D01*
X146112923Y-97476510D01*
X146113500Y-97471206D01*
X146083894Y-97461504D01*
X146003631Y-97453668D01*
X145885549Y-97448587D01*
X145765474Y-97447100D01*
X145417448Y-97447100D01*
X145385625Y-97566162D01*
G36*
X147639875Y-97566162D02*
X147547564Y-97947704D01*
X147482116Y-98308884D01*
X147441299Y-98669761D01*
X147422882Y-99050392D01*
X147424632Y-99470836D01*
X147425254Y-99494975D01*
X147441912Y-99868632D01*
X147472699Y-100199843D01*
X147521082Y-100508759D01*
X147590527Y-100815533D01*
X147684500Y-101140316D01*
X147734917Y-101295331D01*
X147811800Y-101517612D01*
X147889400Y-101723745D01*
X147972476Y-101923649D01*
X148065783Y-102127245D01*
X148174079Y-102344450D01*
X148302123Y-102585185D01*
X148454670Y-102859368D01*
X148636480Y-103176919D01*
X148641563Y-103185711D01*
X148701125Y-103288698D01*
X149060187Y-103288899D01*
X149200912Y-103287029D01*
X149313187Y-103281797D01*
X149385029Y-103274024D01*
X149405086Y-103265287D01*
X149383746Y-103229923D01*
X149336778Y-103152352D01*
X149271498Y-103044652D01*
X149207933Y-102939850D01*
X149121370Y-102792296D01*
X149019090Y-102610422D01*
X148913575Y-102416802D01*
X148817307Y-102234011D01*
X148812916Y-102225475D01*
X148564789Y-101703798D01*
X148369114Y-101202401D01*
X148224762Y-100712289D01*
X148130607Y-100224466D01*
X148085522Y-99729937D01*
X148088378Y-99219707D01*
X148138050Y-98684779D01*
X148233410Y-98116159D01*
X148273822Y-97923644D01*
X148307985Y-97766196D01*
X148336594Y-97631181D01*
X148357155Y-97530614D01*
X148367173Y-97476510D01*
X148367750Y-97471206D01*
X148338144Y-97461504D01*
X148257881Y-97453668D01*
X148139799Y-97448587D01*
X148019724Y-97447100D01*
X147671698Y-97447100D01*
X147639875Y-97566162D01*
X147639875Y-97566162D01*
G37*
X147639875Y-97566162D02*
X147547564Y-97947704D01*
X147482116Y-98308884D01*
X147441299Y-98669761D01*
X147422882Y-99050392D01*
X147424632Y-99470836D01*
X147425254Y-99494975D01*
X147441912Y-99868632D01*
X147472699Y-100199843D01*
X147521082Y-100508759D01*
X147590527Y-100815533D01*
X147684500Y-101140316D01*
X147734917Y-101295331D01*
X147811800Y-101517612D01*
X147889400Y-101723745D01*
X147972476Y-101923649D01*
X148065783Y-102127245D01*
X148174079Y-102344450D01*
X148302123Y-102585185D01*
X148454670Y-102859368D01*
X148636480Y-103176919D01*
X148641563Y-103185711D01*
X148701125Y-103288698D01*
X149060187Y-103288899D01*
X149200912Y-103287029D01*
X149313187Y-103281797D01*
X149385029Y-103274024D01*
X149405086Y-103265287D01*
X149383746Y-103229923D01*
X149336778Y-103152352D01*
X149271498Y-103044652D01*
X149207933Y-102939850D01*
X149121370Y-102792296D01*
X149019090Y-102610422D01*
X148913575Y-102416802D01*
X148817307Y-102234011D01*
X148812916Y-102225475D01*
X148564789Y-101703798D01*
X148369114Y-101202401D01*
X148224762Y-100712289D01*
X148130607Y-100224466D01*
X148085522Y-99729937D01*
X148088378Y-99219707D01*
X148138050Y-98684779D01*
X148233410Y-98116159D01*
X148273822Y-97923644D01*
X148307985Y-97766196D01*
X148336594Y-97631181D01*
X148357155Y-97530614D01*
X148367173Y-97476510D01*
X148367750Y-97471206D01*
X148338144Y-97461504D01*
X148257881Y-97453668D01*
X148139799Y-97448587D01*
X148019724Y-97447100D01*
X147671698Y-97447100D01*
X147639875Y-97566162D01*
G04 #@! TD*
M02*
