M48
;DRILL file {KiCad (6.0.0-rc1-dev-479-g831c9b6f6-dirty)} date 2018 September 12, Wednesday 23:56:17
;FORMAT={3:3/ absolute / metric / suppress leading zeros}
FMAT,2
METRIC,TZ
T1C0.400
T2C0.700
T3C1.000
T4C1.100
%
G90
G05
M71
T1
X143916Y-92710
X144704Y-108509
X146914Y-101016
X147625Y-92659
X147879Y-106172
X147930Y-97130
X149403Y-92558
X150216Y-96037
X150470Y-106858
X152959Y-106858
X153289Y-100482
X153289Y-101702
X154483Y-100457
X154534Y-101727
X155778Y-106350
X157226Y-96850
X157556Y-98577
X157810Y-95453
X158826Y-103505
X160960Y-101244
X163093Y-92888
X163297Y-108610
X165100Y-104216
X167792Y-108560
X170612Y-92888
X170612Y-97790
X170612Y-104165
X172390Y-108560
X177013Y-108433
X179730Y-96977
X179756Y-100076
X179908Y-92812
X182347Y-106731
X182423Y-103759
T3
X180010Y-108153
T4
X141510Y-98411
X141510Y-102911
T2
X142410Y-94811G85X140610Y-94811
G05
X142410Y-106511G85X140610Y-106511
G05
T0
M30
