G04 #@! TF.GenerationSoftware,KiCad,Pcbnew,(6.0.0-rc1-dev-479-g831c9b6f6-dirty)*
G04 #@! TF.CreationDate,2018-09-12T23:56:39+02:00*
G04 #@! TF.ProjectId,RapTorS,526170546F72532E6B696361645F7063,rev?*
G04 #@! TF.SameCoordinates,Original*
G04 #@! TF.FileFunction,Soldermask,Top*
G04 #@! TF.FilePolarity,Negative*
%FSLAX46Y46*%
G04 Gerber Fmt 4.6, Leading zero omitted, Abs format (unit mm)*
G04 Created by KiCad (PCBNEW (6.0.0-rc1-dev-479-g831c9b6f6-dirty)) date 2018 September 12, Wednesday 23:56:39*
%MOMM*%
%LPD*%
G01*
G04 APERTURE LIST*
%ADD10C,0.100000*%
G04 APERTURE END LIST*
D10*
G36*
X180359826Y-106999315D02*
X180578212Y-107089773D01*
X180774758Y-107221101D01*
X180941899Y-107388242D01*
X181073227Y-107584788D01*
X181163685Y-107803174D01*
X181209800Y-108035009D01*
X181209800Y-108271391D01*
X181163685Y-108503226D01*
X181073227Y-108721612D01*
X180941899Y-108918158D01*
X180774758Y-109085299D01*
X180578212Y-109216627D01*
X180359826Y-109307085D01*
X180127991Y-109353200D01*
X179891609Y-109353200D01*
X179659774Y-109307085D01*
X179441388Y-109216627D01*
X179244842Y-109085299D01*
X179077701Y-108918158D01*
X178946373Y-108721612D01*
X178855915Y-108503226D01*
X178809800Y-108271391D01*
X178809800Y-108035009D01*
X178855915Y-107803174D01*
X178946373Y-107584788D01*
X179077701Y-107388242D01*
X179244842Y-107221101D01*
X179441388Y-107089773D01*
X179659774Y-106999315D01*
X179891609Y-106953200D01*
X180127991Y-106953200D01*
X180359826Y-106999315D01*
X180359826Y-106999315D01*
G37*
G36*
X140682000Y-109184200D02*
X139782000Y-109184200D01*
X139782000Y-107884200D01*
X140682000Y-107884200D01*
X140682000Y-109184200D01*
X140682000Y-109184200D01*
G37*
G36*
X142182000Y-109184200D02*
X141282000Y-109184200D01*
X141282000Y-107884200D01*
X142182000Y-107884200D01*
X142182000Y-109184200D01*
X142182000Y-109184200D01*
G37*
G36*
X154854600Y-107547400D02*
X153704600Y-107547400D01*
X153704600Y-106347400D01*
X154854600Y-106347400D01*
X154854600Y-107547400D01*
X154854600Y-107547400D01*
G37*
G36*
X142626027Y-105676932D02*
X142785481Y-105725301D01*
X142932435Y-105803850D01*
X143061241Y-105909558D01*
X143166949Y-106038364D01*
X143245498Y-106185318D01*
X143293867Y-106344772D01*
X143310200Y-106510599D01*
X143310200Y-106510601D01*
X143293867Y-106676428D01*
X143245498Y-106835882D01*
X143166949Y-106982836D01*
X143061241Y-107111642D01*
X142932435Y-107217350D01*
X142785481Y-107295899D01*
X142626027Y-107344268D01*
X142460200Y-107360601D01*
X140560200Y-107360601D01*
X140394373Y-107344268D01*
X140234919Y-107295899D01*
X140087965Y-107217350D01*
X139959159Y-107111642D01*
X139853451Y-106982836D01*
X139774902Y-106835882D01*
X139726533Y-106676428D01*
X139710200Y-106510601D01*
X139710200Y-106510599D01*
X139726533Y-106344772D01*
X139774902Y-106185318D01*
X139853451Y-106038364D01*
X139959159Y-105909558D01*
X140087965Y-105803850D01*
X140234919Y-105725301D01*
X140394373Y-105676932D01*
X140560200Y-105660599D01*
X142460200Y-105660599D01*
X142626027Y-105676932D01*
X142626027Y-105676932D01*
G37*
G36*
X154854600Y-106047400D02*
X153704600Y-106047400D01*
X153704600Y-104847400D01*
X154854600Y-104847400D01*
X154854600Y-106047400D01*
X154854600Y-106047400D01*
G37*
G36*
X181201200Y-105698800D02*
X178801200Y-105698800D01*
X178801200Y-104298800D01*
X181201200Y-104298800D01*
X181201200Y-105698800D01*
X181201200Y-105698800D01*
G37*
G36*
X145310200Y-104960600D02*
X142910200Y-104960600D01*
X142910200Y-103360600D01*
X145310200Y-103360600D01*
X145310200Y-104960600D01*
X145310200Y-104960600D01*
G37*
G36*
X164201200Y-104708800D02*
X161801200Y-104708800D01*
X161801200Y-94718800D01*
X164201200Y-94718800D01*
X164201200Y-104708800D01*
X164201200Y-104708800D01*
G37*
G36*
X155924400Y-99017400D02*
X155926802Y-99041786D01*
X155933915Y-99065235D01*
X155945466Y-99086846D01*
X155961012Y-99105788D01*
X155979954Y-99121334D01*
X156001565Y-99132885D01*
X156025014Y-99139998D01*
X156049400Y-99142400D01*
X156849400Y-99142400D01*
X156849400Y-103092400D01*
X156049400Y-103092400D01*
X156025014Y-103094802D01*
X156001565Y-103101915D01*
X155979954Y-103113466D01*
X155961012Y-103129012D01*
X155945466Y-103147954D01*
X155933915Y-103169565D01*
X155926802Y-103193014D01*
X155924400Y-103217400D01*
X155924400Y-104017400D01*
X151974400Y-104017400D01*
X151974400Y-103217400D01*
X151971998Y-103193014D01*
X151964885Y-103169565D01*
X151953334Y-103147954D01*
X151937788Y-103129012D01*
X151918846Y-103113466D01*
X151897235Y-103101915D01*
X151873786Y-103094802D01*
X151849400Y-103092400D01*
X151049400Y-103092400D01*
X151049400Y-99142400D01*
X151849400Y-99142400D01*
X151873786Y-99139998D01*
X151897235Y-99132885D01*
X151918846Y-99121334D01*
X151937788Y-99105788D01*
X151953334Y-99086846D01*
X151964885Y-99065235D01*
X151971998Y-99041786D01*
X151974400Y-99017400D01*
X151974400Y-98217400D01*
X155924400Y-98217400D01*
X155924400Y-99017400D01*
X155924400Y-99017400D01*
G37*
G36*
X150050000Y-103826000D02*
X148850000Y-103826000D01*
X148850000Y-102676000D01*
X150050000Y-102676000D01*
X150050000Y-103826000D01*
X150050000Y-103826000D01*
G37*
G36*
X148550000Y-103826000D02*
X147350000Y-103826000D01*
X147350000Y-102676000D01*
X148550000Y-102676000D01*
X148550000Y-103826000D01*
X148550000Y-103826000D01*
G37*
G36*
X141656518Y-102175011D02*
X141728967Y-102189422D01*
X141785503Y-102212840D01*
X141865457Y-102245958D01*
X141988300Y-102328039D01*
X142092761Y-102432500D01*
X142174842Y-102555343D01*
X142207960Y-102635297D01*
X142231378Y-102691833D01*
X142260200Y-102836731D01*
X142260200Y-102984469D01*
X142231449Y-103129012D01*
X142231378Y-103129366D01*
X142174842Y-103265857D01*
X142092761Y-103388700D01*
X141988300Y-103493161D01*
X141865457Y-103575242D01*
X141785503Y-103608360D01*
X141728967Y-103631778D01*
X141656518Y-103646189D01*
X141584070Y-103660600D01*
X141436330Y-103660600D01*
X141363882Y-103646189D01*
X141291433Y-103631778D01*
X141234897Y-103608360D01*
X141154943Y-103575242D01*
X141032100Y-103493161D01*
X140927639Y-103388700D01*
X140845558Y-103265857D01*
X140789022Y-103129366D01*
X140788952Y-103129012D01*
X140760200Y-102984469D01*
X140760200Y-102836731D01*
X140789022Y-102691833D01*
X140812440Y-102635297D01*
X140845558Y-102555343D01*
X140927639Y-102432500D01*
X141032100Y-102328039D01*
X141154943Y-102245958D01*
X141234897Y-102212840D01*
X141291433Y-102189422D01*
X141363882Y-102175011D01*
X141436330Y-102160600D01*
X141584070Y-102160600D01*
X141656518Y-102175011D01*
X141656518Y-102175011D01*
G37*
G36*
X181201200Y-103418800D02*
X178801200Y-103418800D01*
X178801200Y-102018800D01*
X181201200Y-102018800D01*
X181201200Y-103418800D01*
X181201200Y-103418800D01*
G37*
G36*
X158740400Y-102657600D02*
X157540400Y-102657600D01*
X157540400Y-101507600D01*
X158740400Y-101507600D01*
X158740400Y-102657600D01*
X158740400Y-102657600D01*
G37*
G36*
X160240400Y-102657600D02*
X159040400Y-102657600D01*
X159040400Y-101507600D01*
X160240400Y-101507600D01*
X160240400Y-102657600D01*
X160240400Y-102657600D01*
G37*
G36*
X145310200Y-102460600D02*
X142910200Y-102460600D01*
X142910200Y-100860600D01*
X145310200Y-100860600D01*
X145310200Y-102460600D01*
X145310200Y-102460600D01*
G37*
G36*
X150050000Y-102276600D02*
X148850000Y-102276600D01*
X148850000Y-101126600D01*
X150050000Y-101126600D01*
X150050000Y-102276600D01*
X150050000Y-102276600D01*
G37*
G36*
X148550000Y-102276600D02*
X147350000Y-102276600D01*
X147350000Y-101126600D01*
X148550000Y-101126600D01*
X148550000Y-102276600D01*
X148550000Y-102276600D01*
G37*
G36*
X183248200Y-101696600D02*
X181648200Y-101696600D01*
X181648200Y-100096600D01*
X183248200Y-100096600D01*
X183248200Y-101696600D01*
X183248200Y-101696600D01*
G37*
G36*
X148550000Y-100803400D02*
X147350000Y-100803400D01*
X147350000Y-99653400D01*
X148550000Y-99653400D01*
X148550000Y-100803400D01*
X148550000Y-100803400D01*
G37*
G36*
X150050000Y-100803400D02*
X148850000Y-100803400D01*
X148850000Y-99653400D01*
X150050000Y-99653400D01*
X150050000Y-100803400D01*
X150050000Y-100803400D01*
G37*
G36*
X145310200Y-100460600D02*
X142910200Y-100460600D01*
X142910200Y-98860600D01*
X145310200Y-98860600D01*
X145310200Y-100460600D01*
X145310200Y-100460600D01*
G37*
G36*
X183248200Y-99496600D02*
X181648200Y-99496600D01*
X181648200Y-97896600D01*
X183248200Y-97896600D01*
X183248200Y-99496600D01*
X183248200Y-99496600D01*
G37*
G36*
X141656518Y-97675011D02*
X141728967Y-97689422D01*
X141785503Y-97712840D01*
X141865457Y-97745958D01*
X141988300Y-97828039D01*
X142092761Y-97932500D01*
X142174842Y-98055343D01*
X142207960Y-98135297D01*
X142231378Y-98191833D01*
X142245789Y-98264282D01*
X142260200Y-98336730D01*
X142260200Y-98484470D01*
X142231378Y-98629366D01*
X142174842Y-98765857D01*
X142092761Y-98888700D01*
X141988300Y-98993161D01*
X141865457Y-99075242D01*
X141791712Y-99105788D01*
X141728967Y-99131778D01*
X141656518Y-99146189D01*
X141584070Y-99160600D01*
X141436330Y-99160600D01*
X141363882Y-99146189D01*
X141291433Y-99131778D01*
X141228688Y-99105788D01*
X141154943Y-99075242D01*
X141032100Y-98993161D01*
X140927639Y-98888700D01*
X140845558Y-98765857D01*
X140789022Y-98629366D01*
X140760200Y-98484470D01*
X140760200Y-98336730D01*
X140774611Y-98264282D01*
X140789022Y-98191833D01*
X140812440Y-98135297D01*
X140845558Y-98055343D01*
X140927639Y-97932500D01*
X141032100Y-97828039D01*
X141154943Y-97745958D01*
X141234897Y-97712840D01*
X141291433Y-97689422D01*
X141363882Y-97675011D01*
X141436330Y-97660600D01*
X141584070Y-97660600D01*
X141656518Y-97675011D01*
X141656518Y-97675011D01*
G37*
G36*
X148550000Y-99000000D02*
X147350000Y-99000000D01*
X147350000Y-97850000D01*
X148550000Y-97850000D01*
X148550000Y-99000000D01*
X148550000Y-99000000D01*
G37*
G36*
X150050000Y-99000000D02*
X148850000Y-99000000D01*
X148850000Y-97850000D01*
X150050000Y-97850000D01*
X150050000Y-99000000D01*
X150050000Y-99000000D01*
G37*
G36*
X145310200Y-97960600D02*
X142910200Y-97960600D01*
X142910200Y-96360600D01*
X145310200Y-96360600D01*
X145310200Y-97960600D01*
X145310200Y-97960600D01*
G37*
G36*
X152213000Y-97870000D02*
X151063000Y-97870000D01*
X151063000Y-96670000D01*
X152213000Y-96670000D01*
X152213000Y-97870000D01*
X152213000Y-97870000D01*
G37*
G36*
X183123600Y-97325600D02*
X181823600Y-97325600D01*
X181823600Y-96425600D01*
X183123600Y-96425600D01*
X183123600Y-97325600D01*
X183123600Y-97325600D01*
G37*
G36*
X152213000Y-96370000D02*
X151063000Y-96370000D01*
X151063000Y-95170000D01*
X152213000Y-95170000D01*
X152213000Y-96370000D01*
X152213000Y-96370000D01*
G37*
G36*
X183123600Y-95825600D02*
X181823600Y-95825600D01*
X181823600Y-94925600D01*
X183123600Y-94925600D01*
X183123600Y-95825600D01*
X183123600Y-95825600D01*
G37*
G36*
X142626027Y-93976932D02*
X142785481Y-94025301D01*
X142932435Y-94103850D01*
X143061241Y-94209558D01*
X143166949Y-94338364D01*
X143245498Y-94485318D01*
X143293867Y-94644772D01*
X143310200Y-94810599D01*
X143310200Y-94810601D01*
X143293867Y-94976428D01*
X143245498Y-95135882D01*
X143166949Y-95282836D01*
X143061241Y-95411642D01*
X142932435Y-95517350D01*
X142785481Y-95595899D01*
X142626027Y-95644268D01*
X142460200Y-95660601D01*
X140560200Y-95660601D01*
X140394373Y-95644268D01*
X140234919Y-95595899D01*
X140087965Y-95517350D01*
X139959159Y-95411642D01*
X139853451Y-95282836D01*
X139774902Y-95135882D01*
X139726533Y-94976428D01*
X139710200Y-94810601D01*
X139710200Y-94810599D01*
X139726533Y-94644772D01*
X139774902Y-94485318D01*
X139853451Y-94338364D01*
X139959159Y-94209558D01*
X140087965Y-94103850D01*
X140234919Y-94025301D01*
X140394373Y-93976932D01*
X140560200Y-93960599D01*
X142460200Y-93960599D01*
X142626027Y-93976932D01*
X142626027Y-93976932D01*
G37*
G36*
X154925600Y-95074000D02*
X153465600Y-95074000D01*
X153465600Y-92124000D01*
X154925600Y-92124000D01*
X154925600Y-95074000D01*
X154925600Y-95074000D01*
G37*
G36*
X157125600Y-95074000D02*
X155665600Y-95074000D01*
X155665600Y-94024000D01*
X157125600Y-94024000D01*
X157125600Y-95074000D01*
X157125600Y-95074000D01*
G37*
G36*
X158817000Y-94923600D02*
X157667000Y-94923600D01*
X157667000Y-93723600D01*
X158817000Y-93723600D01*
X158817000Y-94923600D01*
X158817000Y-94923600D01*
G37*
G36*
X146752000Y-94923600D02*
X145602000Y-94923600D01*
X145602000Y-93723600D01*
X146752000Y-93723600D01*
X146752000Y-94923600D01*
X146752000Y-94923600D01*
G37*
G36*
X149891600Y-94807800D02*
X148991600Y-94807800D01*
X148991600Y-93507800D01*
X149891600Y-93507800D01*
X149891600Y-94807800D01*
X149891600Y-94807800D01*
G37*
G36*
X148391600Y-94807800D02*
X147491600Y-94807800D01*
X147491600Y-93507800D01*
X148391600Y-93507800D01*
X148391600Y-94807800D01*
X148391600Y-94807800D01*
G37*
G36*
X152848000Y-94669600D02*
X151698000Y-94669600D01*
X151698000Y-93469600D01*
X152848000Y-93469600D01*
X152848000Y-94669600D01*
X152848000Y-94669600D01*
G37*
G36*
X151425600Y-94669600D02*
X150275600Y-94669600D01*
X150275600Y-93469600D01*
X151425600Y-93469600D01*
X151425600Y-94669600D01*
X151425600Y-94669600D01*
G37*
G36*
X146752000Y-93423600D02*
X145602000Y-93423600D01*
X145602000Y-92223600D01*
X146752000Y-92223600D01*
X146752000Y-93423600D01*
X146752000Y-93423600D01*
G37*
G36*
X158817000Y-93423600D02*
X157667000Y-93423600D01*
X157667000Y-92223600D01*
X158817000Y-92223600D01*
X158817000Y-93423600D01*
X158817000Y-93423600D01*
G37*
G36*
X157125600Y-93174000D02*
X155665600Y-93174000D01*
X155665600Y-92124000D01*
X157125600Y-92124000D01*
X157125600Y-93174000D01*
X157125600Y-93174000D01*
G37*
G36*
X152848000Y-93169600D02*
X151698000Y-93169600D01*
X151698000Y-91969600D01*
X152848000Y-91969600D01*
X152848000Y-93169600D01*
X152848000Y-93169600D01*
G37*
G36*
X151425600Y-93169600D02*
X150275600Y-93169600D01*
X150275600Y-91969600D01*
X151425600Y-91969600D01*
X151425600Y-93169600D01*
X151425600Y-93169600D01*
G37*
M02*
