G04 #@! TF.GenerationSoftware,KiCad,Pcbnew,(6.0.0-rc1-dev-479-g831c9b6f6-dirty)*
G04 #@! TF.CreationDate,2018-09-12T23:56:38+02:00*
G04 #@! TF.ProjectId,RapTorS,526170546F72532E6B696361645F7063,rev?*
G04 #@! TF.SameCoordinates,Original*
G04 #@! TF.FileFunction,Paste,Top*
G04 #@! TF.FilePolarity,Positive*
%FSLAX46Y46*%
G04 Gerber Fmt 4.6, Leading zero omitted, Abs format (unit mm)*
G04 Created by KiCad (PCBNEW (6.0.0-rc1-dev-479-g831c9b6f6-dirty)) date 2018 September 12, Wednesday 23:56:38*
%MOMM*%
%LPD*%
G01*
G04 APERTURE LIST*
%ADD10R,0.800000X0.750000*%
%ADD11R,1.200000X1.200000*%
%ADD12R,0.900000X0.500000*%
%ADD13R,0.750000X0.800000*%
%ADD14R,0.500000X0.900000*%
%ADD15R,0.750000X0.300000*%
%ADD16R,0.300000X0.750000*%
%ADD17R,0.960000X0.960000*%
%ADD18R,2.000000X1.000000*%
%ADD19R,2.000000X0.700000*%
%ADD20R,2.000000X1.200000*%
%ADD21R,1.060000X0.650000*%
G04 APERTURE END LIST*
D10*
G04 #@! TO.C,R5*
X149450000Y-101701600D03*
X147950000Y-101701600D03*
G04 #@! TD*
G04 #@! TO.C,R4*
X147950000Y-103251000D03*
X149450000Y-103251000D03*
G04 #@! TD*
D11*
G04 #@! TO.C,D1*
X182448200Y-98696600D03*
X182448200Y-100896600D03*
G04 #@! TD*
D12*
G04 #@! TO.C,R2*
X182473600Y-95375600D03*
X182473600Y-96875600D03*
G04 #@! TD*
D10*
G04 #@! TO.C,C9*
X158140400Y-102082600D03*
X159640400Y-102082600D03*
G04 #@! TD*
D13*
G04 #@! TO.C,C8*
X154279600Y-105447400D03*
X154279600Y-106947400D03*
G04 #@! TD*
G04 #@! TO.C,C1*
X146177000Y-92823600D03*
X146177000Y-94323600D03*
G04 #@! TD*
D14*
G04 #@! TO.C,R1*
X140232000Y-108534200D03*
X141732000Y-108534200D03*
G04 #@! TD*
G04 #@! TO.C,L1*
X147941600Y-94157800D03*
X149441600Y-94157800D03*
G04 #@! TD*
D10*
G04 #@! TO.C,C7*
X147950000Y-100228400D03*
X149450000Y-100228400D03*
G04 #@! TD*
D13*
G04 #@! TO.C,C6*
X158242000Y-94323600D03*
X158242000Y-92823600D03*
G04 #@! TD*
D10*
G04 #@! TO.C,C5*
X147950000Y-98425000D03*
X149450000Y-98425000D03*
G04 #@! TD*
D13*
G04 #@! TO.C,C4*
X151638000Y-95770000D03*
X151638000Y-97270000D03*
G04 #@! TD*
G04 #@! TO.C,C3*
X152273000Y-92569600D03*
X152273000Y-94069600D03*
G04 #@! TD*
G04 #@! TO.C,C2*
X150850600Y-92569600D03*
X150850600Y-94069600D03*
G04 #@! TD*
D15*
G04 #@! TO.C,IC1*
X156274400Y-102742400D03*
X156274400Y-102092400D03*
X156274400Y-101442400D03*
X156274400Y-100792400D03*
X156274400Y-100142400D03*
X156274400Y-99492400D03*
D16*
X155574400Y-98792400D03*
X154924400Y-98792400D03*
X154274400Y-98792400D03*
X153624400Y-98792400D03*
X152974400Y-98792400D03*
X152324400Y-98792400D03*
D15*
X151624400Y-99492400D03*
X151624400Y-100142400D03*
X151624400Y-100792400D03*
X151624400Y-101442400D03*
X151624400Y-102092400D03*
X151624400Y-102742400D03*
D16*
X152324400Y-103442400D03*
X152974400Y-103442400D03*
X153624400Y-103442400D03*
X154274400Y-103442400D03*
X154924400Y-103442400D03*
X155574400Y-103442400D03*
D17*
X153149400Y-100317400D03*
X153149400Y-101917400D03*
X154749400Y-100317400D03*
X154749400Y-101917400D03*
G04 #@! TD*
D18*
G04 #@! TO.C,U3*
X180001200Y-102718800D03*
D19*
X163001200Y-104158800D03*
X163001200Y-102888800D03*
X163001200Y-101618800D03*
X163001200Y-100348800D03*
X163001200Y-99078800D03*
X163001200Y-97808800D03*
X163001200Y-96538800D03*
D18*
X180001200Y-104998800D03*
D19*
X163001200Y-95268800D03*
G04 #@! TD*
D20*
G04 #@! TO.C,J1*
X144110200Y-97160600D03*
X144110200Y-99660600D03*
X144110200Y-104160600D03*
X144110200Y-101660600D03*
G04 #@! TD*
D21*
G04 #@! TO.C,U2*
X154195600Y-92649000D03*
X154195600Y-93599000D03*
X154195600Y-94549000D03*
X156395600Y-94549000D03*
X156395600Y-92649000D03*
G04 #@! TD*
M02*
