G04 #@! TF.GenerationSoftware,KiCad,Pcbnew,(6.0.0-rc1-dev-438-g6845ac2cc-dirty)*
G04 #@! TF.CreationDate,2018-08-30T21:51:25+02:00*
G04 #@! TF.ProjectId,RapTorS,526170546F72532E6B696361645F7063,rev?*
G04 #@! TF.SameCoordinates,Original*
G04 #@! TF.FileFunction,Copper,L1,Top,Signal*
G04 #@! TF.FilePolarity,Positive*
%FSLAX46Y46*%
G04 Gerber Fmt 4.6, Leading zero omitted, Abs format (unit mm)*
G04 Created by KiCad (PCBNEW (6.0.0-rc1-dev-438-g6845ac2cc-dirty)) date 2018 August 30, Thursday 21:51:25*
%MOMM*%
%LPD*%
G01*
G04 APERTURE LIST*
G04 #@! TA.AperFunction,SMDPad,CuDef*
%ADD10R,1.250000X1.000000*%
G04 #@! TD*
G04 #@! TA.AperFunction,ComponentPad*
%ADD11C,2.000000*%
G04 #@! TD*
G04 #@! TA.AperFunction,SMDPad,CuDef*
%ADD12R,2.000000X1.000000*%
G04 #@! TD*
G04 #@! TA.AperFunction,SMDPad,CuDef*
%ADD13R,2.000000X0.700000*%
G04 #@! TD*
G04 #@! TA.AperFunction,SMDPad,CuDef*
%ADD14R,0.350000X0.800000*%
G04 #@! TD*
G04 #@! TA.AperFunction,SMDPad,CuDef*
%ADD15R,0.800000X0.350000*%
G04 #@! TD*
G04 #@! TA.AperFunction,SMDPad,CuDef*
%ADD16R,1.250000X1.250000*%
G04 #@! TD*
G04 #@! TA.AperFunction,SMDPad,CuDef*
%ADD17R,0.700000X1.300000*%
G04 #@! TD*
G04 #@! TA.AperFunction,SMDPad,CuDef*
%ADD18R,1.200000X1.200000*%
G04 #@! TD*
G04 #@! TA.AperFunction,Conductor*
%ADD19C,0.100000*%
G04 #@! TD*
G04 #@! TA.AperFunction,ComponentPad*
%ADD20C,1.300000*%
G04 #@! TD*
G04 #@! TA.AperFunction,SMDPad,CuDef*
%ADD21R,2.000000X1.200000*%
G04 #@! TD*
G04 #@! TA.AperFunction,SMDPad,CuDef*
%ADD22R,1.300000X0.700000*%
G04 #@! TD*
G04 #@! TA.AperFunction,SMDPad,CuDef*
%ADD23R,1.060000X0.650000*%
G04 #@! TD*
G04 #@! TA.AperFunction,ViaPad*
%ADD24C,0.800000*%
G04 #@! TD*
G04 #@! TA.AperFunction,Conductor*
%ADD25C,0.250000*%
G04 #@! TD*
G04 #@! TA.AperFunction,Conductor*
%ADD26C,0.200000*%
G04 #@! TD*
G04 #@! TA.AperFunction,Conductor*
%ADD27C,0.254000*%
G04 #@! TD*
G04 APERTURE END LIST*
D10*
G04 #@! TO.P,C3,1*
G04 #@! TO.N,+5V*
X157835600Y-104700000D03*
G04 #@! TO.P,C3,2*
G04 #@! TO.N,GND*
X157835600Y-106700000D03*
G04 #@! TD*
G04 #@! TO.P,C6,1*
G04 #@! TO.N,+3V3*
X168122600Y-106508800D03*
G04 #@! TO.P,C6,2*
G04 #@! TO.N,GND*
X168122600Y-108508800D03*
G04 #@! TD*
G04 #@! TO.P,C4,1*
G04 #@! TO.N,+3V3*
X146685000Y-100082600D03*
G04 #@! TO.P,C4,2*
G04 #@! TO.N,GND*
X146685000Y-102082600D03*
G04 #@! TD*
G04 #@! TO.P,C2,1*
G04 #@! TO.N,+5V*
X153949400Y-104700000D03*
G04 #@! TO.P,C2,2*
G04 #@! TO.N,GND*
X153949400Y-106700000D03*
G04 #@! TD*
G04 #@! TO.P,C1,1*
G04 #@! TO.N,Net-(C1-Pad1)*
X148031200Y-104700000D03*
G04 #@! TO.P,C1,2*
G04 #@! TO.N,GND*
X148031200Y-106700000D03*
G04 #@! TD*
D11*
G04 #@! TO.P,ANT1,1*
G04 #@! TO.N,Net-(ANT1-Pad1)*
X179679600Y-106603800D03*
G04 #@! TD*
D12*
G04 #@! TO.P,U3,10*
G04 #@! TO.N,GND*
X180026600Y-101271000D03*
D13*
G04 #@! TO.P,U3,8*
X163026600Y-102711000D03*
G04 #@! TO.P,U3,7*
G04 #@! TO.N,GDO2*
X163026600Y-101441000D03*
G04 #@! TO.P,U3,6*
G04 #@! TO.N,ISPCLK*
X163026600Y-100171000D03*
G04 #@! TO.P,U3,5*
G04 #@! TO.N,MOSI*
X163026600Y-98901000D03*
G04 #@! TO.P,U3,4*
G04 #@! TO.N,ISPDAT*
X163026600Y-97631000D03*
G04 #@! TO.P,U3,3*
G04 #@! TO.N,CSN*
X163026600Y-96361000D03*
G04 #@! TO.P,U3,2*
G04 #@! TO.N,GDO0*
X163026600Y-95091000D03*
D12*
G04 #@! TO.P,U3,9*
G04 #@! TO.N,Net-(ANT1-Pad1)*
X180026600Y-103551000D03*
D13*
G04 #@! TO.P,U3,1*
G04 #@! TO.N,+3V3*
X163026600Y-93821000D03*
G04 #@! TD*
D14*
G04 #@! TO.P,U1,1*
G04 #@! TO.N,LED*
X149662600Y-100787200D03*
G04 #@! TO.P,U1,2*
G04 #@! TO.N,CSN*
X150312600Y-100787200D03*
G04 #@! TO.P,U1,3*
G04 #@! TO.N,~MCLR*
X150962600Y-100787200D03*
G04 #@! TO.P,U1,4*
G04 #@! TO.N,LED_DEBUG*
X151612600Y-100787200D03*
D15*
G04 #@! TO.P,U1,5*
G04 #@! TO.N,GDO2*
X152637600Y-99762200D03*
G04 #@! TO.P,U1,6*
G04 #@! TO.N,GDO0*
X152637600Y-99112200D03*
G04 #@! TO.P,U1,7*
G04 #@! TO.N,MOSI*
X152637600Y-98462200D03*
G04 #@! TO.P,U1,8*
G04 #@! TO.N,ISPCLK*
X152637600Y-97812200D03*
D14*
G04 #@! TO.P,U1,9*
G04 #@! TO.N,ISPDAT*
X151612600Y-96787200D03*
G04 #@! TO.P,U1,10*
G04 #@! TO.N,+3V3*
X150962600Y-96787200D03*
G04 #@! TO.P,U1,11*
G04 #@! TO.N,D-*
X150312600Y-96787200D03*
G04 #@! TO.P,U1,12*
G04 #@! TO.N,D+*
X149662600Y-96787200D03*
D15*
G04 #@! TO.P,U1,13*
G04 #@! TO.N,GND*
X148637600Y-97812200D03*
G04 #@! TO.P,U1,14*
G04 #@! TO.N,N/C*
X148637600Y-98462200D03*
G04 #@! TO.P,U1,15*
X148637600Y-99112200D03*
G04 #@! TO.P,U1,16*
G04 #@! TO.N,+3V3*
X148637600Y-99762200D03*
D16*
G04 #@! TO.P,U1,17*
G04 #@! TO.N,N/C*
X151262600Y-98162200D03*
X150012600Y-98162200D03*
X151262600Y-99412200D03*
X150012600Y-99412200D03*
G04 #@! TD*
D17*
G04 #@! TO.P,L1,1*
G04 #@! TO.N,Net-(C1-Pad1)*
X150017400Y-104851200D03*
G04 #@! TO.P,L1,2*
G04 #@! TO.N,+5V*
X151917400Y-104851200D03*
G04 #@! TD*
D18*
G04 #@! TO.P,D2,2*
G04 #@! TO.N,Net-(D2-Pad2)*
X182499000Y-97426600D03*
G04 #@! TO.P,D2,1*
G04 #@! TO.N,GND*
X182499000Y-99626600D03*
G04 #@! TD*
G04 #@! TO.P,D1,2*
G04 #@! TO.N,Net-(D1-Pad2)*
X182499000Y-104190800D03*
G04 #@! TO.P,D1,1*
G04 #@! TO.N,GND*
X182499000Y-101990800D03*
G04 #@! TD*
D19*
G04 #@! TO.N,Net-(J1-Pad5)*
G04 #@! TO.C,J1*
G36*
X142523911Y-105863729D02*
X142587009Y-105873089D01*
X142648885Y-105888588D01*
X142708944Y-105910077D01*
X142766608Y-105937350D01*
X142821321Y-105970144D01*
X142872556Y-106008142D01*
X142919819Y-106050980D01*
X142962657Y-106098243D01*
X143000655Y-106149478D01*
X143033449Y-106204191D01*
X143060722Y-106261855D01*
X143082211Y-106321914D01*
X143097710Y-106383790D01*
X143107070Y-106446888D01*
X143110200Y-106510599D01*
X143110200Y-106510601D01*
X143107070Y-106574312D01*
X143097710Y-106637410D01*
X143082211Y-106699286D01*
X143060722Y-106759345D01*
X143033449Y-106817009D01*
X143000655Y-106871722D01*
X142962657Y-106922957D01*
X142919819Y-106970220D01*
X142872556Y-107013058D01*
X142821321Y-107051056D01*
X142766608Y-107083850D01*
X142708944Y-107111123D01*
X142648885Y-107132612D01*
X142587009Y-107148111D01*
X142523911Y-107157471D01*
X142460200Y-107160601D01*
X140560200Y-107160601D01*
X140496489Y-107157471D01*
X140433391Y-107148111D01*
X140371515Y-107132612D01*
X140311456Y-107111123D01*
X140253792Y-107083850D01*
X140199079Y-107051056D01*
X140147844Y-107013058D01*
X140100581Y-106970220D01*
X140057743Y-106922957D01*
X140019745Y-106871722D01*
X139986951Y-106817009D01*
X139959678Y-106759345D01*
X139938189Y-106699286D01*
X139922690Y-106637410D01*
X139913330Y-106574312D01*
X139910200Y-106510601D01*
X139910200Y-106510599D01*
X139913330Y-106446888D01*
X139922690Y-106383790D01*
X139938189Y-106321914D01*
X139959678Y-106261855D01*
X139986951Y-106204191D01*
X140019745Y-106149478D01*
X140057743Y-106098243D01*
X140100581Y-106050980D01*
X140147844Y-106008142D01*
X140199079Y-105970144D01*
X140253792Y-105937350D01*
X140311456Y-105910077D01*
X140371515Y-105888588D01*
X140433391Y-105873089D01*
X140496489Y-105863729D01*
X140560200Y-105860599D01*
X142460200Y-105860599D01*
X142523911Y-105863729D01*
X142523911Y-105863729D01*
G37*
D20*
G04 #@! TD*
G04 #@! TO.P,J1,5*
G04 #@! TO.N,Net-(J1-Pad5)*
X141510200Y-106510600D03*
D19*
G04 #@! TO.N,Net-(J1-Pad5)*
G04 #@! TO.C,J1*
G36*
X142523911Y-94163729D02*
X142587009Y-94173089D01*
X142648885Y-94188588D01*
X142708944Y-94210077D01*
X142766608Y-94237350D01*
X142821321Y-94270144D01*
X142872556Y-94308142D01*
X142919819Y-94350980D01*
X142962657Y-94398243D01*
X143000655Y-94449478D01*
X143033449Y-94504191D01*
X143060722Y-94561855D01*
X143082211Y-94621914D01*
X143097710Y-94683790D01*
X143107070Y-94746888D01*
X143110200Y-94810599D01*
X143110200Y-94810601D01*
X143107070Y-94874312D01*
X143097710Y-94937410D01*
X143082211Y-94999286D01*
X143060722Y-95059345D01*
X143033449Y-95117009D01*
X143000655Y-95171722D01*
X142962657Y-95222957D01*
X142919819Y-95270220D01*
X142872556Y-95313058D01*
X142821321Y-95351056D01*
X142766608Y-95383850D01*
X142708944Y-95411123D01*
X142648885Y-95432612D01*
X142587009Y-95448111D01*
X142523911Y-95457471D01*
X142460200Y-95460601D01*
X140560200Y-95460601D01*
X140496489Y-95457471D01*
X140433391Y-95448111D01*
X140371515Y-95432612D01*
X140311456Y-95411123D01*
X140253792Y-95383850D01*
X140199079Y-95351056D01*
X140147844Y-95313058D01*
X140100581Y-95270220D01*
X140057743Y-95222957D01*
X140019745Y-95171722D01*
X139986951Y-95117009D01*
X139959678Y-95059345D01*
X139938189Y-94999286D01*
X139922690Y-94937410D01*
X139913330Y-94874312D01*
X139910200Y-94810601D01*
X139910200Y-94810599D01*
X139913330Y-94746888D01*
X139922690Y-94683790D01*
X139938189Y-94621914D01*
X139959678Y-94561855D01*
X139986951Y-94504191D01*
X140019745Y-94449478D01*
X140057743Y-94398243D01*
X140100581Y-94350980D01*
X140147844Y-94308142D01*
X140199079Y-94270144D01*
X140253792Y-94237350D01*
X140311456Y-94210077D01*
X140371515Y-94188588D01*
X140433391Y-94173089D01*
X140496489Y-94163729D01*
X140560200Y-94160599D01*
X142460200Y-94160599D01*
X142523911Y-94163729D01*
X142523911Y-94163729D01*
G37*
D20*
G04 #@! TD*
G04 #@! TO.P,J1,5*
G04 #@! TO.N,Net-(J1-Pad5)*
X141510200Y-94810600D03*
D21*
G04 #@! TO.P,J1,4*
G04 #@! TO.N,GND*
X144110200Y-97160600D03*
G04 #@! TO.P,J1,3*
G04 #@! TO.N,D+*
X144110200Y-99660600D03*
G04 #@! TO.P,J1,1*
G04 #@! TO.N,Net-(C1-Pad1)*
X144110200Y-104160600D03*
G04 #@! TO.P,J1,2*
G04 #@! TO.N,D-*
X144110200Y-101660600D03*
G04 #@! TD*
D22*
G04 #@! TO.P,R3,1*
G04 #@! TO.N,LED_DEBUG*
X182549800Y-93665000D03*
G04 #@! TO.P,R3,2*
G04 #@! TO.N,Net-(D2-Pad2)*
X182549800Y-95565000D03*
G04 #@! TD*
G04 #@! TO.P,R2,1*
G04 #@! TO.N,LED*
X182499000Y-108026200D03*
G04 #@! TO.P,R2,2*
G04 #@! TO.N,Net-(D1-Pad2)*
X182499000Y-106126200D03*
G04 #@! TD*
G04 #@! TO.P,R1,1*
G04 #@! TO.N,Net-(J1-Pad5)*
X144907000Y-106593600D03*
G04 #@! TO.P,R1,2*
G04 #@! TO.N,GND*
X144907000Y-108493600D03*
G04 #@! TD*
D23*
G04 #@! TO.P,U2,1*
G04 #@! TO.N,+5V*
X162814000Y-106481800D03*
G04 #@! TO.P,U2,2*
G04 #@! TO.N,GND*
X162814000Y-107431800D03*
G04 #@! TO.P,U2,3*
G04 #@! TO.N,+5V*
X162814000Y-108381800D03*
G04 #@! TO.P,U2,4*
G04 #@! TO.N,Net-(U2-Pad4)*
X165014000Y-108381800D03*
G04 #@! TO.P,U2,5*
G04 #@! TO.N,+3V3*
X165014000Y-106481800D03*
G04 #@! TD*
D24*
G04 #@! TO.N,+3V3*
X146685000Y-98577400D03*
X152603200Y-95529400D03*
X149301200Y-93726800D03*
G04 #@! TO.N,GND*
X140766800Y-104521000D03*
X139827000Y-108686600D03*
X148590000Y-102311200D03*
X147116800Y-108559600D03*
X149428200Y-108559600D03*
X151790400Y-108559600D03*
X150622000Y-107365800D03*
X168325800Y-104190800D03*
X168325800Y-100482400D03*
X168325800Y-98602800D03*
X168325800Y-96774000D03*
X166776400Y-95656400D03*
X166776400Y-97688400D03*
X166776400Y-99517200D03*
X166827200Y-101346000D03*
X148183600Y-96596200D03*
X165150800Y-96875600D03*
X165150800Y-100660200D03*
X171704000Y-93370400D03*
X171704000Y-97510600D03*
X173913800Y-100177600D03*
X173812200Y-95351600D03*
X175412400Y-93192600D03*
X179324000Y-96062800D03*
X175793400Y-106908600D03*
X172237400Y-106984800D03*
X141986000Y-92557600D03*
X140131800Y-92557600D03*
X165100000Y-98806000D03*
X151841200Y-93599800D03*
X165582600Y-104165400D03*
X174066200Y-104495600D03*
X177342800Y-100228400D03*
X167487600Y-92430600D03*
X160477200Y-92329000D03*
X144094200Y-92608400D03*
X145237200Y-94005400D03*
G04 #@! TO.N,LED*
X149656800Y-103073200D03*
X180416200Y-109118400D03*
G04 #@! TO.N,LED_DEBUG*
X176047400Y-97764600D03*
X153593800Y-101193600D03*
G04 #@! TO.N,ISPDAT*
X154432000Y-95961200D03*
G04 #@! TO.N,ISPCLK*
X159429200Y-100171000D03*
X159435800Y-97840800D03*
G04 #@! TO.N,GDO0*
X155346400Y-99314000D03*
X155353000Y-95091000D03*
G04 #@! TO.N,~MCLR*
X151206200Y-102082600D03*
G04 #@! TO.N,CSN*
X157505400Y-96012000D03*
X157505400Y-101117400D03*
G04 #@! TD*
D25*
G04 #@! TO.N,+3V3*
X168095600Y-106481800D02*
X168122600Y-106508800D01*
X165014000Y-106481800D02*
X168095600Y-106481800D01*
X168122600Y-106508800D02*
X169513000Y-106508800D01*
X169513000Y-106508800D02*
X169951400Y-106070400D01*
X169951400Y-106070400D02*
X169951400Y-94157800D01*
X169614600Y-93821000D02*
X163026600Y-93821000D01*
X169951400Y-94157800D02*
X169614600Y-93821000D01*
X147005400Y-99762200D02*
X146685000Y-100082600D01*
X148637600Y-99762200D02*
X147005400Y-99762200D01*
X163026600Y-93821000D02*
X161347400Y-93821000D01*
X161347400Y-93821000D02*
X160883600Y-94284800D01*
X150962600Y-94909400D02*
X150962600Y-96787200D01*
X151587200Y-94284800D02*
X150962600Y-94909400D01*
X146685000Y-100082600D02*
X146685000Y-98577400D01*
X152603200Y-94963715D02*
X152603200Y-94284800D01*
X152603200Y-95529400D02*
X152603200Y-94963715D01*
X152603200Y-94284800D02*
X151587200Y-94284800D01*
X160883600Y-94284800D02*
X152603200Y-94284800D01*
X150261800Y-94208600D02*
X150962600Y-94909400D01*
X149510540Y-94208600D02*
X150261800Y-94208600D01*
X149510540Y-93936140D02*
X149510540Y-94208600D01*
X149301200Y-93726800D02*
X149510540Y-93936140D01*
G04 #@! TO.N,+5V*
X161269600Y-106481800D02*
X162814000Y-106481800D01*
X161269600Y-106481800D02*
X161269600Y-108158200D01*
X161493200Y-108381800D02*
X162814000Y-108381800D01*
X161269600Y-108158200D02*
X161493200Y-108381800D01*
X153914600Y-104851200D02*
X153949400Y-104816400D01*
X151917400Y-104851200D02*
X153914600Y-104851200D01*
X153949400Y-104816400D02*
X155355800Y-104816400D01*
X155355800Y-104816400D02*
X157835600Y-104816400D01*
X157835600Y-104816400D02*
X160899600Y-104816400D01*
X161269600Y-105186400D02*
X161269600Y-106481800D01*
X160899600Y-104816400D02*
X161269600Y-105186400D01*
G04 #@! TO.N,GND*
X163594000Y-107431800D02*
X163906200Y-107119600D01*
X162814000Y-107431800D02*
X163594000Y-107431800D01*
X163906200Y-104190600D02*
X163906200Y-107119600D01*
X163026600Y-103311000D02*
X163906200Y-104190600D01*
X163026600Y-102711000D02*
X163026600Y-103311000D01*
X148637600Y-97812200D02*
X148637600Y-97024800D01*
X148209000Y-96596200D02*
X148183600Y-96596200D01*
X148637600Y-97024800D02*
X148209000Y-96596200D01*
G04 #@! TO.N,Net-(J1-Pad5)*
X144824000Y-106510600D02*
X144907000Y-106593600D01*
X141510200Y-106510600D02*
X144824000Y-106510600D01*
G04 #@! TO.N,LED*
X149662600Y-101437200D02*
X149656800Y-101443000D01*
X149662600Y-100787200D02*
X149662600Y-101437200D01*
X149662600Y-103067400D02*
X149656800Y-103073200D01*
X149662600Y-101437200D02*
X149662600Y-103067400D01*
X182499000Y-108626200D02*
X182499000Y-108026200D01*
X182006800Y-109118400D02*
X182499000Y-108626200D01*
X180416200Y-109118400D02*
X182006800Y-109118400D01*
G04 #@! TO.N,Net-(D1-Pad2)*
X182499000Y-104190800D02*
X182499000Y-106126200D01*
G04 #@! TO.N,Net-(D2-Pad2)*
X182549800Y-97375800D02*
X182499000Y-97426600D01*
X182549800Y-95565000D02*
X182549800Y-97375800D01*
G04 #@! TO.N,LED_DEBUG*
X151638000Y-100765400D02*
X151637800Y-100765200D01*
X179581315Y-93665000D02*
X181649800Y-93665000D01*
X181649800Y-93665000D02*
X182549800Y-93665000D01*
X176047400Y-97198915D02*
X179581315Y-93665000D01*
X176047400Y-97764600D02*
X176047400Y-97198915D01*
X151612600Y-100787200D02*
X153187400Y-100787200D01*
X153187400Y-100787200D02*
X153593800Y-101193600D01*
D26*
G04 #@! TO.N,D-*
X139697800Y-99591760D02*
X139697800Y-97486840D01*
X140946640Y-100840600D02*
X139697800Y-99591760D01*
X141790199Y-100840600D02*
X140946640Y-100840600D01*
X142610199Y-101660600D02*
X141790199Y-100840600D01*
X139697800Y-97486840D02*
X141378040Y-95806600D01*
X144110200Y-101660600D02*
X142610199Y-101660600D01*
X141378040Y-95806600D02*
X145797640Y-95806600D01*
X145797640Y-95806600D02*
X146432640Y-95171600D01*
X146432640Y-95171600D02*
X149604360Y-95171600D01*
X150312600Y-96187199D02*
X150312600Y-96787200D01*
X149604360Y-95171600D02*
X150167600Y-95734840D01*
X150167600Y-96042199D02*
X150312600Y-96187199D01*
X150167600Y-95734840D02*
X150167600Y-96042199D01*
D25*
G04 #@! TO.N,Net-(C1-Pad1)*
X145889000Y-104689400D02*
X148031200Y-104689400D01*
X145360200Y-104160600D02*
X145889000Y-104689400D01*
X144110200Y-104160600D02*
X145360200Y-104160600D01*
X149855600Y-104689400D02*
X150017400Y-104851200D01*
X148031200Y-104689400D02*
X149855600Y-104689400D01*
D26*
G04 #@! TO.N,D+*
X140057800Y-97635960D02*
X141527160Y-96166600D01*
X141095760Y-100480600D02*
X140057800Y-99442640D01*
X142610199Y-99660600D02*
X141790199Y-100480600D01*
X141790199Y-100480600D02*
X141095760Y-100480600D01*
X144110200Y-99660600D02*
X142610199Y-99660600D01*
X140057800Y-99442640D02*
X140057800Y-97635960D01*
X141527160Y-96166600D02*
X145946760Y-96166600D01*
X145946760Y-96166600D02*
X146581760Y-95531600D01*
X146581760Y-95531600D02*
X149455240Y-95531600D01*
X149662600Y-96187199D02*
X149662600Y-96787200D01*
X149807600Y-96042199D02*
X149662600Y-96187199D01*
X149807600Y-95883960D02*
X149807600Y-96042199D01*
X149455240Y-95531600D02*
X149807600Y-95883960D01*
D25*
G04 #@! TO.N,ISPDAT*
X160902400Y-97631000D02*
X163026600Y-97631000D01*
X160058600Y-96787200D02*
X160902400Y-97631000D01*
X154355800Y-96787200D02*
X154355800Y-96037400D01*
X151612600Y-96787200D02*
X154355800Y-96787200D01*
X154355800Y-96037400D02*
X154432000Y-95961200D01*
X154355800Y-96787200D02*
X160058600Y-96787200D01*
G04 #@! TO.N,ISPCLK*
X162376600Y-100171000D02*
X163026600Y-100171000D01*
X160597600Y-100171000D02*
X163026600Y-100171000D01*
X159429200Y-100171000D02*
X160597600Y-100171000D01*
X159407200Y-97812200D02*
X159435800Y-97840800D01*
X152637600Y-97812200D02*
X159407200Y-97812200D01*
G04 #@! TO.N,MOSI*
X161740600Y-98901000D02*
X163026600Y-98901000D01*
X158845000Y-98901000D02*
X161740600Y-98901000D01*
X153301200Y-98475800D02*
X158419800Y-98475800D01*
X153287600Y-98462200D02*
X153301200Y-98475800D01*
X158419800Y-98475800D02*
X158845000Y-98901000D01*
X152637600Y-98462200D02*
X153287600Y-98462200D01*
G04 #@! TO.N,GDO0*
X154578915Y-99112200D02*
X153287600Y-99112200D01*
X153287600Y-99112200D02*
X152637600Y-99112200D01*
X154780715Y-99314000D02*
X154578915Y-99112200D01*
X155346400Y-99314000D02*
X154780715Y-99314000D01*
X155797000Y-95091000D02*
X161271200Y-95091000D01*
X161271200Y-95091000D02*
X163026600Y-95091000D01*
X155797000Y-95091000D02*
X155353000Y-95091000D01*
G04 #@! TO.N,GDO2*
X153287600Y-99762200D02*
X153296600Y-99771200D01*
X152637600Y-99762200D02*
X153287600Y-99762200D01*
X153296600Y-99771200D02*
X153898600Y-99771200D01*
X153898600Y-99771200D02*
X154305000Y-100177600D01*
X163026600Y-101441000D02*
X159022800Y-101441000D01*
X157759400Y-100177600D02*
X154305000Y-100177600D01*
X159022800Y-101441000D02*
X157759400Y-100177600D01*
G04 #@! TO.N,~MCLR*
X150962600Y-101839000D02*
X151206200Y-102082600D01*
X150962600Y-100787200D02*
X150962600Y-101839000D01*
G04 #@! TO.N,CSN*
X161776600Y-96361000D02*
X161770000Y-96367600D01*
X163026600Y-96361000D02*
X161776600Y-96361000D01*
X161776600Y-96361000D02*
X160953200Y-96361000D01*
X160953200Y-96361000D02*
X160604200Y-96012000D01*
X160604200Y-96012000D02*
X157505400Y-96012000D01*
X153492200Y-103022400D02*
X155397200Y-101117400D01*
X150571200Y-103022400D02*
X153492200Y-103022400D01*
X150312600Y-102763800D02*
X150571200Y-103022400D01*
X155397200Y-101117400D02*
X157505400Y-101117400D01*
X150312600Y-100787200D02*
X150312600Y-102763800D01*
G04 #@! TO.N,Net-(ANT1-Pad1)*
X179679600Y-104648000D02*
X179679600Y-106603800D01*
X180026600Y-104301000D02*
X179679600Y-104648000D01*
X180026600Y-103551000D02*
X180026600Y-104301000D01*
G04 #@! TD*
D27*
G04 #@! TO.N,GND*
G36*
X183065200Y-92667560D02*
X181899800Y-92667560D01*
X181652035Y-92716843D01*
X181441991Y-92857191D01*
X181410046Y-92905000D01*
X179656163Y-92905000D01*
X179581315Y-92890112D01*
X179506467Y-92905000D01*
X179506463Y-92905000D01*
X179284778Y-92949096D01*
X179033386Y-93117071D01*
X178990986Y-93180527D01*
X175562928Y-96608586D01*
X175499472Y-96650986D01*
X175331496Y-96902378D01*
X175303086Y-97045203D01*
X175169969Y-97178320D01*
X175012400Y-97558726D01*
X175012400Y-97970474D01*
X175169969Y-98350880D01*
X175461120Y-98642031D01*
X175841526Y-98799600D01*
X176253274Y-98799600D01*
X176633680Y-98642031D01*
X176924831Y-98350880D01*
X177082400Y-97970474D01*
X177082400Y-97558726D01*
X176988671Y-97332445D01*
X179896117Y-94425000D01*
X181410046Y-94425000D01*
X181441991Y-94472809D01*
X181652035Y-94613157D01*
X181661300Y-94615000D01*
X181652035Y-94616843D01*
X181441991Y-94757191D01*
X181301643Y-94967235D01*
X181252360Y-95215000D01*
X181252360Y-95915000D01*
X181301643Y-96162765D01*
X181440249Y-96370201D01*
X181300843Y-96578835D01*
X181251560Y-96826600D01*
X181251560Y-98026600D01*
X181300843Y-98274365D01*
X181441191Y-98484409D01*
X181502320Y-98525254D01*
X181360673Y-98666902D01*
X181264000Y-98900291D01*
X181264000Y-99340850D01*
X181422750Y-99499600D01*
X182372000Y-99499600D01*
X182372000Y-99479600D01*
X182626000Y-99479600D01*
X182626000Y-99499600D01*
X182646000Y-99499600D01*
X182646000Y-99753600D01*
X182626000Y-99753600D01*
X182626000Y-100702850D01*
X182731850Y-100808700D01*
X182626000Y-100914550D01*
X182626000Y-101863800D01*
X182646000Y-101863800D01*
X182646000Y-102117800D01*
X182626000Y-102117800D01*
X182626000Y-102137800D01*
X182372000Y-102137800D01*
X182372000Y-102117800D01*
X182352000Y-102117800D01*
X182352000Y-101863800D01*
X182372000Y-101863800D01*
X182372000Y-100914550D01*
X182266150Y-100808700D01*
X182372000Y-100702850D01*
X182372000Y-99753600D01*
X181422750Y-99753600D01*
X181264000Y-99912350D01*
X181264000Y-100182015D01*
X181152909Y-100136000D01*
X180312350Y-100136000D01*
X180153600Y-100294750D01*
X180153600Y-101144000D01*
X180173600Y-101144000D01*
X180173600Y-101398000D01*
X180153600Y-101398000D01*
X180153600Y-101418000D01*
X179899600Y-101418000D01*
X179899600Y-101398000D01*
X178550350Y-101398000D01*
X178391600Y-101556750D01*
X178391600Y-101897310D01*
X178488273Y-102130699D01*
X178666902Y-102309327D01*
X178900291Y-102406000D01*
X179014333Y-102406000D01*
X178778835Y-102452843D01*
X178568791Y-102593191D01*
X178428443Y-102803235D01*
X178379160Y-103051000D01*
X178379160Y-104051000D01*
X178428443Y-104298765D01*
X178568791Y-104508809D01*
X178778835Y-104649157D01*
X178910137Y-104675274D01*
X178919600Y-104722847D01*
X178919600Y-105148891D01*
X178753447Y-105217714D01*
X178293514Y-105677647D01*
X178044600Y-106278578D01*
X178044600Y-106929022D01*
X178293514Y-107529953D01*
X178753447Y-107989886D01*
X179354378Y-108238800D01*
X179835156Y-108238800D01*
X179829920Y-108240969D01*
X179538769Y-108532120D01*
X179381200Y-108912526D01*
X179381200Y-109324274D01*
X179439739Y-109465600D01*
X169188826Y-109465600D01*
X169285927Y-109368498D01*
X169382600Y-109135109D01*
X169382600Y-108794550D01*
X169223850Y-108635800D01*
X168249600Y-108635800D01*
X168249600Y-108655800D01*
X167995600Y-108655800D01*
X167995600Y-108635800D01*
X167021350Y-108635800D01*
X166862600Y-108794550D01*
X166862600Y-109135109D01*
X166959273Y-109368498D01*
X167056374Y-109465600D01*
X145714695Y-109465600D01*
X145916699Y-109381927D01*
X146095327Y-109203298D01*
X146192000Y-108969909D01*
X146192000Y-108779350D01*
X146033250Y-108620600D01*
X145034000Y-108620600D01*
X145034000Y-108640600D01*
X144780000Y-108640600D01*
X144780000Y-108620600D01*
X143780750Y-108620600D01*
X143622000Y-108779350D01*
X143622000Y-108969909D01*
X143718673Y-109203298D01*
X143897301Y-109381927D01*
X144099305Y-109465600D01*
X139455200Y-109465600D01*
X139455200Y-107147309D01*
X139642771Y-107428030D01*
X140063691Y-107709279D01*
X140560200Y-107808041D01*
X142460200Y-107808041D01*
X142956709Y-107709279D01*
X143377629Y-107428030D01*
X143482820Y-107270600D01*
X143711787Y-107270600D01*
X143799191Y-107401409D01*
X144009235Y-107541757D01*
X144037209Y-107547321D01*
X143897301Y-107605273D01*
X143718673Y-107783902D01*
X143622000Y-108017291D01*
X143622000Y-108207850D01*
X143780750Y-108366600D01*
X144780000Y-108366600D01*
X144780000Y-108346600D01*
X145034000Y-108346600D01*
X145034000Y-108366600D01*
X146033250Y-108366600D01*
X146192000Y-108207850D01*
X146192000Y-108017291D01*
X146095327Y-107783902D01*
X145916699Y-107605273D01*
X145776791Y-107547321D01*
X145804765Y-107541757D01*
X146014809Y-107401409D01*
X146155157Y-107191365D01*
X146196055Y-106985750D01*
X146771200Y-106985750D01*
X146771200Y-107326309D01*
X146867873Y-107559698D01*
X147046501Y-107738327D01*
X147279890Y-107835000D01*
X147745450Y-107835000D01*
X147904200Y-107676250D01*
X147904200Y-106827000D01*
X148158200Y-106827000D01*
X148158200Y-107676250D01*
X148316950Y-107835000D01*
X148782510Y-107835000D01*
X149015899Y-107738327D01*
X149194527Y-107559698D01*
X149291200Y-107326309D01*
X149291200Y-106985750D01*
X152689400Y-106985750D01*
X152689400Y-107326309D01*
X152786073Y-107559698D01*
X152964701Y-107738327D01*
X153198090Y-107835000D01*
X153663650Y-107835000D01*
X153822400Y-107676250D01*
X153822400Y-106827000D01*
X154076400Y-106827000D01*
X154076400Y-107676250D01*
X154235150Y-107835000D01*
X154700710Y-107835000D01*
X154934099Y-107738327D01*
X155112727Y-107559698D01*
X155209400Y-107326309D01*
X155209400Y-106985750D01*
X156575600Y-106985750D01*
X156575600Y-107326309D01*
X156672273Y-107559698D01*
X156850901Y-107738327D01*
X157084290Y-107835000D01*
X157549850Y-107835000D01*
X157708600Y-107676250D01*
X157708600Y-106827000D01*
X157962600Y-106827000D01*
X157962600Y-107676250D01*
X158121350Y-107835000D01*
X158586910Y-107835000D01*
X158820299Y-107738327D01*
X158998927Y-107559698D01*
X159095600Y-107326309D01*
X159095600Y-106985750D01*
X158936850Y-106827000D01*
X157962600Y-106827000D01*
X157708600Y-106827000D01*
X156734350Y-106827000D01*
X156575600Y-106985750D01*
X155209400Y-106985750D01*
X155050650Y-106827000D01*
X154076400Y-106827000D01*
X153822400Y-106827000D01*
X152848150Y-106827000D01*
X152689400Y-106985750D01*
X149291200Y-106985750D01*
X149132450Y-106827000D01*
X148158200Y-106827000D01*
X147904200Y-106827000D01*
X146929950Y-106827000D01*
X146771200Y-106985750D01*
X146196055Y-106985750D01*
X146204440Y-106943600D01*
X146204440Y-106243600D01*
X146155157Y-105995835D01*
X146014809Y-105785791D01*
X145804765Y-105645443D01*
X145557000Y-105596160D01*
X144257000Y-105596160D01*
X144009235Y-105645443D01*
X143851858Y-105750600D01*
X143482820Y-105750600D01*
X143377629Y-105593170D01*
X143096476Y-105405310D01*
X143110200Y-105408040D01*
X145110200Y-105408040D01*
X145357965Y-105358757D01*
X145440383Y-105303687D01*
X145592463Y-105405304D01*
X145814148Y-105449400D01*
X145814152Y-105449400D01*
X145888999Y-105464288D01*
X145963846Y-105449400D01*
X146809135Y-105449400D01*
X146948391Y-105657809D01*
X147009520Y-105698654D01*
X146867873Y-105840302D01*
X146771200Y-106073691D01*
X146771200Y-106414250D01*
X146929950Y-106573000D01*
X147904200Y-106573000D01*
X147904200Y-106553000D01*
X148158200Y-106553000D01*
X148158200Y-106573000D01*
X149132450Y-106573000D01*
X149291200Y-106414250D01*
X149291200Y-106073691D01*
X149256749Y-105990519D01*
X149419635Y-106099357D01*
X149667400Y-106148640D01*
X150367400Y-106148640D01*
X150615165Y-106099357D01*
X150825209Y-105959009D01*
X150965557Y-105748965D01*
X150967400Y-105739700D01*
X150969243Y-105748965D01*
X151109591Y-105959009D01*
X151319635Y-106099357D01*
X151567400Y-106148640D01*
X152267400Y-106148640D01*
X152515165Y-106099357D01*
X152725209Y-105959009D01*
X152755975Y-105912965D01*
X152689400Y-106073691D01*
X152689400Y-106414250D01*
X152848150Y-106573000D01*
X153822400Y-106573000D01*
X153822400Y-106553000D01*
X154076400Y-106553000D01*
X154076400Y-106573000D01*
X155050650Y-106573000D01*
X155209400Y-106414250D01*
X155209400Y-106073691D01*
X155112727Y-105840302D01*
X154971080Y-105698654D01*
X155032209Y-105657809D01*
X155086605Y-105576400D01*
X156698395Y-105576400D01*
X156752791Y-105657809D01*
X156813920Y-105698654D01*
X156672273Y-105840302D01*
X156575600Y-106073691D01*
X156575600Y-106414250D01*
X156734350Y-106573000D01*
X157708600Y-106573000D01*
X157708600Y-106553000D01*
X157962600Y-106553000D01*
X157962600Y-106573000D01*
X158936850Y-106573000D01*
X159095600Y-106414250D01*
X159095600Y-106073691D01*
X158998927Y-105840302D01*
X158857280Y-105698654D01*
X158918409Y-105657809D01*
X158972805Y-105576400D01*
X160509600Y-105576400D01*
X160509601Y-106406944D01*
X160494711Y-106481800D01*
X160509600Y-106556652D01*
X160509601Y-108083349D01*
X160494712Y-108158200D01*
X160553697Y-108454737D01*
X160674680Y-108635800D01*
X160721672Y-108706129D01*
X160785128Y-108748529D01*
X160902869Y-108866270D01*
X160945271Y-108929729D01*
X161196663Y-109097704D01*
X161418348Y-109141800D01*
X161418352Y-109141800D01*
X161493199Y-109156688D01*
X161568046Y-109141800D01*
X161810950Y-109141800D01*
X161826191Y-109164609D01*
X162036235Y-109304957D01*
X162284000Y-109354240D01*
X163344000Y-109354240D01*
X163591765Y-109304957D01*
X163801809Y-109164609D01*
X163914000Y-108996705D01*
X164026191Y-109164609D01*
X164236235Y-109304957D01*
X164484000Y-109354240D01*
X165544000Y-109354240D01*
X165791765Y-109304957D01*
X166001809Y-109164609D01*
X166142157Y-108954565D01*
X166191440Y-108706800D01*
X166191440Y-108056800D01*
X166142157Y-107809035D01*
X166001809Y-107598991D01*
X165791765Y-107458643D01*
X165656815Y-107431800D01*
X165791765Y-107404957D01*
X166001809Y-107264609D01*
X166017050Y-107241800D01*
X166896506Y-107241800D01*
X166899443Y-107256565D01*
X167039791Y-107466609D01*
X167100920Y-107507454D01*
X166959273Y-107649102D01*
X166862600Y-107882491D01*
X166862600Y-108223050D01*
X167021350Y-108381800D01*
X167995600Y-108381800D01*
X167995600Y-108361800D01*
X168249600Y-108361800D01*
X168249600Y-108381800D01*
X169223850Y-108381800D01*
X169382600Y-108223050D01*
X169382600Y-107882491D01*
X169285927Y-107649102D01*
X169144280Y-107507454D01*
X169205409Y-107466609D01*
X169337582Y-107268800D01*
X169438153Y-107268800D01*
X169513000Y-107283688D01*
X169587847Y-107268800D01*
X169587852Y-107268800D01*
X169809537Y-107224704D01*
X170060929Y-107056729D01*
X170103331Y-106993270D01*
X170435870Y-106660731D01*
X170499329Y-106618329D01*
X170667304Y-106366937D01*
X170711400Y-106145252D01*
X170711400Y-106145248D01*
X170726288Y-106070401D01*
X170711400Y-105995554D01*
X170711400Y-100644690D01*
X178391600Y-100644690D01*
X178391600Y-100985250D01*
X178550350Y-101144000D01*
X179899600Y-101144000D01*
X179899600Y-100294750D01*
X179740850Y-100136000D01*
X178900291Y-100136000D01*
X178666902Y-100232673D01*
X178488273Y-100411301D01*
X178391600Y-100644690D01*
X170711400Y-100644690D01*
X170711400Y-94232646D01*
X170726288Y-94157799D01*
X170711400Y-94082952D01*
X170711400Y-94082948D01*
X170667304Y-93861263D01*
X170499329Y-93609871D01*
X170435870Y-93567469D01*
X170204931Y-93336530D01*
X170162529Y-93273071D01*
X169911137Y-93105096D01*
X169689452Y-93061000D01*
X169689447Y-93061000D01*
X169614600Y-93046112D01*
X169539753Y-93061000D01*
X164516354Y-93061000D01*
X164484409Y-93013191D01*
X164274365Y-92872843D01*
X164026600Y-92823560D01*
X162026600Y-92823560D01*
X161778835Y-92872843D01*
X161568791Y-93013191D01*
X161536846Y-93061000D01*
X161422246Y-93061000D01*
X161347399Y-93046112D01*
X161272552Y-93061000D01*
X161272548Y-93061000D01*
X161050863Y-93105096D01*
X160799471Y-93273071D01*
X160757069Y-93336530D01*
X160568799Y-93524800D01*
X152678052Y-93524800D01*
X152603200Y-93509911D01*
X152528348Y-93524800D01*
X151662048Y-93524800D01*
X151587200Y-93509912D01*
X151512352Y-93524800D01*
X151512348Y-93524800D01*
X151338805Y-93559320D01*
X151290662Y-93568896D01*
X151184841Y-93639604D01*
X151039271Y-93736871D01*
X150996871Y-93800327D01*
X150962600Y-93834598D01*
X150852131Y-93724130D01*
X150809729Y-93660671D01*
X150558337Y-93492696D01*
X150336652Y-93448600D01*
X150336647Y-93448600D01*
X150303512Y-93442009D01*
X150178631Y-93140520D01*
X149887480Y-92849369D01*
X149507074Y-92691800D01*
X149095326Y-92691800D01*
X148714920Y-92849369D01*
X148423769Y-93140520D01*
X148266200Y-93520926D01*
X148266200Y-93932674D01*
X148423769Y-94313080D01*
X148547289Y-94436600D01*
X146505028Y-94436600D01*
X146432640Y-94422201D01*
X146360252Y-94436600D01*
X146145857Y-94479246D01*
X145902735Y-94641695D01*
X145861730Y-94703063D01*
X145493194Y-95071600D01*
X143705724Y-95071600D01*
X143757640Y-94810601D01*
X143757640Y-94810599D01*
X143658878Y-94314090D01*
X143377629Y-93893170D01*
X142956709Y-93611921D01*
X142460200Y-93513159D01*
X140560200Y-93513159D01*
X140063691Y-93611921D01*
X139642771Y-93893170D01*
X139455200Y-94173891D01*
X139455200Y-91855600D01*
X183065200Y-91855600D01*
X183065200Y-92667560D01*
X183065200Y-92667560D01*
G37*
X183065200Y-92667560D02*
X181899800Y-92667560D01*
X181652035Y-92716843D01*
X181441991Y-92857191D01*
X181410046Y-92905000D01*
X179656163Y-92905000D01*
X179581315Y-92890112D01*
X179506467Y-92905000D01*
X179506463Y-92905000D01*
X179284778Y-92949096D01*
X179033386Y-93117071D01*
X178990986Y-93180527D01*
X175562928Y-96608586D01*
X175499472Y-96650986D01*
X175331496Y-96902378D01*
X175303086Y-97045203D01*
X175169969Y-97178320D01*
X175012400Y-97558726D01*
X175012400Y-97970474D01*
X175169969Y-98350880D01*
X175461120Y-98642031D01*
X175841526Y-98799600D01*
X176253274Y-98799600D01*
X176633680Y-98642031D01*
X176924831Y-98350880D01*
X177082400Y-97970474D01*
X177082400Y-97558726D01*
X176988671Y-97332445D01*
X179896117Y-94425000D01*
X181410046Y-94425000D01*
X181441991Y-94472809D01*
X181652035Y-94613157D01*
X181661300Y-94615000D01*
X181652035Y-94616843D01*
X181441991Y-94757191D01*
X181301643Y-94967235D01*
X181252360Y-95215000D01*
X181252360Y-95915000D01*
X181301643Y-96162765D01*
X181440249Y-96370201D01*
X181300843Y-96578835D01*
X181251560Y-96826600D01*
X181251560Y-98026600D01*
X181300843Y-98274365D01*
X181441191Y-98484409D01*
X181502320Y-98525254D01*
X181360673Y-98666902D01*
X181264000Y-98900291D01*
X181264000Y-99340850D01*
X181422750Y-99499600D01*
X182372000Y-99499600D01*
X182372000Y-99479600D01*
X182626000Y-99479600D01*
X182626000Y-99499600D01*
X182646000Y-99499600D01*
X182646000Y-99753600D01*
X182626000Y-99753600D01*
X182626000Y-100702850D01*
X182731850Y-100808700D01*
X182626000Y-100914550D01*
X182626000Y-101863800D01*
X182646000Y-101863800D01*
X182646000Y-102117800D01*
X182626000Y-102117800D01*
X182626000Y-102137800D01*
X182372000Y-102137800D01*
X182372000Y-102117800D01*
X182352000Y-102117800D01*
X182352000Y-101863800D01*
X182372000Y-101863800D01*
X182372000Y-100914550D01*
X182266150Y-100808700D01*
X182372000Y-100702850D01*
X182372000Y-99753600D01*
X181422750Y-99753600D01*
X181264000Y-99912350D01*
X181264000Y-100182015D01*
X181152909Y-100136000D01*
X180312350Y-100136000D01*
X180153600Y-100294750D01*
X180153600Y-101144000D01*
X180173600Y-101144000D01*
X180173600Y-101398000D01*
X180153600Y-101398000D01*
X180153600Y-101418000D01*
X179899600Y-101418000D01*
X179899600Y-101398000D01*
X178550350Y-101398000D01*
X178391600Y-101556750D01*
X178391600Y-101897310D01*
X178488273Y-102130699D01*
X178666902Y-102309327D01*
X178900291Y-102406000D01*
X179014333Y-102406000D01*
X178778835Y-102452843D01*
X178568791Y-102593191D01*
X178428443Y-102803235D01*
X178379160Y-103051000D01*
X178379160Y-104051000D01*
X178428443Y-104298765D01*
X178568791Y-104508809D01*
X178778835Y-104649157D01*
X178910137Y-104675274D01*
X178919600Y-104722847D01*
X178919600Y-105148891D01*
X178753447Y-105217714D01*
X178293514Y-105677647D01*
X178044600Y-106278578D01*
X178044600Y-106929022D01*
X178293514Y-107529953D01*
X178753447Y-107989886D01*
X179354378Y-108238800D01*
X179835156Y-108238800D01*
X179829920Y-108240969D01*
X179538769Y-108532120D01*
X179381200Y-108912526D01*
X179381200Y-109324274D01*
X179439739Y-109465600D01*
X169188826Y-109465600D01*
X169285927Y-109368498D01*
X169382600Y-109135109D01*
X169382600Y-108794550D01*
X169223850Y-108635800D01*
X168249600Y-108635800D01*
X168249600Y-108655800D01*
X167995600Y-108655800D01*
X167995600Y-108635800D01*
X167021350Y-108635800D01*
X166862600Y-108794550D01*
X166862600Y-109135109D01*
X166959273Y-109368498D01*
X167056374Y-109465600D01*
X145714695Y-109465600D01*
X145916699Y-109381927D01*
X146095327Y-109203298D01*
X146192000Y-108969909D01*
X146192000Y-108779350D01*
X146033250Y-108620600D01*
X145034000Y-108620600D01*
X145034000Y-108640600D01*
X144780000Y-108640600D01*
X144780000Y-108620600D01*
X143780750Y-108620600D01*
X143622000Y-108779350D01*
X143622000Y-108969909D01*
X143718673Y-109203298D01*
X143897301Y-109381927D01*
X144099305Y-109465600D01*
X139455200Y-109465600D01*
X139455200Y-107147309D01*
X139642771Y-107428030D01*
X140063691Y-107709279D01*
X140560200Y-107808041D01*
X142460200Y-107808041D01*
X142956709Y-107709279D01*
X143377629Y-107428030D01*
X143482820Y-107270600D01*
X143711787Y-107270600D01*
X143799191Y-107401409D01*
X144009235Y-107541757D01*
X144037209Y-107547321D01*
X143897301Y-107605273D01*
X143718673Y-107783902D01*
X143622000Y-108017291D01*
X143622000Y-108207850D01*
X143780750Y-108366600D01*
X144780000Y-108366600D01*
X144780000Y-108346600D01*
X145034000Y-108346600D01*
X145034000Y-108366600D01*
X146033250Y-108366600D01*
X146192000Y-108207850D01*
X146192000Y-108017291D01*
X146095327Y-107783902D01*
X145916699Y-107605273D01*
X145776791Y-107547321D01*
X145804765Y-107541757D01*
X146014809Y-107401409D01*
X146155157Y-107191365D01*
X146196055Y-106985750D01*
X146771200Y-106985750D01*
X146771200Y-107326309D01*
X146867873Y-107559698D01*
X147046501Y-107738327D01*
X147279890Y-107835000D01*
X147745450Y-107835000D01*
X147904200Y-107676250D01*
X147904200Y-106827000D01*
X148158200Y-106827000D01*
X148158200Y-107676250D01*
X148316950Y-107835000D01*
X148782510Y-107835000D01*
X149015899Y-107738327D01*
X149194527Y-107559698D01*
X149291200Y-107326309D01*
X149291200Y-106985750D01*
X152689400Y-106985750D01*
X152689400Y-107326309D01*
X152786073Y-107559698D01*
X152964701Y-107738327D01*
X153198090Y-107835000D01*
X153663650Y-107835000D01*
X153822400Y-107676250D01*
X153822400Y-106827000D01*
X154076400Y-106827000D01*
X154076400Y-107676250D01*
X154235150Y-107835000D01*
X154700710Y-107835000D01*
X154934099Y-107738327D01*
X155112727Y-107559698D01*
X155209400Y-107326309D01*
X155209400Y-106985750D01*
X156575600Y-106985750D01*
X156575600Y-107326309D01*
X156672273Y-107559698D01*
X156850901Y-107738327D01*
X157084290Y-107835000D01*
X157549850Y-107835000D01*
X157708600Y-107676250D01*
X157708600Y-106827000D01*
X157962600Y-106827000D01*
X157962600Y-107676250D01*
X158121350Y-107835000D01*
X158586910Y-107835000D01*
X158820299Y-107738327D01*
X158998927Y-107559698D01*
X159095600Y-107326309D01*
X159095600Y-106985750D01*
X158936850Y-106827000D01*
X157962600Y-106827000D01*
X157708600Y-106827000D01*
X156734350Y-106827000D01*
X156575600Y-106985750D01*
X155209400Y-106985750D01*
X155050650Y-106827000D01*
X154076400Y-106827000D01*
X153822400Y-106827000D01*
X152848150Y-106827000D01*
X152689400Y-106985750D01*
X149291200Y-106985750D01*
X149132450Y-106827000D01*
X148158200Y-106827000D01*
X147904200Y-106827000D01*
X146929950Y-106827000D01*
X146771200Y-106985750D01*
X146196055Y-106985750D01*
X146204440Y-106943600D01*
X146204440Y-106243600D01*
X146155157Y-105995835D01*
X146014809Y-105785791D01*
X145804765Y-105645443D01*
X145557000Y-105596160D01*
X144257000Y-105596160D01*
X144009235Y-105645443D01*
X143851858Y-105750600D01*
X143482820Y-105750600D01*
X143377629Y-105593170D01*
X143096476Y-105405310D01*
X143110200Y-105408040D01*
X145110200Y-105408040D01*
X145357965Y-105358757D01*
X145440383Y-105303687D01*
X145592463Y-105405304D01*
X145814148Y-105449400D01*
X145814152Y-105449400D01*
X145888999Y-105464288D01*
X145963846Y-105449400D01*
X146809135Y-105449400D01*
X146948391Y-105657809D01*
X147009520Y-105698654D01*
X146867873Y-105840302D01*
X146771200Y-106073691D01*
X146771200Y-106414250D01*
X146929950Y-106573000D01*
X147904200Y-106573000D01*
X147904200Y-106553000D01*
X148158200Y-106553000D01*
X148158200Y-106573000D01*
X149132450Y-106573000D01*
X149291200Y-106414250D01*
X149291200Y-106073691D01*
X149256749Y-105990519D01*
X149419635Y-106099357D01*
X149667400Y-106148640D01*
X150367400Y-106148640D01*
X150615165Y-106099357D01*
X150825209Y-105959009D01*
X150965557Y-105748965D01*
X150967400Y-105739700D01*
X150969243Y-105748965D01*
X151109591Y-105959009D01*
X151319635Y-106099357D01*
X151567400Y-106148640D01*
X152267400Y-106148640D01*
X152515165Y-106099357D01*
X152725209Y-105959009D01*
X152755975Y-105912965D01*
X152689400Y-106073691D01*
X152689400Y-106414250D01*
X152848150Y-106573000D01*
X153822400Y-106573000D01*
X153822400Y-106553000D01*
X154076400Y-106553000D01*
X154076400Y-106573000D01*
X155050650Y-106573000D01*
X155209400Y-106414250D01*
X155209400Y-106073691D01*
X155112727Y-105840302D01*
X154971080Y-105698654D01*
X155032209Y-105657809D01*
X155086605Y-105576400D01*
X156698395Y-105576400D01*
X156752791Y-105657809D01*
X156813920Y-105698654D01*
X156672273Y-105840302D01*
X156575600Y-106073691D01*
X156575600Y-106414250D01*
X156734350Y-106573000D01*
X157708600Y-106573000D01*
X157708600Y-106553000D01*
X157962600Y-106553000D01*
X157962600Y-106573000D01*
X158936850Y-106573000D01*
X159095600Y-106414250D01*
X159095600Y-106073691D01*
X158998927Y-105840302D01*
X158857280Y-105698654D01*
X158918409Y-105657809D01*
X158972805Y-105576400D01*
X160509600Y-105576400D01*
X160509601Y-106406944D01*
X160494711Y-106481800D01*
X160509600Y-106556652D01*
X160509601Y-108083349D01*
X160494712Y-108158200D01*
X160553697Y-108454737D01*
X160674680Y-108635800D01*
X160721672Y-108706129D01*
X160785128Y-108748529D01*
X160902869Y-108866270D01*
X160945271Y-108929729D01*
X161196663Y-109097704D01*
X161418348Y-109141800D01*
X161418352Y-109141800D01*
X161493199Y-109156688D01*
X161568046Y-109141800D01*
X161810950Y-109141800D01*
X161826191Y-109164609D01*
X162036235Y-109304957D01*
X162284000Y-109354240D01*
X163344000Y-109354240D01*
X163591765Y-109304957D01*
X163801809Y-109164609D01*
X163914000Y-108996705D01*
X164026191Y-109164609D01*
X164236235Y-109304957D01*
X164484000Y-109354240D01*
X165544000Y-109354240D01*
X165791765Y-109304957D01*
X166001809Y-109164609D01*
X166142157Y-108954565D01*
X166191440Y-108706800D01*
X166191440Y-108056800D01*
X166142157Y-107809035D01*
X166001809Y-107598991D01*
X165791765Y-107458643D01*
X165656815Y-107431800D01*
X165791765Y-107404957D01*
X166001809Y-107264609D01*
X166017050Y-107241800D01*
X166896506Y-107241800D01*
X166899443Y-107256565D01*
X167039791Y-107466609D01*
X167100920Y-107507454D01*
X166959273Y-107649102D01*
X166862600Y-107882491D01*
X166862600Y-108223050D01*
X167021350Y-108381800D01*
X167995600Y-108381800D01*
X167995600Y-108361800D01*
X168249600Y-108361800D01*
X168249600Y-108381800D01*
X169223850Y-108381800D01*
X169382600Y-108223050D01*
X169382600Y-107882491D01*
X169285927Y-107649102D01*
X169144280Y-107507454D01*
X169205409Y-107466609D01*
X169337582Y-107268800D01*
X169438153Y-107268800D01*
X169513000Y-107283688D01*
X169587847Y-107268800D01*
X169587852Y-107268800D01*
X169809537Y-107224704D01*
X170060929Y-107056729D01*
X170103331Y-106993270D01*
X170435870Y-106660731D01*
X170499329Y-106618329D01*
X170667304Y-106366937D01*
X170711400Y-106145252D01*
X170711400Y-106145248D01*
X170726288Y-106070401D01*
X170711400Y-105995554D01*
X170711400Y-100644690D01*
X178391600Y-100644690D01*
X178391600Y-100985250D01*
X178550350Y-101144000D01*
X179899600Y-101144000D01*
X179899600Y-100294750D01*
X179740850Y-100136000D01*
X178900291Y-100136000D01*
X178666902Y-100232673D01*
X178488273Y-100411301D01*
X178391600Y-100644690D01*
X170711400Y-100644690D01*
X170711400Y-94232646D01*
X170726288Y-94157799D01*
X170711400Y-94082952D01*
X170711400Y-94082948D01*
X170667304Y-93861263D01*
X170499329Y-93609871D01*
X170435870Y-93567469D01*
X170204931Y-93336530D01*
X170162529Y-93273071D01*
X169911137Y-93105096D01*
X169689452Y-93061000D01*
X169689447Y-93061000D01*
X169614600Y-93046112D01*
X169539753Y-93061000D01*
X164516354Y-93061000D01*
X164484409Y-93013191D01*
X164274365Y-92872843D01*
X164026600Y-92823560D01*
X162026600Y-92823560D01*
X161778835Y-92872843D01*
X161568791Y-93013191D01*
X161536846Y-93061000D01*
X161422246Y-93061000D01*
X161347399Y-93046112D01*
X161272552Y-93061000D01*
X161272548Y-93061000D01*
X161050863Y-93105096D01*
X160799471Y-93273071D01*
X160757069Y-93336530D01*
X160568799Y-93524800D01*
X152678052Y-93524800D01*
X152603200Y-93509911D01*
X152528348Y-93524800D01*
X151662048Y-93524800D01*
X151587200Y-93509912D01*
X151512352Y-93524800D01*
X151512348Y-93524800D01*
X151338805Y-93559320D01*
X151290662Y-93568896D01*
X151184841Y-93639604D01*
X151039271Y-93736871D01*
X150996871Y-93800327D01*
X150962600Y-93834598D01*
X150852131Y-93724130D01*
X150809729Y-93660671D01*
X150558337Y-93492696D01*
X150336652Y-93448600D01*
X150336647Y-93448600D01*
X150303512Y-93442009D01*
X150178631Y-93140520D01*
X149887480Y-92849369D01*
X149507074Y-92691800D01*
X149095326Y-92691800D01*
X148714920Y-92849369D01*
X148423769Y-93140520D01*
X148266200Y-93520926D01*
X148266200Y-93932674D01*
X148423769Y-94313080D01*
X148547289Y-94436600D01*
X146505028Y-94436600D01*
X146432640Y-94422201D01*
X146360252Y-94436600D01*
X146145857Y-94479246D01*
X145902735Y-94641695D01*
X145861730Y-94703063D01*
X145493194Y-95071600D01*
X143705724Y-95071600D01*
X143757640Y-94810601D01*
X143757640Y-94810599D01*
X143658878Y-94314090D01*
X143377629Y-93893170D01*
X142956709Y-93611921D01*
X142460200Y-93513159D01*
X140560200Y-93513159D01*
X140063691Y-93611921D01*
X139642771Y-93893170D01*
X139455200Y-94173891D01*
X139455200Y-91855600D01*
X183065200Y-91855600D01*
X183065200Y-92667560D01*
G36*
X164026191Y-107264609D02*
X164236235Y-107404957D01*
X164371185Y-107431800D01*
X164236235Y-107458643D01*
X164026191Y-107598991D01*
X163959801Y-107698351D01*
X163820250Y-107558800D01*
X163741659Y-107558800D01*
X163591765Y-107458643D01*
X163456815Y-107431800D01*
X163591765Y-107404957D01*
X163741659Y-107304800D01*
X163820250Y-107304800D01*
X163959801Y-107165249D01*
X164026191Y-107264609D01*
X164026191Y-107264609D01*
G37*
X164026191Y-107264609D02*
X164236235Y-107404957D01*
X164371185Y-107431800D01*
X164236235Y-107458643D01*
X164026191Y-107598991D01*
X163959801Y-107698351D01*
X163820250Y-107558800D01*
X163741659Y-107558800D01*
X163591765Y-107458643D01*
X163456815Y-107431800D01*
X163591765Y-107404957D01*
X163741659Y-107304800D01*
X163820250Y-107304800D01*
X163959801Y-107165249D01*
X164026191Y-107264609D01*
G36*
X140375730Y-101309137D02*
X140416735Y-101370505D01*
X140659857Y-101532954D01*
X140874252Y-101575600D01*
X140874255Y-101575600D01*
X140946639Y-101589998D01*
X141019023Y-101575600D01*
X141485753Y-101575600D01*
X141635753Y-101725600D01*
X141274489Y-101725600D01*
X140838951Y-101906005D01*
X140505605Y-102239351D01*
X140325200Y-102674889D01*
X140325200Y-103146311D01*
X140505605Y-103581849D01*
X140838951Y-103915195D01*
X141274489Y-104095600D01*
X141745911Y-104095600D01*
X142181449Y-103915195D01*
X142462760Y-103633884D01*
X142462760Y-104760600D01*
X142512043Y-105008365D01*
X142652391Y-105218409D01*
X142722669Y-105265367D01*
X142460200Y-105213159D01*
X140560200Y-105213159D01*
X140063691Y-105311921D01*
X139642771Y-105593170D01*
X139455200Y-105873891D01*
X139455200Y-100388606D01*
X140375730Y-101309137D01*
X140375730Y-101309137D01*
G37*
X140375730Y-101309137D02*
X140416735Y-101370505D01*
X140659857Y-101532954D01*
X140874252Y-101575600D01*
X140874255Y-101575600D01*
X140946639Y-101589998D01*
X141019023Y-101575600D01*
X141485753Y-101575600D01*
X141635753Y-101725600D01*
X141274489Y-101725600D01*
X140838951Y-101906005D01*
X140505605Y-102239351D01*
X140325200Y-102674889D01*
X140325200Y-103146311D01*
X140505605Y-103581849D01*
X140838951Y-103915195D01*
X141274489Y-104095600D01*
X141745911Y-104095600D01*
X142181449Y-103915195D01*
X142462760Y-103633884D01*
X142462760Y-104760600D01*
X142512043Y-105008365D01*
X142652391Y-105218409D01*
X142722669Y-105265367D01*
X142460200Y-105213159D01*
X140560200Y-105213159D01*
X140063691Y-105311921D01*
X139642771Y-105593170D01*
X139455200Y-105873891D01*
X139455200Y-100388606D01*
X140375730Y-101309137D01*
G36*
X169191400Y-105541630D02*
X168995365Y-105410643D01*
X168747600Y-105361360D01*
X167497600Y-105361360D01*
X167249835Y-105410643D01*
X167039791Y-105550991D01*
X166925659Y-105721800D01*
X166017050Y-105721800D01*
X166001809Y-105698991D01*
X165791765Y-105558643D01*
X165544000Y-105509360D01*
X164484000Y-105509360D01*
X164236235Y-105558643D01*
X164026191Y-105698991D01*
X163914000Y-105866895D01*
X163801809Y-105698991D01*
X163591765Y-105558643D01*
X163344000Y-105509360D01*
X162284000Y-105509360D01*
X162036235Y-105558643D01*
X162029600Y-105563076D01*
X162029600Y-105261246D01*
X162044488Y-105186399D01*
X162029600Y-105111552D01*
X162029600Y-105111548D01*
X161985504Y-104889863D01*
X161817529Y-104638471D01*
X161754070Y-104596069D01*
X161489931Y-104331930D01*
X161447529Y-104268471D01*
X161196137Y-104100496D01*
X160974452Y-104056400D01*
X160974447Y-104056400D01*
X160899600Y-104041512D01*
X160824753Y-104056400D01*
X159079476Y-104056400D01*
X159058757Y-103952235D01*
X158918409Y-103742191D01*
X158708365Y-103601843D01*
X158460600Y-103552560D01*
X157210600Y-103552560D01*
X156962835Y-103601843D01*
X156752791Y-103742191D01*
X156612443Y-103952235D01*
X156591724Y-104056400D01*
X155193276Y-104056400D01*
X155172557Y-103952235D01*
X155032209Y-103742191D01*
X154822165Y-103601843D01*
X154574400Y-103552560D01*
X154052002Y-103552560D01*
X154082531Y-103506870D01*
X154592651Y-102996750D01*
X161391600Y-102996750D01*
X161391600Y-103187310D01*
X161488273Y-103420699D01*
X161666902Y-103599327D01*
X161900291Y-103696000D01*
X162740850Y-103696000D01*
X162899600Y-103537250D01*
X162899600Y-102838000D01*
X163153600Y-102838000D01*
X163153600Y-103537250D01*
X163312350Y-103696000D01*
X164152909Y-103696000D01*
X164386298Y-103599327D01*
X164564927Y-103420699D01*
X164661600Y-103187310D01*
X164661600Y-102996750D01*
X164502850Y-102838000D01*
X163153600Y-102838000D01*
X162899600Y-102838000D01*
X161550350Y-102838000D01*
X161391600Y-102996750D01*
X154592651Y-102996750D01*
X155712002Y-101877400D01*
X156801689Y-101877400D01*
X156919120Y-101994831D01*
X157299526Y-102152400D01*
X157711274Y-102152400D01*
X158091680Y-101994831D01*
X158296754Y-101789757D01*
X158432473Y-101925476D01*
X158474871Y-101988929D01*
X158538324Y-102031327D01*
X158538326Y-102031329D01*
X158663702Y-102115102D01*
X158726263Y-102156904D01*
X158947948Y-102201000D01*
X158947952Y-102201000D01*
X159022799Y-102215888D01*
X159097646Y-102201000D01*
X161405555Y-102201000D01*
X161391600Y-102234690D01*
X161391600Y-102425250D01*
X161550350Y-102584000D01*
X162899600Y-102584000D01*
X162899600Y-102564000D01*
X163153600Y-102564000D01*
X163153600Y-102584000D01*
X164502850Y-102584000D01*
X164661600Y-102425250D01*
X164661600Y-102234690D01*
X164597402Y-102079704D01*
X164624757Y-102038765D01*
X164674040Y-101791000D01*
X164674040Y-101091000D01*
X164624757Y-100843235D01*
X164599877Y-100806000D01*
X164624757Y-100768765D01*
X164674040Y-100521000D01*
X164674040Y-99821000D01*
X164624757Y-99573235D01*
X164599877Y-99536000D01*
X164624757Y-99498765D01*
X164674040Y-99251000D01*
X164674040Y-98551000D01*
X164624757Y-98303235D01*
X164599877Y-98266000D01*
X164624757Y-98228765D01*
X164674040Y-97981000D01*
X164674040Y-97281000D01*
X164624757Y-97033235D01*
X164599877Y-96996000D01*
X164624757Y-96958765D01*
X164674040Y-96711000D01*
X164674040Y-96011000D01*
X164624757Y-95763235D01*
X164599877Y-95726000D01*
X164624757Y-95688765D01*
X164674040Y-95441000D01*
X164674040Y-94741000D01*
X164642214Y-94581000D01*
X169191401Y-94581000D01*
X169191400Y-105541630D01*
X169191400Y-105541630D01*
G37*
X169191400Y-105541630D02*
X168995365Y-105410643D01*
X168747600Y-105361360D01*
X167497600Y-105361360D01*
X167249835Y-105410643D01*
X167039791Y-105550991D01*
X166925659Y-105721800D01*
X166017050Y-105721800D01*
X166001809Y-105698991D01*
X165791765Y-105558643D01*
X165544000Y-105509360D01*
X164484000Y-105509360D01*
X164236235Y-105558643D01*
X164026191Y-105698991D01*
X163914000Y-105866895D01*
X163801809Y-105698991D01*
X163591765Y-105558643D01*
X163344000Y-105509360D01*
X162284000Y-105509360D01*
X162036235Y-105558643D01*
X162029600Y-105563076D01*
X162029600Y-105261246D01*
X162044488Y-105186399D01*
X162029600Y-105111552D01*
X162029600Y-105111548D01*
X161985504Y-104889863D01*
X161817529Y-104638471D01*
X161754070Y-104596069D01*
X161489931Y-104331930D01*
X161447529Y-104268471D01*
X161196137Y-104100496D01*
X160974452Y-104056400D01*
X160974447Y-104056400D01*
X160899600Y-104041512D01*
X160824753Y-104056400D01*
X159079476Y-104056400D01*
X159058757Y-103952235D01*
X158918409Y-103742191D01*
X158708365Y-103601843D01*
X158460600Y-103552560D01*
X157210600Y-103552560D01*
X156962835Y-103601843D01*
X156752791Y-103742191D01*
X156612443Y-103952235D01*
X156591724Y-104056400D01*
X155193276Y-104056400D01*
X155172557Y-103952235D01*
X155032209Y-103742191D01*
X154822165Y-103601843D01*
X154574400Y-103552560D01*
X154052002Y-103552560D01*
X154082531Y-103506870D01*
X154592651Y-102996750D01*
X161391600Y-102996750D01*
X161391600Y-103187310D01*
X161488273Y-103420699D01*
X161666902Y-103599327D01*
X161900291Y-103696000D01*
X162740850Y-103696000D01*
X162899600Y-103537250D01*
X162899600Y-102838000D01*
X163153600Y-102838000D01*
X163153600Y-103537250D01*
X163312350Y-103696000D01*
X164152909Y-103696000D01*
X164386298Y-103599327D01*
X164564927Y-103420699D01*
X164661600Y-103187310D01*
X164661600Y-102996750D01*
X164502850Y-102838000D01*
X163153600Y-102838000D01*
X162899600Y-102838000D01*
X161550350Y-102838000D01*
X161391600Y-102996750D01*
X154592651Y-102996750D01*
X155712002Y-101877400D01*
X156801689Y-101877400D01*
X156919120Y-101994831D01*
X157299526Y-102152400D01*
X157711274Y-102152400D01*
X158091680Y-101994831D01*
X158296754Y-101789757D01*
X158432473Y-101925476D01*
X158474871Y-101988929D01*
X158538324Y-102031327D01*
X158538326Y-102031329D01*
X158663702Y-102115102D01*
X158726263Y-102156904D01*
X158947948Y-102201000D01*
X158947952Y-102201000D01*
X159022799Y-102215888D01*
X159097646Y-102201000D01*
X161405555Y-102201000D01*
X161391600Y-102234690D01*
X161391600Y-102425250D01*
X161550350Y-102584000D01*
X162899600Y-102584000D01*
X162899600Y-102564000D01*
X163153600Y-102564000D01*
X163153600Y-102584000D01*
X164502850Y-102584000D01*
X164661600Y-102425250D01*
X164661600Y-102234690D01*
X164597402Y-102079704D01*
X164624757Y-102038765D01*
X164674040Y-101791000D01*
X164674040Y-101091000D01*
X164624757Y-100843235D01*
X164599877Y-100806000D01*
X164624757Y-100768765D01*
X164674040Y-100521000D01*
X164674040Y-99821000D01*
X164624757Y-99573235D01*
X164599877Y-99536000D01*
X164624757Y-99498765D01*
X164674040Y-99251000D01*
X164674040Y-98551000D01*
X164624757Y-98303235D01*
X164599877Y-98266000D01*
X164624757Y-98228765D01*
X164674040Y-97981000D01*
X164674040Y-97281000D01*
X164624757Y-97033235D01*
X164599877Y-96996000D01*
X164624757Y-96958765D01*
X164674040Y-96711000D01*
X164674040Y-96011000D01*
X164624757Y-95763235D01*
X164599877Y-95726000D01*
X164624757Y-95688765D01*
X164674040Y-95441000D01*
X164674040Y-94741000D01*
X164642214Y-94581000D01*
X169191401Y-94581000D01*
X169191400Y-105541630D01*
G36*
X147989835Y-100535357D02*
X148237600Y-100584640D01*
X148840160Y-100584640D01*
X148840160Y-101187200D01*
X148886477Y-101420052D01*
X148881912Y-101443000D01*
X148902600Y-101547006D01*
X148902601Y-102363688D01*
X148779369Y-102486920D01*
X148621800Y-102867326D01*
X148621800Y-103279074D01*
X148742164Y-103569659D01*
X148656200Y-103552560D01*
X147406200Y-103552560D01*
X147158435Y-103601843D01*
X146948391Y-103742191D01*
X146823301Y-103929400D01*
X146203802Y-103929400D01*
X145950531Y-103676130D01*
X145908129Y-103612671D01*
X145746518Y-103504686D01*
X145708357Y-103312835D01*
X145568009Y-103102791D01*
X145357965Y-102962443D01*
X145110200Y-102913160D01*
X143110200Y-102913160D01*
X142862435Y-102962443D01*
X142695200Y-103074187D01*
X142695200Y-102747013D01*
X142862435Y-102858757D01*
X143110200Y-102908040D01*
X145110200Y-102908040D01*
X145357965Y-102858757D01*
X145459083Y-102791192D01*
X145521673Y-102942298D01*
X145700301Y-103120927D01*
X145933690Y-103217600D01*
X146399250Y-103217600D01*
X146558000Y-103058850D01*
X146558000Y-102209600D01*
X146812000Y-102209600D01*
X146812000Y-103058850D01*
X146970750Y-103217600D01*
X147436310Y-103217600D01*
X147669699Y-103120927D01*
X147848327Y-102942298D01*
X147945000Y-102708909D01*
X147945000Y-102368350D01*
X147786250Y-102209600D01*
X146812000Y-102209600D01*
X146558000Y-102209600D01*
X146538000Y-102209600D01*
X146538000Y-101955600D01*
X146558000Y-101955600D01*
X146558000Y-101935600D01*
X146812000Y-101935600D01*
X146812000Y-101955600D01*
X147786250Y-101955600D01*
X147945000Y-101796850D01*
X147945000Y-101456291D01*
X147848327Y-101222902D01*
X147706680Y-101081254D01*
X147767809Y-101040409D01*
X147908157Y-100830365D01*
X147957440Y-100582600D01*
X147957440Y-100522200D01*
X147970144Y-100522200D01*
X147989835Y-100535357D01*
X147989835Y-100535357D01*
G37*
X147989835Y-100535357D02*
X148237600Y-100584640D01*
X148840160Y-100584640D01*
X148840160Y-101187200D01*
X148886477Y-101420052D01*
X148881912Y-101443000D01*
X148902600Y-101547006D01*
X148902601Y-102363688D01*
X148779369Y-102486920D01*
X148621800Y-102867326D01*
X148621800Y-103279074D01*
X148742164Y-103569659D01*
X148656200Y-103552560D01*
X147406200Y-103552560D01*
X147158435Y-103601843D01*
X146948391Y-103742191D01*
X146823301Y-103929400D01*
X146203802Y-103929400D01*
X145950531Y-103676130D01*
X145908129Y-103612671D01*
X145746518Y-103504686D01*
X145708357Y-103312835D01*
X145568009Y-103102791D01*
X145357965Y-102962443D01*
X145110200Y-102913160D01*
X143110200Y-102913160D01*
X142862435Y-102962443D01*
X142695200Y-103074187D01*
X142695200Y-102747013D01*
X142862435Y-102858757D01*
X143110200Y-102908040D01*
X145110200Y-102908040D01*
X145357965Y-102858757D01*
X145459083Y-102791192D01*
X145521673Y-102942298D01*
X145700301Y-103120927D01*
X145933690Y-103217600D01*
X146399250Y-103217600D01*
X146558000Y-103058850D01*
X146558000Y-102209600D01*
X146812000Y-102209600D01*
X146812000Y-103058850D01*
X146970750Y-103217600D01*
X147436310Y-103217600D01*
X147669699Y-103120927D01*
X147848327Y-102942298D01*
X147945000Y-102708909D01*
X147945000Y-102368350D01*
X147786250Y-102209600D01*
X146812000Y-102209600D01*
X146558000Y-102209600D01*
X146538000Y-102209600D01*
X146538000Y-101955600D01*
X146558000Y-101955600D01*
X146558000Y-101935600D01*
X146812000Y-101935600D01*
X146812000Y-101955600D01*
X147786250Y-101955600D01*
X147945000Y-101796850D01*
X147945000Y-101456291D01*
X147848327Y-101222902D01*
X147706680Y-101081254D01*
X147767809Y-101040409D01*
X147908157Y-100830365D01*
X147957440Y-100582600D01*
X147957440Y-100522200D01*
X147970144Y-100522200D01*
X147989835Y-100535357D01*
G36*
X148840160Y-96387200D02*
X148840160Y-97085390D01*
X148764600Y-97160950D01*
X148764600Y-97414331D01*
X148740160Y-97537200D01*
X148740160Y-97639760D01*
X148510600Y-97639760D01*
X148510600Y-97160950D01*
X148351850Y-97002200D01*
X148111291Y-97002200D01*
X147877902Y-97098873D01*
X147699273Y-97277501D01*
X147602600Y-97510890D01*
X147602600Y-97565950D01*
X147761350Y-97724700D01*
X147936471Y-97724700D01*
X147779791Y-97829391D01*
X147675344Y-97985706D01*
X147602600Y-98058450D01*
X147602600Y-98088097D01*
X147562431Y-97991120D01*
X147271280Y-97699969D01*
X146890874Y-97542400D01*
X146479126Y-97542400D01*
X146098720Y-97699969D01*
X145807569Y-97991120D01*
X145650000Y-98371526D01*
X145650000Y-98725498D01*
X145568009Y-98602791D01*
X145357965Y-98462443D01*
X145110200Y-98413160D01*
X143110200Y-98413160D01*
X142862435Y-98462443D01*
X142695200Y-98574187D01*
X142695200Y-98243626D01*
X142750501Y-98298927D01*
X142983890Y-98395600D01*
X143824450Y-98395600D01*
X143983200Y-98236850D01*
X143983200Y-97287600D01*
X144237200Y-97287600D01*
X144237200Y-98236850D01*
X144395950Y-98395600D01*
X145236510Y-98395600D01*
X145469899Y-98298927D01*
X145648527Y-98120298D01*
X145745200Y-97886909D01*
X145745200Y-97446350D01*
X145586450Y-97287600D01*
X144237200Y-97287600D01*
X143983200Y-97287600D01*
X142633950Y-97287600D01*
X142475200Y-97446350D01*
X142475200Y-97699756D01*
X142181449Y-97406005D01*
X141745911Y-97225600D01*
X141507607Y-97225600D01*
X141831607Y-96901600D01*
X142501950Y-96901600D01*
X142633950Y-97033600D01*
X143983200Y-97033600D01*
X143983200Y-97013600D01*
X144237200Y-97013600D01*
X144237200Y-97033600D01*
X145586450Y-97033600D01*
X145718450Y-96901600D01*
X145874376Y-96901600D01*
X145946760Y-96915998D01*
X146019144Y-96901600D01*
X146019148Y-96901600D01*
X146233543Y-96858954D01*
X146476665Y-96696505D01*
X146517671Y-96635135D01*
X146886207Y-96266600D01*
X148864149Y-96266600D01*
X148840160Y-96387200D01*
X148840160Y-96387200D01*
G37*
X148840160Y-96387200D02*
X148840160Y-97085390D01*
X148764600Y-97160950D01*
X148764600Y-97414331D01*
X148740160Y-97537200D01*
X148740160Y-97639760D01*
X148510600Y-97639760D01*
X148510600Y-97160950D01*
X148351850Y-97002200D01*
X148111291Y-97002200D01*
X147877902Y-97098873D01*
X147699273Y-97277501D01*
X147602600Y-97510890D01*
X147602600Y-97565950D01*
X147761350Y-97724700D01*
X147936471Y-97724700D01*
X147779791Y-97829391D01*
X147675344Y-97985706D01*
X147602600Y-98058450D01*
X147602600Y-98088097D01*
X147562431Y-97991120D01*
X147271280Y-97699969D01*
X146890874Y-97542400D01*
X146479126Y-97542400D01*
X146098720Y-97699969D01*
X145807569Y-97991120D01*
X145650000Y-98371526D01*
X145650000Y-98725498D01*
X145568009Y-98602791D01*
X145357965Y-98462443D01*
X145110200Y-98413160D01*
X143110200Y-98413160D01*
X142862435Y-98462443D01*
X142695200Y-98574187D01*
X142695200Y-98243626D01*
X142750501Y-98298927D01*
X142983890Y-98395600D01*
X143824450Y-98395600D01*
X143983200Y-98236850D01*
X143983200Y-97287600D01*
X144237200Y-97287600D01*
X144237200Y-98236850D01*
X144395950Y-98395600D01*
X145236510Y-98395600D01*
X145469899Y-98298927D01*
X145648527Y-98120298D01*
X145745200Y-97886909D01*
X145745200Y-97446350D01*
X145586450Y-97287600D01*
X144237200Y-97287600D01*
X143983200Y-97287600D01*
X142633950Y-97287600D01*
X142475200Y-97446350D01*
X142475200Y-97699756D01*
X142181449Y-97406005D01*
X141745911Y-97225600D01*
X141507607Y-97225600D01*
X141831607Y-96901600D01*
X142501950Y-96901600D01*
X142633950Y-97033600D01*
X143983200Y-97033600D01*
X143983200Y-97013600D01*
X144237200Y-97013600D01*
X144237200Y-97033600D01*
X145586450Y-97033600D01*
X145718450Y-96901600D01*
X145874376Y-96901600D01*
X145946760Y-96915998D01*
X146019144Y-96901600D01*
X146019148Y-96901600D01*
X146233543Y-96858954D01*
X146476665Y-96696505D01*
X146517671Y-96635135D01*
X146886207Y-96266600D01*
X148864149Y-96266600D01*
X148840160Y-96387200D01*
G04 #@! TD*
M02*
