G04 #@! TF.GenerationSoftware,KiCad,Pcbnew,(6.0.0-rc1-dev-438-g6845ac2cc-dirty)*
G04 #@! TF.CreationDate,2018-08-30T21:51:26+02:00*
G04 #@! TF.ProjectId,RapTorS,526170546F72532E6B696361645F7063,rev?*
G04 #@! TF.SameCoordinates,Original*
G04 #@! TF.FileFunction,Legend,Bot*
G04 #@! TF.FilePolarity,Positive*
%FSLAX46Y46*%
G04 Gerber Fmt 4.6, Leading zero omitted, Abs format (unit mm)*
G04 Created by KiCad (PCBNEW (6.0.0-rc1-dev-438-g6845ac2cc-dirty)) date 2018 August 30, Thursday 21:51:26*
%MOMM*%
%LPD*%
G01*
G04 APERTURE LIST*
%ADD10C,0.120000*%
%ADD11C,0.010000*%
G04 APERTURE END LIST*
D10*
X146177000Y-92735400D02*
X146202400Y-92583000D01*
X146329400Y-92633800D02*
X146177000Y-92735400D01*
X146126200Y-92430600D02*
X146329400Y-92633800D01*
X146100800Y-92887800D02*
X146126200Y-92430600D01*
X146456400Y-92633800D02*
X146100800Y-92887800D01*
X146050000Y-92252800D02*
X146456400Y-92633800D01*
X146024600Y-93040200D02*
X146050000Y-92252800D01*
X146608800Y-92633800D02*
X146024600Y-93040200D01*
X145948400Y-93218000D02*
X146608800Y-92633800D01*
X145948400Y-92125800D02*
X145948400Y-93218000D01*
X146608800Y-92633800D02*
X145948400Y-92125800D01*
D11*
G04 #@! TO.C,G\002A\002A\002A*
G36*
X149949572Y-98702546D02*
X150340097Y-99117150D01*
X151510769Y-99117149D01*
X151829044Y-99117585D01*
X152089863Y-99119034D01*
X152299264Y-99121711D01*
X152463286Y-99125833D01*
X152587967Y-99131612D01*
X152679346Y-99139265D01*
X152743463Y-99149006D01*
X152786354Y-99161050D01*
X152790415Y-99162682D01*
X152887164Y-99232691D01*
X152931131Y-99335504D01*
X152927993Y-99423403D01*
X152916971Y-99459060D01*
X152894962Y-99487995D01*
X152855874Y-99510906D01*
X152793617Y-99528490D01*
X152702098Y-99541445D01*
X152575227Y-99550468D01*
X152406913Y-99556257D01*
X152191063Y-99559509D01*
X151921588Y-99560923D01*
X151724794Y-99561181D01*
X151435183Y-99562425D01*
X151170190Y-99565738D01*
X150937447Y-99570902D01*
X150744586Y-99577698D01*
X150599239Y-99585906D01*
X150509039Y-99595307D01*
X150503696Y-99596240D01*
X150302583Y-99650559D01*
X150127277Y-99731100D01*
X149992601Y-99830187D01*
X149943750Y-99886210D01*
X149907253Y-99945412D01*
X149885016Y-100009304D01*
X149873701Y-100095491D01*
X149869969Y-100221576D01*
X149869833Y-100276025D01*
X149872893Y-100427052D01*
X149884739Y-100538905D01*
X149909947Y-100635768D01*
X149953094Y-100741828D01*
X149961446Y-100760132D01*
X150081444Y-100963285D01*
X150240585Y-101130162D01*
X150445716Y-101266288D01*
X150703685Y-101377187D01*
X150742650Y-101390434D01*
X150785431Y-101403136D01*
X150834499Y-101413933D01*
X150895322Y-101423023D01*
X150973368Y-101430604D01*
X151074103Y-101436872D01*
X151202996Y-101442027D01*
X151365514Y-101446265D01*
X151567124Y-101449785D01*
X151813294Y-101452784D01*
X152109492Y-101455459D01*
X152461185Y-101458008D01*
X152644763Y-101459204D01*
X154372250Y-101470185D01*
X154115846Y-101190605D01*
X153998974Y-101064598D01*
X153882152Y-100941084D01*
X153780656Y-100836089D01*
X153721718Y-100777128D01*
X153583992Y-100643231D01*
X150959354Y-100625275D01*
X150881009Y-100534166D01*
X150821894Y-100432665D01*
X150816927Y-100337535D01*
X150865259Y-100261141D01*
X150901400Y-100237541D01*
X150943523Y-100225598D01*
X151020816Y-100216009D01*
X151138206Y-100208594D01*
X151300617Y-100203176D01*
X151512976Y-100199577D01*
X151780210Y-100197618D01*
X152019025Y-100197118D01*
X152339959Y-100196296D01*
X152604829Y-100193671D01*
X152821063Y-100188530D01*
X152996087Y-100180159D01*
X153137329Y-100167845D01*
X153252215Y-100150875D01*
X153348174Y-100128534D01*
X153432630Y-100100111D01*
X153513013Y-100064891D01*
X153541456Y-100050878D01*
X153700391Y-99945576D01*
X153807899Y-99812511D01*
X153867106Y-99645397D01*
X153881136Y-99437948D01*
X153877614Y-99374595D01*
X153830190Y-99115168D01*
X153730081Y-98889570D01*
X153576562Y-98696969D01*
X153368904Y-98536534D01*
X153106380Y-98407433D01*
X152996900Y-98368005D01*
X152952818Y-98354960D01*
X152902224Y-98343923D01*
X152839464Y-98334677D01*
X152758882Y-98327007D01*
X152654820Y-98320697D01*
X152521623Y-98315532D01*
X152353635Y-98311294D01*
X152145200Y-98307770D01*
X151890661Y-98304743D01*
X151584362Y-98301997D01*
X151220646Y-98299316D01*
X151190662Y-98299110D01*
X149559048Y-98287942D01*
X149949572Y-98702546D01*
X149949572Y-98702546D01*
G37*
X149949572Y-98702546D02*
X150340097Y-99117150D01*
X151510769Y-99117149D01*
X151829044Y-99117585D01*
X152089863Y-99119034D01*
X152299264Y-99121711D01*
X152463286Y-99125833D01*
X152587967Y-99131612D01*
X152679346Y-99139265D01*
X152743463Y-99149006D01*
X152786354Y-99161050D01*
X152790415Y-99162682D01*
X152887164Y-99232691D01*
X152931131Y-99335504D01*
X152927993Y-99423403D01*
X152916971Y-99459060D01*
X152894962Y-99487995D01*
X152855874Y-99510906D01*
X152793617Y-99528490D01*
X152702098Y-99541445D01*
X152575227Y-99550468D01*
X152406913Y-99556257D01*
X152191063Y-99559509D01*
X151921588Y-99560923D01*
X151724794Y-99561181D01*
X151435183Y-99562425D01*
X151170190Y-99565738D01*
X150937447Y-99570902D01*
X150744586Y-99577698D01*
X150599239Y-99585906D01*
X150509039Y-99595307D01*
X150503696Y-99596240D01*
X150302583Y-99650559D01*
X150127277Y-99731100D01*
X149992601Y-99830187D01*
X149943750Y-99886210D01*
X149907253Y-99945412D01*
X149885016Y-100009304D01*
X149873701Y-100095491D01*
X149869969Y-100221576D01*
X149869833Y-100276025D01*
X149872893Y-100427052D01*
X149884739Y-100538905D01*
X149909947Y-100635768D01*
X149953094Y-100741828D01*
X149961446Y-100760132D01*
X150081444Y-100963285D01*
X150240585Y-101130162D01*
X150445716Y-101266288D01*
X150703685Y-101377187D01*
X150742650Y-101390434D01*
X150785431Y-101403136D01*
X150834499Y-101413933D01*
X150895322Y-101423023D01*
X150973368Y-101430604D01*
X151074103Y-101436872D01*
X151202996Y-101442027D01*
X151365514Y-101446265D01*
X151567124Y-101449785D01*
X151813294Y-101452784D01*
X152109492Y-101455459D01*
X152461185Y-101458008D01*
X152644763Y-101459204D01*
X154372250Y-101470185D01*
X154115846Y-101190605D01*
X153998974Y-101064598D01*
X153882152Y-100941084D01*
X153780656Y-100836089D01*
X153721718Y-100777128D01*
X153583992Y-100643231D01*
X150959354Y-100625275D01*
X150881009Y-100534166D01*
X150821894Y-100432665D01*
X150816927Y-100337535D01*
X150865259Y-100261141D01*
X150901400Y-100237541D01*
X150943523Y-100225598D01*
X151020816Y-100216009D01*
X151138206Y-100208594D01*
X151300617Y-100203176D01*
X151512976Y-100199577D01*
X151780210Y-100197618D01*
X152019025Y-100197118D01*
X152339959Y-100196296D01*
X152604829Y-100193671D01*
X152821063Y-100188530D01*
X152996087Y-100180159D01*
X153137329Y-100167845D01*
X153252215Y-100150875D01*
X153348174Y-100128534D01*
X153432630Y-100100111D01*
X153513013Y-100064891D01*
X153541456Y-100050878D01*
X153700391Y-99945576D01*
X153807899Y-99812511D01*
X153867106Y-99645397D01*
X153881136Y-99437948D01*
X153877614Y-99374595D01*
X153830190Y-99115168D01*
X153730081Y-98889570D01*
X153576562Y-98696969D01*
X153368904Y-98536534D01*
X153106380Y-98407433D01*
X152996900Y-98368005D01*
X152952818Y-98354960D01*
X152902224Y-98343923D01*
X152839464Y-98334677D01*
X152758882Y-98327007D01*
X152654820Y-98320697D01*
X152521623Y-98315532D01*
X152353635Y-98311294D01*
X152145200Y-98307770D01*
X151890661Y-98304743D01*
X151584362Y-98301997D01*
X151220646Y-98299316D01*
X151190662Y-98299110D01*
X149559048Y-98287942D01*
X149949572Y-98702546D01*
G36*
X156570513Y-98300037D02*
X156233273Y-98303824D01*
X155952599Y-98307963D01*
X155721558Y-98313192D01*
X155533216Y-98320248D01*
X155380640Y-98329871D01*
X155256898Y-98342797D01*
X155155056Y-98359765D01*
X155068181Y-98381512D01*
X154989340Y-98408776D01*
X154911600Y-98442294D01*
X154828028Y-98482805D01*
X154821244Y-98486190D01*
X154682505Y-98576932D01*
X154552789Y-98699326D01*
X154449074Y-98834770D01*
X154390108Y-98958539D01*
X154373970Y-99050725D01*
X154365843Y-99178240D01*
X154367407Y-99311144D01*
X154412071Y-99576160D01*
X154513581Y-99818991D01*
X154667578Y-100034364D01*
X154869702Y-100217005D01*
X155115593Y-100361639D01*
X155293844Y-100431798D01*
X155318816Y-100447296D01*
X155316417Y-100476556D01*
X155281589Y-100530023D01*
X155209279Y-100618141D01*
X155196277Y-100633369D01*
X155096764Y-100751434D01*
X154987987Y-100883469D01*
X154877326Y-101020154D01*
X154772158Y-101152168D01*
X154679862Y-101270189D01*
X154607815Y-101364898D01*
X154563396Y-101426972D01*
X154552650Y-101446465D01*
X154582834Y-101452534D01*
X154667120Y-101457871D01*
X154796112Y-101462187D01*
X154960416Y-101465189D01*
X155150634Y-101466586D01*
X155202426Y-101466650D01*
X155852201Y-101466650D01*
X156130315Y-101053900D01*
X156408428Y-100641149D01*
X157163289Y-100641150D01*
X157374755Y-100641468D01*
X157563510Y-100642363D01*
X157720807Y-100643743D01*
X157837902Y-100645515D01*
X157906049Y-100647589D01*
X157919967Y-100649087D01*
X157925940Y-100681498D01*
X157940958Y-100764354D01*
X157962840Y-100885601D01*
X157989408Y-101033182D01*
X157993134Y-101053900D01*
X158064484Y-101450775D01*
X158563626Y-101459522D01*
X159062767Y-101468270D01*
X159046630Y-101396022D01*
X159036486Y-101343717D01*
X159017486Y-101239421D01*
X158991516Y-101093732D01*
X158960461Y-100917243D01*
X158926205Y-100720551D01*
X158917957Y-100672900D01*
X158883073Y-100471806D01*
X158850850Y-100287294D01*
X158823210Y-100130266D01*
X158802074Y-100011622D01*
X158789361Y-99942264D01*
X158787887Y-99934712D01*
X158770355Y-99847400D01*
X157320315Y-99847222D01*
X156944899Y-99846414D01*
X156614525Y-99844129D01*
X156332316Y-99840435D01*
X156101395Y-99835397D01*
X155924884Y-99829084D01*
X155805907Y-99821561D01*
X155750345Y-99813740D01*
X155629310Y-99760606D01*
X155517148Y-99678208D01*
X155432201Y-99582615D01*
X155394945Y-99502335D01*
X155396469Y-99371746D01*
X155454134Y-99255365D01*
X155526098Y-99190247D01*
X155550428Y-99176902D01*
X155582977Y-99165658D01*
X155629342Y-99156256D01*
X155695120Y-99148443D01*
X155785908Y-99141960D01*
X155907304Y-99136551D01*
X156064906Y-99131961D01*
X156264310Y-99127931D01*
X156511113Y-99124207D01*
X156810915Y-99120532D01*
X157121537Y-99117150D01*
X158629695Y-99101275D01*
X157842251Y-98286705D01*
X156570513Y-98300037D01*
X156570513Y-98300037D01*
G37*
X156570513Y-98300037D02*
X156233273Y-98303824D01*
X155952599Y-98307963D01*
X155721558Y-98313192D01*
X155533216Y-98320248D01*
X155380640Y-98329871D01*
X155256898Y-98342797D01*
X155155056Y-98359765D01*
X155068181Y-98381512D01*
X154989340Y-98408776D01*
X154911600Y-98442294D01*
X154828028Y-98482805D01*
X154821244Y-98486190D01*
X154682505Y-98576932D01*
X154552789Y-98699326D01*
X154449074Y-98834770D01*
X154390108Y-98958539D01*
X154373970Y-99050725D01*
X154365843Y-99178240D01*
X154367407Y-99311144D01*
X154412071Y-99576160D01*
X154513581Y-99818991D01*
X154667578Y-100034364D01*
X154869702Y-100217005D01*
X155115593Y-100361639D01*
X155293844Y-100431798D01*
X155318816Y-100447296D01*
X155316417Y-100476556D01*
X155281589Y-100530023D01*
X155209279Y-100618141D01*
X155196277Y-100633369D01*
X155096764Y-100751434D01*
X154987987Y-100883469D01*
X154877326Y-101020154D01*
X154772158Y-101152168D01*
X154679862Y-101270189D01*
X154607815Y-101364898D01*
X154563396Y-101426972D01*
X154552650Y-101446465D01*
X154582834Y-101452534D01*
X154667120Y-101457871D01*
X154796112Y-101462187D01*
X154960416Y-101465189D01*
X155150634Y-101466586D01*
X155202426Y-101466650D01*
X155852201Y-101466650D01*
X156130315Y-101053900D01*
X156408428Y-100641149D01*
X157163289Y-100641150D01*
X157374755Y-100641468D01*
X157563510Y-100642363D01*
X157720807Y-100643743D01*
X157837902Y-100645515D01*
X157906049Y-100647589D01*
X157919967Y-100649087D01*
X157925940Y-100681498D01*
X157940958Y-100764354D01*
X157962840Y-100885601D01*
X157989408Y-101033182D01*
X157993134Y-101053900D01*
X158064484Y-101450775D01*
X158563626Y-101459522D01*
X159062767Y-101468270D01*
X159046630Y-101396022D01*
X159036486Y-101343717D01*
X159017486Y-101239421D01*
X158991516Y-101093732D01*
X158960461Y-100917243D01*
X158926205Y-100720551D01*
X158917957Y-100672900D01*
X158883073Y-100471806D01*
X158850850Y-100287294D01*
X158823210Y-100130266D01*
X158802074Y-100011622D01*
X158789361Y-99942264D01*
X158787887Y-99934712D01*
X158770355Y-99847400D01*
X157320315Y-99847222D01*
X156944899Y-99846414D01*
X156614525Y-99844129D01*
X156332316Y-99840435D01*
X156101395Y-99835397D01*
X155924884Y-99829084D01*
X155805907Y-99821561D01*
X155750345Y-99813740D01*
X155629310Y-99760606D01*
X155517148Y-99678208D01*
X155432201Y-99582615D01*
X155394945Y-99502335D01*
X155396469Y-99371746D01*
X155454134Y-99255365D01*
X155526098Y-99190247D01*
X155550428Y-99176902D01*
X155582977Y-99165658D01*
X155629342Y-99156256D01*
X155695120Y-99148443D01*
X155785908Y-99141960D01*
X155907304Y-99136551D01*
X156064906Y-99131961D01*
X156264310Y-99127931D01*
X156511113Y-99124207D01*
X156810915Y-99120532D01*
X157121537Y-99117150D01*
X158629695Y-99101275D01*
X157842251Y-98286705D01*
X156570513Y-98300037D01*
G36*
X165204121Y-98299323D02*
X163400258Y-98307525D01*
X163778642Y-98710429D01*
X164157025Y-99113334D01*
X164736463Y-99115242D01*
X164920364Y-99117049D01*
X165080204Y-99120915D01*
X165206033Y-99126409D01*
X165287901Y-99133103D01*
X165315900Y-99140285D01*
X165321260Y-99178418D01*
X165336316Y-99270352D01*
X165359534Y-99407391D01*
X165389380Y-99580838D01*
X165424320Y-99781995D01*
X165462820Y-100002166D01*
X165503345Y-100232654D01*
X165544361Y-100464762D01*
X165584333Y-100689791D01*
X165621729Y-100899047D01*
X165655013Y-101083830D01*
X165682652Y-101235445D01*
X165703110Y-101345194D01*
X165714854Y-101404380D01*
X165716482Y-101411087D01*
X165728430Y-101432296D01*
X165755992Y-101447352D01*
X165808610Y-101457287D01*
X165895729Y-101463128D01*
X166026794Y-101465905D01*
X166211249Y-101466647D01*
X166226357Y-101466650D01*
X166719784Y-101466650D01*
X166702594Y-101395212D01*
X166693087Y-101347330D01*
X166674161Y-101244938D01*
X166647258Y-101096088D01*
X166613819Y-100908834D01*
X166575285Y-100691230D01*
X166533097Y-100451329D01*
X166507982Y-100307775D01*
X166464268Y-100057877D01*
X166423369Y-99824885D01*
X166386738Y-99617012D01*
X166355827Y-99442471D01*
X166332090Y-99309477D01*
X166316978Y-99226242D01*
X166312832Y-99204462D01*
X166295105Y-99117150D01*
X167030524Y-99117150D01*
X167238240Y-99116028D01*
X167422317Y-99112882D01*
X167574091Y-99108037D01*
X167684899Y-99101820D01*
X167746079Y-99094558D01*
X167755359Y-99089827D01*
X167730882Y-99058812D01*
X167669824Y-98990255D01*
X167579681Y-98892324D01*
X167467948Y-98773187D01*
X167376379Y-98676813D01*
X167007983Y-98291121D01*
X165204121Y-98299323D01*
X165204121Y-98299323D01*
G37*
X165204121Y-98299323D02*
X163400258Y-98307525D01*
X163778642Y-98710429D01*
X164157025Y-99113334D01*
X164736463Y-99115242D01*
X164920364Y-99117049D01*
X165080204Y-99120915D01*
X165206033Y-99126409D01*
X165287901Y-99133103D01*
X165315900Y-99140285D01*
X165321260Y-99178418D01*
X165336316Y-99270352D01*
X165359534Y-99407391D01*
X165389380Y-99580838D01*
X165424320Y-99781995D01*
X165462820Y-100002166D01*
X165503345Y-100232654D01*
X165544361Y-100464762D01*
X165584333Y-100689791D01*
X165621729Y-100899047D01*
X165655013Y-101083830D01*
X165682652Y-101235445D01*
X165703110Y-101345194D01*
X165714854Y-101404380D01*
X165716482Y-101411087D01*
X165728430Y-101432296D01*
X165755992Y-101447352D01*
X165808610Y-101457287D01*
X165895729Y-101463128D01*
X166026794Y-101465905D01*
X166211249Y-101466647D01*
X166226357Y-101466650D01*
X166719784Y-101466650D01*
X166702594Y-101395212D01*
X166693087Y-101347330D01*
X166674161Y-101244938D01*
X166647258Y-101096088D01*
X166613819Y-100908834D01*
X166575285Y-100691230D01*
X166533097Y-100451329D01*
X166507982Y-100307775D01*
X166464268Y-100057877D01*
X166423369Y-99824885D01*
X166386738Y-99617012D01*
X166355827Y-99442471D01*
X166332090Y-99309477D01*
X166316978Y-99226242D01*
X166312832Y-99204462D01*
X166295105Y-99117150D01*
X167030524Y-99117150D01*
X167238240Y-99116028D01*
X167422317Y-99112882D01*
X167574091Y-99108037D01*
X167684899Y-99101820D01*
X167746079Y-99094558D01*
X167755359Y-99089827D01*
X167730882Y-99058812D01*
X167669824Y-98990255D01*
X167579681Y-98892324D01*
X167467948Y-98773187D01*
X167376379Y-98676813D01*
X167007983Y-98291121D01*
X165204121Y-98299323D01*
G36*
X170305304Y-98292201D02*
X169970622Y-98293082D01*
X169693452Y-98295504D01*
X169467819Y-98299668D01*
X169287749Y-98305775D01*
X169147269Y-98314026D01*
X169040403Y-98324622D01*
X168962989Y-98337377D01*
X168683800Y-98419907D01*
X168455838Y-98537766D01*
X168280017Y-98689984D01*
X168157251Y-98875590D01*
X168088453Y-99093612D01*
X168072831Y-99282919D01*
X168102927Y-99568096D01*
X168189441Y-99826480D01*
X168330211Y-100055794D01*
X168523079Y-100253759D01*
X168765884Y-100418099D01*
X169056466Y-100546536D01*
X169348150Y-100627662D01*
X169436501Y-100641854D01*
X169558068Y-100653051D01*
X169718745Y-100661473D01*
X169924430Y-100667343D01*
X170181019Y-100670880D01*
X170494406Y-100672306D01*
X170540282Y-100672348D01*
X171526038Y-100672900D01*
X171582380Y-101014212D01*
X171606912Y-101159297D01*
X171629216Y-101284887D01*
X171646456Y-101375350D01*
X171654451Y-101411087D01*
X171666130Y-101432345D01*
X171693493Y-101447420D01*
X171745998Y-101457350D01*
X171833102Y-101463172D01*
X171964266Y-101465926D01*
X172148947Y-101466648D01*
X172160770Y-101466650D01*
X172651360Y-101466650D01*
X172635427Y-101395212D01*
X172625346Y-101343162D01*
X172606405Y-101239107D01*
X172580484Y-101093625D01*
X172549465Y-100917294D01*
X172515230Y-100720695D01*
X172506957Y-100672900D01*
X172472073Y-100471806D01*
X172439850Y-100287294D01*
X172412210Y-100130266D01*
X172391074Y-100011622D01*
X172378361Y-99942264D01*
X172376887Y-99934712D01*
X172359355Y-99847400D01*
X170909315Y-99846702D01*
X170565976Y-99846393D01*
X170280213Y-99845674D01*
X170046105Y-99844320D01*
X169857728Y-99842107D01*
X169709159Y-99838810D01*
X169594476Y-99834202D01*
X169507756Y-99828061D01*
X169443076Y-99820159D01*
X169394513Y-99810273D01*
X169356144Y-99798177D01*
X169328545Y-99786638D01*
X169198036Y-99701862D01*
X169111989Y-99593574D01*
X169072326Y-99473621D01*
X169080970Y-99353851D01*
X169139845Y-99246114D01*
X169229088Y-99173829D01*
X169262954Y-99163409D01*
X169328456Y-99154317D01*
X169429939Y-99146389D01*
X169571750Y-99139466D01*
X169758233Y-99133387D01*
X169993735Y-99127990D01*
X170282602Y-99123114D01*
X170629179Y-99118598D01*
X170757804Y-99117150D01*
X172215083Y-99101275D01*
X171826083Y-98696462D01*
X171437082Y-98291649D01*
X170305304Y-98292201D01*
X170305304Y-98292201D01*
G37*
X170305304Y-98292201D02*
X169970622Y-98293082D01*
X169693452Y-98295504D01*
X169467819Y-98299668D01*
X169287749Y-98305775D01*
X169147269Y-98314026D01*
X169040403Y-98324622D01*
X168962989Y-98337377D01*
X168683800Y-98419907D01*
X168455838Y-98537766D01*
X168280017Y-98689984D01*
X168157251Y-98875590D01*
X168088453Y-99093612D01*
X168072831Y-99282919D01*
X168102927Y-99568096D01*
X168189441Y-99826480D01*
X168330211Y-100055794D01*
X168523079Y-100253759D01*
X168765884Y-100418099D01*
X169056466Y-100546536D01*
X169348150Y-100627662D01*
X169436501Y-100641854D01*
X169558068Y-100653051D01*
X169718745Y-100661473D01*
X169924430Y-100667343D01*
X170181019Y-100670880D01*
X170494406Y-100672306D01*
X170540282Y-100672348D01*
X171526038Y-100672900D01*
X171582380Y-101014212D01*
X171606912Y-101159297D01*
X171629216Y-101284887D01*
X171646456Y-101375350D01*
X171654451Y-101411087D01*
X171666130Y-101432345D01*
X171693493Y-101447420D01*
X171745998Y-101457350D01*
X171833102Y-101463172D01*
X171964266Y-101465926D01*
X172148947Y-101466648D01*
X172160770Y-101466650D01*
X172651360Y-101466650D01*
X172635427Y-101395212D01*
X172625346Y-101343162D01*
X172606405Y-101239107D01*
X172580484Y-101093625D01*
X172549465Y-100917294D01*
X172515230Y-100720695D01*
X172506957Y-100672900D01*
X172472073Y-100471806D01*
X172439850Y-100287294D01*
X172412210Y-100130266D01*
X172391074Y-100011622D01*
X172378361Y-99942264D01*
X172376887Y-99934712D01*
X172359355Y-99847400D01*
X170909315Y-99846702D01*
X170565976Y-99846393D01*
X170280213Y-99845674D01*
X170046105Y-99844320D01*
X169857728Y-99842107D01*
X169709159Y-99838810D01*
X169594476Y-99834202D01*
X169507756Y-99828061D01*
X169443076Y-99820159D01*
X169394513Y-99810273D01*
X169356144Y-99798177D01*
X169328545Y-99786638D01*
X169198036Y-99701862D01*
X169111989Y-99593574D01*
X169072326Y-99473621D01*
X169080970Y-99353851D01*
X169139845Y-99246114D01*
X169229088Y-99173829D01*
X169262954Y-99163409D01*
X169328456Y-99154317D01*
X169429939Y-99146389D01*
X169571750Y-99139466D01*
X169758233Y-99133387D01*
X169993735Y-99127990D01*
X170282602Y-99123114D01*
X170629179Y-99118598D01*
X170757804Y-99117150D01*
X172215083Y-99101275D01*
X171826083Y-98696462D01*
X171437082Y-98291649D01*
X170305304Y-98292201D01*
G36*
X174887835Y-98277800D02*
X174721325Y-98341995D01*
X174581348Y-98456038D01*
X174532771Y-98518607D01*
X174498771Y-98575192D01*
X174441207Y-98678211D01*
X174363398Y-98821280D01*
X174268663Y-98998011D01*
X174160323Y-99202019D01*
X174041695Y-99426917D01*
X173916100Y-99666320D01*
X173786857Y-99913840D01*
X173657285Y-100163093D01*
X173530704Y-100407692D01*
X173410433Y-100641251D01*
X173299791Y-100857383D01*
X173202097Y-101049703D01*
X173120671Y-101211825D01*
X173058833Y-101337362D01*
X173019902Y-101419929D01*
X173007196Y-101453138D01*
X173007331Y-101453413D01*
X173040714Y-101455792D01*
X173131937Y-101457762D01*
X173275338Y-101459305D01*
X173465259Y-101460406D01*
X173696039Y-101461046D01*
X173962019Y-101461210D01*
X174257538Y-101460878D01*
X174576937Y-101460036D01*
X174848048Y-101458972D01*
X176675009Y-101450775D01*
X176311496Y-101045962D01*
X175947982Y-100641150D01*
X174596017Y-100641150D01*
X174892905Y-100077587D01*
X174984756Y-99902216D01*
X175066907Y-99743442D01*
X175134518Y-99610776D01*
X175182750Y-99513725D01*
X175206763Y-99461801D01*
X175207986Y-99458462D01*
X175233338Y-99411805D01*
X175247853Y-99403211D01*
X175272870Y-99426215D01*
X175335645Y-99491875D01*
X175431772Y-99595369D01*
X175556846Y-99731873D01*
X175706460Y-99896562D01*
X175876208Y-100084613D01*
X176061685Y-100291202D01*
X176190275Y-100435027D01*
X177111025Y-101466531D01*
X177696403Y-101466590D01*
X178281781Y-101466650D01*
X178201719Y-101379337D01*
X178166048Y-101339689D01*
X178092343Y-101257164D01*
X177984717Y-101136383D01*
X177847279Y-100981968D01*
X177684141Y-100798540D01*
X177499414Y-100590722D01*
X177297208Y-100363135D01*
X177081634Y-100120400D01*
X176937920Y-99958525D01*
X176714791Y-99707594D01*
X176501283Y-99468302D01*
X176301650Y-99245363D01*
X176120149Y-99043493D01*
X175961035Y-98867405D01*
X175828563Y-98721814D01*
X175726989Y-98611435D01*
X175660569Y-98540981D01*
X175638854Y-98519368D01*
X175456387Y-98384236D01*
X175264384Y-98298926D01*
X175071860Y-98263445D01*
X174887835Y-98277800D01*
X174887835Y-98277800D01*
G37*
X174887835Y-98277800D02*
X174721325Y-98341995D01*
X174581348Y-98456038D01*
X174532771Y-98518607D01*
X174498771Y-98575192D01*
X174441207Y-98678211D01*
X174363398Y-98821280D01*
X174268663Y-98998011D01*
X174160323Y-99202019D01*
X174041695Y-99426917D01*
X173916100Y-99666320D01*
X173786857Y-99913840D01*
X173657285Y-100163093D01*
X173530704Y-100407692D01*
X173410433Y-100641251D01*
X173299791Y-100857383D01*
X173202097Y-101049703D01*
X173120671Y-101211825D01*
X173058833Y-101337362D01*
X173019902Y-101419929D01*
X173007196Y-101453138D01*
X173007331Y-101453413D01*
X173040714Y-101455792D01*
X173131937Y-101457762D01*
X173275338Y-101459305D01*
X173465259Y-101460406D01*
X173696039Y-101461046D01*
X173962019Y-101461210D01*
X174257538Y-101460878D01*
X174576937Y-101460036D01*
X174848048Y-101458972D01*
X176675009Y-101450775D01*
X176311496Y-101045962D01*
X175947982Y-100641150D01*
X174596017Y-100641150D01*
X174892905Y-100077587D01*
X174984756Y-99902216D01*
X175066907Y-99743442D01*
X175134518Y-99610776D01*
X175182750Y-99513725D01*
X175206763Y-99461801D01*
X175207986Y-99458462D01*
X175233338Y-99411805D01*
X175247853Y-99403211D01*
X175272870Y-99426215D01*
X175335645Y-99491875D01*
X175431772Y-99595369D01*
X175556846Y-99731873D01*
X175706460Y-99896562D01*
X175876208Y-100084613D01*
X176061685Y-100291202D01*
X176190275Y-100435027D01*
X177111025Y-101466531D01*
X177696403Y-101466590D01*
X178281781Y-101466650D01*
X178201719Y-101379337D01*
X178166048Y-101339689D01*
X178092343Y-101257164D01*
X177984717Y-101136383D01*
X177847279Y-100981968D01*
X177684141Y-100798540D01*
X177499414Y-100590722D01*
X177297208Y-100363135D01*
X177081634Y-100120400D01*
X176937920Y-99958525D01*
X176714791Y-99707594D01*
X176501283Y-99468302D01*
X176301650Y-99245363D01*
X176120149Y-99043493D01*
X175961035Y-98867405D01*
X175828563Y-98721814D01*
X175726989Y-98611435D01*
X175660569Y-98540981D01*
X175638854Y-98519368D01*
X175456387Y-98384236D01*
X175264384Y-98298926D01*
X175071860Y-98263445D01*
X174887835Y-98277800D01*
G36*
X180414763Y-98300037D02*
X180077523Y-98303824D01*
X179796849Y-98307963D01*
X179565808Y-98313192D01*
X179377466Y-98320248D01*
X179224890Y-98329871D01*
X179101148Y-98342797D01*
X178999306Y-98359765D01*
X178912431Y-98381512D01*
X178833590Y-98408776D01*
X178755850Y-98442294D01*
X178672278Y-98482805D01*
X178665494Y-98486190D01*
X178526755Y-98576932D01*
X178397039Y-98699326D01*
X178293324Y-98834770D01*
X178234358Y-98958539D01*
X178218220Y-99050725D01*
X178210093Y-99178240D01*
X178211657Y-99311144D01*
X178256321Y-99576160D01*
X178357831Y-99818991D01*
X178511828Y-100034364D01*
X178713952Y-100217005D01*
X178959843Y-100361639D01*
X179138094Y-100431798D01*
X179163066Y-100447296D01*
X179160667Y-100476556D01*
X179125839Y-100530023D01*
X179053529Y-100618141D01*
X179040527Y-100633369D01*
X178941014Y-100751434D01*
X178832237Y-100883469D01*
X178721576Y-101020154D01*
X178616408Y-101152168D01*
X178524112Y-101270189D01*
X178452065Y-101364898D01*
X178407646Y-101426972D01*
X178396900Y-101446465D01*
X178427084Y-101452534D01*
X178511370Y-101457871D01*
X178640362Y-101462187D01*
X178804666Y-101465189D01*
X178994884Y-101466586D01*
X179046676Y-101466650D01*
X179696451Y-101466650D01*
X179974565Y-101053900D01*
X180252678Y-100641149D01*
X181007539Y-100641150D01*
X181219005Y-100641468D01*
X181407760Y-100642363D01*
X181565057Y-100643743D01*
X181682152Y-100645515D01*
X181750299Y-100647589D01*
X181764217Y-100649087D01*
X181770190Y-100681498D01*
X181785208Y-100764354D01*
X181807090Y-100885601D01*
X181833658Y-101033182D01*
X181837384Y-101053900D01*
X181908734Y-101450775D01*
X182407876Y-101459522D01*
X182907017Y-101468270D01*
X182890880Y-101396022D01*
X182880736Y-101343717D01*
X182861736Y-101239421D01*
X182835766Y-101093732D01*
X182804711Y-100917243D01*
X182770455Y-100720551D01*
X182762207Y-100672900D01*
X182727323Y-100471806D01*
X182695100Y-100287294D01*
X182667460Y-100130266D01*
X182646324Y-100011622D01*
X182633611Y-99942264D01*
X182632137Y-99934712D01*
X182614605Y-99847400D01*
X181164565Y-99847222D01*
X180789149Y-99846414D01*
X180458775Y-99844129D01*
X180176566Y-99840435D01*
X179945645Y-99835397D01*
X179769134Y-99829084D01*
X179650157Y-99821561D01*
X179594595Y-99813740D01*
X179473560Y-99760606D01*
X179361398Y-99678208D01*
X179276451Y-99582615D01*
X179239195Y-99502335D01*
X179240719Y-99371746D01*
X179298384Y-99255365D01*
X179370348Y-99190247D01*
X179394678Y-99176902D01*
X179427227Y-99165658D01*
X179473592Y-99156256D01*
X179539370Y-99148443D01*
X179630158Y-99141960D01*
X179751554Y-99136551D01*
X179909156Y-99131961D01*
X180108560Y-99127931D01*
X180355363Y-99124207D01*
X180655165Y-99120532D01*
X180965787Y-99117150D01*
X182473945Y-99101275D01*
X181686501Y-98286705D01*
X180414763Y-98300037D01*
X180414763Y-98300037D01*
G37*
X180414763Y-98300037D02*
X180077523Y-98303824D01*
X179796849Y-98307963D01*
X179565808Y-98313192D01*
X179377466Y-98320248D01*
X179224890Y-98329871D01*
X179101148Y-98342797D01*
X178999306Y-98359765D01*
X178912431Y-98381512D01*
X178833590Y-98408776D01*
X178755850Y-98442294D01*
X178672278Y-98482805D01*
X178665494Y-98486190D01*
X178526755Y-98576932D01*
X178397039Y-98699326D01*
X178293324Y-98834770D01*
X178234358Y-98958539D01*
X178218220Y-99050725D01*
X178210093Y-99178240D01*
X178211657Y-99311144D01*
X178256321Y-99576160D01*
X178357831Y-99818991D01*
X178511828Y-100034364D01*
X178713952Y-100217005D01*
X178959843Y-100361639D01*
X179138094Y-100431798D01*
X179163066Y-100447296D01*
X179160667Y-100476556D01*
X179125839Y-100530023D01*
X179053529Y-100618141D01*
X179040527Y-100633369D01*
X178941014Y-100751434D01*
X178832237Y-100883469D01*
X178721576Y-101020154D01*
X178616408Y-101152168D01*
X178524112Y-101270189D01*
X178452065Y-101364898D01*
X178407646Y-101426972D01*
X178396900Y-101446465D01*
X178427084Y-101452534D01*
X178511370Y-101457871D01*
X178640362Y-101462187D01*
X178804666Y-101465189D01*
X178994884Y-101466586D01*
X179046676Y-101466650D01*
X179696451Y-101466650D01*
X179974565Y-101053900D01*
X180252678Y-100641149D01*
X181007539Y-100641150D01*
X181219005Y-100641468D01*
X181407760Y-100642363D01*
X181565057Y-100643743D01*
X181682152Y-100645515D01*
X181750299Y-100647589D01*
X181764217Y-100649087D01*
X181770190Y-100681498D01*
X181785208Y-100764354D01*
X181807090Y-100885601D01*
X181833658Y-101033182D01*
X181837384Y-101053900D01*
X181908734Y-101450775D01*
X182407876Y-101459522D01*
X182907017Y-101468270D01*
X182890880Y-101396022D01*
X182880736Y-101343717D01*
X182861736Y-101239421D01*
X182835766Y-101093732D01*
X182804711Y-100917243D01*
X182770455Y-100720551D01*
X182762207Y-100672900D01*
X182727323Y-100471806D01*
X182695100Y-100287294D01*
X182667460Y-100130266D01*
X182646324Y-100011622D01*
X182633611Y-99942264D01*
X182632137Y-99934712D01*
X182614605Y-99847400D01*
X181164565Y-99847222D01*
X180789149Y-99846414D01*
X180458775Y-99844129D01*
X180176566Y-99840435D01*
X179945645Y-99835397D01*
X179769134Y-99829084D01*
X179650157Y-99821561D01*
X179594595Y-99813740D01*
X179473560Y-99760606D01*
X179361398Y-99678208D01*
X179276451Y-99582615D01*
X179239195Y-99502335D01*
X179240719Y-99371746D01*
X179298384Y-99255365D01*
X179370348Y-99190247D01*
X179394678Y-99176902D01*
X179427227Y-99165658D01*
X179473592Y-99156256D01*
X179539370Y-99148443D01*
X179630158Y-99141960D01*
X179751554Y-99136551D01*
X179909156Y-99131961D01*
X180108560Y-99127931D01*
X180355363Y-99124207D01*
X180655165Y-99120532D01*
X180965787Y-99117150D01*
X182473945Y-99101275D01*
X181686501Y-98286705D01*
X180414763Y-98300037D01*
G36*
X160899367Y-98276067D02*
X160515265Y-98324087D01*
X160179736Y-98403382D01*
X159894380Y-98513286D01*
X159660799Y-98653131D01*
X159480593Y-98822251D01*
X159355363Y-99019978D01*
X159324801Y-99095860D01*
X159290752Y-99242693D01*
X159272293Y-99429349D01*
X159269720Y-99634022D01*
X159283331Y-99834905D01*
X159312430Y-100006150D01*
X159419249Y-100329529D01*
X159573156Y-100612750D01*
X159774626Y-100856083D01*
X160024137Y-101059795D01*
X160322166Y-101224157D01*
X160669188Y-101349437D01*
X161065682Y-101435904D01*
X161512123Y-101483827D01*
X161950400Y-101494294D01*
X162128752Y-101490322D01*
X162308280Y-101482561D01*
X162466272Y-101472194D01*
X162566447Y-101462243D01*
X162927288Y-101395988D01*
X163236662Y-101296702D01*
X163493640Y-101164908D01*
X163697291Y-101001131D01*
X163846683Y-100805894D01*
X163892627Y-100715539D01*
X163954344Y-100508346D01*
X163976666Y-100265544D01*
X163968390Y-100126773D01*
X162979683Y-100126773D01*
X162950931Y-100297588D01*
X162874794Y-100430892D01*
X162748274Y-100530307D01*
X162568372Y-100599455D01*
X162365363Y-100637905D01*
X162158634Y-100656567D01*
X161912799Y-100666180D01*
X161651613Y-100666701D01*
X161398828Y-100658086D01*
X161178198Y-100640291D01*
X161176596Y-100640108D01*
X161025818Y-100617014D01*
X160877944Y-100584635D01*
X160759903Y-100549088D01*
X160738652Y-100540614D01*
X160559853Y-100430675D01*
X160421793Y-100273456D01*
X160325583Y-100071296D01*
X160272334Y-99826533D01*
X160263159Y-99541507D01*
X160263213Y-99540273D01*
X160296120Y-99427034D01*
X160375196Y-99316046D01*
X160485259Y-99225951D01*
X160543481Y-99196082D01*
X160682426Y-99154722D01*
X160871441Y-99122695D01*
X161097690Y-99100663D01*
X161348338Y-99089286D01*
X161610550Y-99089223D01*
X161871489Y-99101136D01*
X162057455Y-99118191D01*
X162323250Y-99164033D01*
X162535424Y-99237446D01*
X162699727Y-99343483D01*
X162821914Y-99487200D01*
X162907736Y-99673651D01*
X162962945Y-99907892D01*
X162964050Y-99914825D01*
X162979683Y-100126773D01*
X163968390Y-100126773D01*
X163960847Y-100000309D01*
X163908139Y-99725816D01*
X163819797Y-99455241D01*
X163759816Y-99319691D01*
X163596065Y-99054120D01*
X163382323Y-98826903D01*
X163118448Y-98637978D01*
X162804298Y-98487284D01*
X162439731Y-98374758D01*
X162024603Y-98300339D01*
X161558773Y-98263963D01*
X161330443Y-98259989D01*
X160899367Y-98276067D01*
X160899367Y-98276067D01*
G37*
X160899367Y-98276067D02*
X160515265Y-98324087D01*
X160179736Y-98403382D01*
X159894380Y-98513286D01*
X159660799Y-98653131D01*
X159480593Y-98822251D01*
X159355363Y-99019978D01*
X159324801Y-99095860D01*
X159290752Y-99242693D01*
X159272293Y-99429349D01*
X159269720Y-99634022D01*
X159283331Y-99834905D01*
X159312430Y-100006150D01*
X159419249Y-100329529D01*
X159573156Y-100612750D01*
X159774626Y-100856083D01*
X160024137Y-101059795D01*
X160322166Y-101224157D01*
X160669188Y-101349437D01*
X161065682Y-101435904D01*
X161512123Y-101483827D01*
X161950400Y-101494294D01*
X162128752Y-101490322D01*
X162308280Y-101482561D01*
X162466272Y-101472194D01*
X162566447Y-101462243D01*
X162927288Y-101395988D01*
X163236662Y-101296702D01*
X163493640Y-101164908D01*
X163697291Y-101001131D01*
X163846683Y-100805894D01*
X163892627Y-100715539D01*
X163954344Y-100508346D01*
X163976666Y-100265544D01*
X163968390Y-100126773D01*
X162979683Y-100126773D01*
X162950931Y-100297588D01*
X162874794Y-100430892D01*
X162748274Y-100530307D01*
X162568372Y-100599455D01*
X162365363Y-100637905D01*
X162158634Y-100656567D01*
X161912799Y-100666180D01*
X161651613Y-100666701D01*
X161398828Y-100658086D01*
X161178198Y-100640291D01*
X161176596Y-100640108D01*
X161025818Y-100617014D01*
X160877944Y-100584635D01*
X160759903Y-100549088D01*
X160738652Y-100540614D01*
X160559853Y-100430675D01*
X160421793Y-100273456D01*
X160325583Y-100071296D01*
X160272334Y-99826533D01*
X160263159Y-99541507D01*
X160263213Y-99540273D01*
X160296120Y-99427034D01*
X160375196Y-99316046D01*
X160485259Y-99225951D01*
X160543481Y-99196082D01*
X160682426Y-99154722D01*
X160871441Y-99122695D01*
X161097690Y-99100663D01*
X161348338Y-99089286D01*
X161610550Y-99089223D01*
X161871489Y-99101136D01*
X162057455Y-99118191D01*
X162323250Y-99164033D01*
X162535424Y-99237446D01*
X162699727Y-99343483D01*
X162821914Y-99487200D01*
X162907736Y-99673651D01*
X162962945Y-99907892D01*
X162964050Y-99914825D01*
X162979683Y-100126773D01*
X163968390Y-100126773D01*
X163960847Y-100000309D01*
X163908139Y-99725816D01*
X163819797Y-99455241D01*
X163759816Y-99319691D01*
X163596065Y-99054120D01*
X163382323Y-98826903D01*
X163118448Y-98637978D01*
X162804298Y-98487284D01*
X162439731Y-98374758D01*
X162024603Y-98300339D01*
X161558773Y-98263963D01*
X161330443Y-98259989D01*
X160899367Y-98276067D01*
G36*
X150157912Y-102157212D02*
X150200449Y-102391042D01*
X150234569Y-102570047D01*
X150262231Y-102702048D01*
X150285393Y-102794866D01*
X150306015Y-102856322D01*
X150326053Y-102894237D01*
X150347466Y-102916432D01*
X150348145Y-102916933D01*
X150403797Y-102947643D01*
X150459126Y-102950409D01*
X150523154Y-102920214D01*
X150604904Y-102852044D01*
X150713397Y-102740883D01*
X150764069Y-102685715D01*
X151012525Y-102412530D01*
X151060151Y-102677777D01*
X151107776Y-102943025D01*
X151226838Y-102952879D01*
X151313333Y-102951233D01*
X151345281Y-102926288D01*
X151345690Y-102921129D01*
X151340449Y-102874638D01*
X151326379Y-102779887D01*
X151305690Y-102651148D01*
X151283246Y-102518067D01*
X151245171Y-102323625D01*
X151206206Y-102185535D01*
X151163035Y-102096696D01*
X151112344Y-102050008D01*
X151059141Y-102038150D01*
X151015871Y-102059847D01*
X150940676Y-102118639D01*
X150844825Y-102205074D01*
X150757633Y-102291055D01*
X150656901Y-102391117D01*
X150571728Y-102469852D01*
X150511883Y-102518603D01*
X150488032Y-102529892D01*
X150471472Y-102492961D01*
X150453493Y-102413341D01*
X150443435Y-102348425D01*
X150423812Y-102206706D01*
X150405097Y-102116425D01*
X150380496Y-102065991D01*
X150343211Y-102043810D01*
X150286446Y-102038291D01*
X150261520Y-102038150D01*
X150136523Y-102038150D01*
X150157912Y-102157212D01*
X150157912Y-102157212D01*
G37*
X150157912Y-102157212D02*
X150200449Y-102391042D01*
X150234569Y-102570047D01*
X150262231Y-102702048D01*
X150285393Y-102794866D01*
X150306015Y-102856322D01*
X150326053Y-102894237D01*
X150347466Y-102916432D01*
X150348145Y-102916933D01*
X150403797Y-102947643D01*
X150459126Y-102950409D01*
X150523154Y-102920214D01*
X150604904Y-102852044D01*
X150713397Y-102740883D01*
X150764069Y-102685715D01*
X151012525Y-102412530D01*
X151060151Y-102677777D01*
X151107776Y-102943025D01*
X151226838Y-102952879D01*
X151313333Y-102951233D01*
X151345281Y-102926288D01*
X151345690Y-102921129D01*
X151340449Y-102874638D01*
X151326379Y-102779887D01*
X151305690Y-102651148D01*
X151283246Y-102518067D01*
X151245171Y-102323625D01*
X151206206Y-102185535D01*
X151163035Y-102096696D01*
X151112344Y-102050008D01*
X151059141Y-102038150D01*
X151015871Y-102059847D01*
X150940676Y-102118639D01*
X150844825Y-102205074D01*
X150757633Y-102291055D01*
X150656901Y-102391117D01*
X150571728Y-102469852D01*
X150511883Y-102518603D01*
X150488032Y-102529892D01*
X150471472Y-102492961D01*
X150453493Y-102413341D01*
X150443435Y-102348425D01*
X150423812Y-102206706D01*
X150405097Y-102116425D01*
X150380496Y-102065991D01*
X150343211Y-102043810D01*
X150286446Y-102038291D01*
X150261520Y-102038150D01*
X150136523Y-102038150D01*
X150157912Y-102157212D01*
G36*
X153421273Y-102064390D02*
X153404905Y-102067589D01*
X153247532Y-102116763D01*
X153144819Y-102191068D01*
X153090733Y-102296959D01*
X153078493Y-102416963D01*
X153107797Y-102594718D01*
X153189395Y-102737062D01*
X153322396Y-102843277D01*
X153505910Y-102912646D01*
X153732824Y-102944131D01*
X153868174Y-102946182D01*
X153996306Y-102939469D01*
X154086234Y-102926081D01*
X154212587Y-102887249D01*
X154292714Y-102841160D01*
X154343737Y-102776134D01*
X154361467Y-102738301D01*
X154389465Y-102593513D01*
X154385002Y-102564071D01*
X154102819Y-102564071D01*
X154073135Y-102647927D01*
X154002927Y-102701201D01*
X153885980Y-102726476D01*
X153716080Y-102726336D01*
X153712894Y-102726141D01*
X153590341Y-102715471D01*
X153511727Y-102697732D01*
X153457490Y-102666263D01*
X153417477Y-102625530D01*
X153360667Y-102524697D01*
X153352730Y-102423398D01*
X153392414Y-102338617D01*
X153441400Y-102301279D01*
X153538002Y-102273792D01*
X153669163Y-102262390D01*
X153807907Y-102267484D01*
X153927258Y-102289486D01*
X153940111Y-102293669D01*
X154041730Y-102359324D01*
X154096931Y-102462839D01*
X154102819Y-102564071D01*
X154385002Y-102564071D01*
X154366326Y-102440871D01*
X154299397Y-102297256D01*
X154196026Y-102179549D01*
X154089975Y-102114517D01*
X153949265Y-102074666D01*
X153773306Y-102051822D01*
X153588507Y-102047794D01*
X153421273Y-102064390D01*
X153421273Y-102064390D01*
G37*
X153421273Y-102064390D02*
X153404905Y-102067589D01*
X153247532Y-102116763D01*
X153144819Y-102191068D01*
X153090733Y-102296959D01*
X153078493Y-102416963D01*
X153107797Y-102594718D01*
X153189395Y-102737062D01*
X153322396Y-102843277D01*
X153505910Y-102912646D01*
X153732824Y-102944131D01*
X153868174Y-102946182D01*
X153996306Y-102939469D01*
X154086234Y-102926081D01*
X154212587Y-102887249D01*
X154292714Y-102841160D01*
X154343737Y-102776134D01*
X154361467Y-102738301D01*
X154389465Y-102593513D01*
X154385002Y-102564071D01*
X154102819Y-102564071D01*
X154073135Y-102647927D01*
X154002927Y-102701201D01*
X153885980Y-102726476D01*
X153716080Y-102726336D01*
X153712894Y-102726141D01*
X153590341Y-102715471D01*
X153511727Y-102697732D01*
X153457490Y-102666263D01*
X153417477Y-102625530D01*
X153360667Y-102524697D01*
X153352730Y-102423398D01*
X153392414Y-102338617D01*
X153441400Y-102301279D01*
X153538002Y-102273792D01*
X153669163Y-102262390D01*
X153807907Y-102267484D01*
X153927258Y-102289486D01*
X153940111Y-102293669D01*
X154041730Y-102359324D01*
X154096931Y-102462839D01*
X154102819Y-102564071D01*
X154385002Y-102564071D01*
X154366326Y-102440871D01*
X154299397Y-102297256D01*
X154196026Y-102179549D01*
X154089975Y-102114517D01*
X153949265Y-102074666D01*
X153773306Y-102051822D01*
X153588507Y-102047794D01*
X153421273Y-102064390D01*
G36*
X156314739Y-102958900D02*
X156449695Y-102958900D01*
X156532132Y-102953672D01*
X156579878Y-102940525D01*
X156584650Y-102933962D01*
X156579380Y-102894589D01*
X156565290Y-102807482D01*
X156544956Y-102687374D01*
X156520960Y-102549000D01*
X156495878Y-102407093D01*
X156472291Y-102276387D01*
X156452775Y-102171615D01*
X156440371Y-102109587D01*
X156420321Y-102063705D01*
X156374440Y-102042887D01*
X156288898Y-102038150D01*
X156153105Y-102038150D01*
X156314739Y-102958900D01*
X156314739Y-102958900D01*
G37*
X156314739Y-102958900D02*
X156449695Y-102958900D01*
X156532132Y-102953672D01*
X156579878Y-102940525D01*
X156584650Y-102933962D01*
X156579380Y-102894589D01*
X156565290Y-102807482D01*
X156544956Y-102687374D01*
X156520960Y-102549000D01*
X156495878Y-102407093D01*
X156472291Y-102276387D01*
X156452775Y-102171615D01*
X156440371Y-102109587D01*
X156420321Y-102063705D01*
X156374440Y-102042887D01*
X156288898Y-102038150D01*
X156153105Y-102038150D01*
X156314739Y-102958900D01*
G36*
X158349002Y-102144025D02*
X158442025Y-102255815D01*
X158764866Y-102258107D01*
X158938254Y-102261099D01*
X159057688Y-102268644D01*
X159132671Y-102282934D01*
X159172707Y-102306159D01*
X159187297Y-102340511D01*
X159188150Y-102355702D01*
X159182177Y-102379917D01*
X159157400Y-102396814D01*
X159103536Y-102408217D01*
X159010301Y-102415952D01*
X158867410Y-102421845D01*
X158804559Y-102423786D01*
X158639693Y-102429730D01*
X158526521Y-102437434D01*
X158453239Y-102448947D01*
X158408043Y-102466318D01*
X158379128Y-102491595D01*
X158373669Y-102498568D01*
X158342724Y-102586176D01*
X158348287Y-102695610D01*
X158387076Y-102799210D01*
X158413678Y-102835659D01*
X158469747Y-102880951D01*
X158550126Y-102914390D01*
X158663416Y-102937406D01*
X158818223Y-102951426D01*
X159023148Y-102957881D01*
X159154691Y-102958722D01*
X159613357Y-102958900D01*
X159505650Y-102847775D01*
X159397944Y-102736650D01*
X159027060Y-102736650D01*
X158849916Y-102734290D01*
X158728205Y-102726657D01*
X158654015Y-102712921D01*
X158620814Y-102694041D01*
X158600271Y-102658984D01*
X158612013Y-102634921D01*
X158663513Y-102619909D01*
X158762243Y-102612006D01*
X158915677Y-102609272D01*
X158947380Y-102609181D01*
X159113994Y-102604649D01*
X159247346Y-102592480D01*
X159334010Y-102574031D01*
X159346373Y-102568819D01*
X159431074Y-102495503D01*
X159462221Y-102393768D01*
X159437276Y-102273008D01*
X159430439Y-102257783D01*
X159392218Y-102186424D01*
X159348499Y-102133807D01*
X159289289Y-102096800D01*
X159204596Y-102072274D01*
X159084426Y-102057096D01*
X158918785Y-102048138D01*
X158745877Y-102043323D01*
X158255979Y-102032234D01*
X158349002Y-102144025D01*
X158349002Y-102144025D01*
G37*
X158349002Y-102144025D02*
X158442025Y-102255815D01*
X158764866Y-102258107D01*
X158938254Y-102261099D01*
X159057688Y-102268644D01*
X159132671Y-102282934D01*
X159172707Y-102306159D01*
X159187297Y-102340511D01*
X159188150Y-102355702D01*
X159182177Y-102379917D01*
X159157400Y-102396814D01*
X159103536Y-102408217D01*
X159010301Y-102415952D01*
X158867410Y-102421845D01*
X158804559Y-102423786D01*
X158639693Y-102429730D01*
X158526521Y-102437434D01*
X158453239Y-102448947D01*
X158408043Y-102466318D01*
X158379128Y-102491595D01*
X158373669Y-102498568D01*
X158342724Y-102586176D01*
X158348287Y-102695610D01*
X158387076Y-102799210D01*
X158413678Y-102835659D01*
X158469747Y-102880951D01*
X158550126Y-102914390D01*
X158663416Y-102937406D01*
X158818223Y-102951426D01*
X159023148Y-102957881D01*
X159154691Y-102958722D01*
X159613357Y-102958900D01*
X159505650Y-102847775D01*
X159397944Y-102736650D01*
X159027060Y-102736650D01*
X158849916Y-102734290D01*
X158728205Y-102726657D01*
X158654015Y-102712921D01*
X158620814Y-102694041D01*
X158600271Y-102658984D01*
X158612013Y-102634921D01*
X158663513Y-102619909D01*
X158762243Y-102612006D01*
X158915677Y-102609272D01*
X158947380Y-102609181D01*
X159113994Y-102604649D01*
X159247346Y-102592480D01*
X159334010Y-102574031D01*
X159346373Y-102568819D01*
X159431074Y-102495503D01*
X159462221Y-102393768D01*
X159437276Y-102273008D01*
X159430439Y-102257783D01*
X159392218Y-102186424D01*
X159348499Y-102133807D01*
X159289289Y-102096800D01*
X159204596Y-102072274D01*
X159084426Y-102057096D01*
X158918785Y-102048138D01*
X158745877Y-102043323D01*
X158255979Y-102032234D01*
X158349002Y-102144025D01*
G36*
X161333502Y-102144025D02*
X161426525Y-102255815D01*
X161749366Y-102258107D01*
X161922754Y-102261099D01*
X162042188Y-102268644D01*
X162117171Y-102282934D01*
X162157207Y-102306159D01*
X162171797Y-102340511D01*
X162172650Y-102355702D01*
X162166677Y-102379917D01*
X162141900Y-102396814D01*
X162088036Y-102408217D01*
X161994801Y-102415952D01*
X161851910Y-102421845D01*
X161789059Y-102423786D01*
X161624193Y-102429730D01*
X161511021Y-102437434D01*
X161437739Y-102448947D01*
X161392543Y-102466318D01*
X161363628Y-102491595D01*
X161358169Y-102498568D01*
X161327224Y-102586176D01*
X161332787Y-102695610D01*
X161371576Y-102799210D01*
X161398178Y-102835659D01*
X161454247Y-102880951D01*
X161534626Y-102914390D01*
X161647916Y-102937406D01*
X161802723Y-102951426D01*
X162007648Y-102957881D01*
X162139191Y-102958722D01*
X162597857Y-102958900D01*
X162490150Y-102847775D01*
X162382444Y-102736650D01*
X162011560Y-102736650D01*
X161834416Y-102734290D01*
X161712705Y-102726657D01*
X161638515Y-102712921D01*
X161605314Y-102694041D01*
X161584771Y-102658984D01*
X161596513Y-102634921D01*
X161648013Y-102619909D01*
X161746743Y-102612006D01*
X161900177Y-102609272D01*
X161931880Y-102609181D01*
X162098494Y-102604649D01*
X162231846Y-102592480D01*
X162318510Y-102574031D01*
X162330873Y-102568819D01*
X162415574Y-102495503D01*
X162446721Y-102393768D01*
X162421776Y-102273008D01*
X162414939Y-102257783D01*
X162376718Y-102186424D01*
X162332999Y-102133807D01*
X162273789Y-102096800D01*
X162189096Y-102072274D01*
X162068926Y-102057096D01*
X161903285Y-102048138D01*
X161730377Y-102043323D01*
X161240479Y-102032234D01*
X161333502Y-102144025D01*
X161333502Y-102144025D01*
G37*
X161333502Y-102144025D02*
X161426525Y-102255815D01*
X161749366Y-102258107D01*
X161922754Y-102261099D01*
X162042188Y-102268644D01*
X162117171Y-102282934D01*
X162157207Y-102306159D01*
X162171797Y-102340511D01*
X162172650Y-102355702D01*
X162166677Y-102379917D01*
X162141900Y-102396814D01*
X162088036Y-102408217D01*
X161994801Y-102415952D01*
X161851910Y-102421845D01*
X161789059Y-102423786D01*
X161624193Y-102429730D01*
X161511021Y-102437434D01*
X161437739Y-102448947D01*
X161392543Y-102466318D01*
X161363628Y-102491595D01*
X161358169Y-102498568D01*
X161327224Y-102586176D01*
X161332787Y-102695610D01*
X161371576Y-102799210D01*
X161398178Y-102835659D01*
X161454247Y-102880951D01*
X161534626Y-102914390D01*
X161647916Y-102937406D01*
X161802723Y-102951426D01*
X162007648Y-102957881D01*
X162139191Y-102958722D01*
X162597857Y-102958900D01*
X162490150Y-102847775D01*
X162382444Y-102736650D01*
X162011560Y-102736650D01*
X161834416Y-102734290D01*
X161712705Y-102726657D01*
X161638515Y-102712921D01*
X161605314Y-102694041D01*
X161584771Y-102658984D01*
X161596513Y-102634921D01*
X161648013Y-102619909D01*
X161746743Y-102612006D01*
X161900177Y-102609272D01*
X161931880Y-102609181D01*
X162098494Y-102604649D01*
X162231846Y-102592480D01*
X162318510Y-102574031D01*
X162330873Y-102568819D01*
X162415574Y-102495503D01*
X162446721Y-102393768D01*
X162421776Y-102273008D01*
X162414939Y-102257783D01*
X162376718Y-102186424D01*
X162332999Y-102133807D01*
X162273789Y-102096800D01*
X162189096Y-102072274D01*
X162068926Y-102057096D01*
X161903285Y-102048138D01*
X161730377Y-102043323D01*
X161240479Y-102032234D01*
X161333502Y-102144025D01*
G36*
X164379239Y-102958900D02*
X164514195Y-102958900D01*
X164596632Y-102953672D01*
X164644378Y-102940525D01*
X164649150Y-102933962D01*
X164643880Y-102894589D01*
X164629790Y-102807482D01*
X164609456Y-102687374D01*
X164585460Y-102549000D01*
X164560378Y-102407093D01*
X164536791Y-102276387D01*
X164517275Y-102171615D01*
X164504871Y-102109587D01*
X164484821Y-102063705D01*
X164438940Y-102042887D01*
X164353398Y-102038150D01*
X164217605Y-102038150D01*
X164379239Y-102958900D01*
X164379239Y-102958900D01*
G37*
X164379239Y-102958900D02*
X164514195Y-102958900D01*
X164596632Y-102953672D01*
X164644378Y-102940525D01*
X164649150Y-102933962D01*
X164643880Y-102894589D01*
X164629790Y-102807482D01*
X164609456Y-102687374D01*
X164585460Y-102549000D01*
X164560378Y-102407093D01*
X164536791Y-102276387D01*
X164517275Y-102171615D01*
X164504871Y-102109587D01*
X164484821Y-102063705D01*
X164438940Y-102042887D01*
X164353398Y-102038150D01*
X164217605Y-102038150D01*
X164379239Y-102958900D01*
G36*
X167476746Y-102063212D02*
X167430709Y-102116504D01*
X167381516Y-102212893D01*
X167321987Y-102360930D01*
X167316674Y-102374965D01*
X167269813Y-102490492D01*
X167228937Y-102575623D01*
X167199976Y-102618740D01*
X167191375Y-102620460D01*
X167163417Y-102583980D01*
X167108296Y-102509675D01*
X167036083Y-102411159D01*
X167006305Y-102370275D01*
X166899713Y-102227449D01*
X166819195Y-102130882D01*
X166756459Y-102073435D01*
X166703215Y-102047968D01*
X166651174Y-102047341D01*
X166635288Y-102050745D01*
X166597556Y-102063055D01*
X166569779Y-102084739D01*
X166549015Y-102125824D01*
X166532322Y-102196339D01*
X166516758Y-102306311D01*
X166499378Y-102465768D01*
X166491885Y-102539457D01*
X166474616Y-102709475D01*
X166464634Y-102826176D01*
X166464093Y-102899535D01*
X166475149Y-102939527D01*
X166499957Y-102956128D01*
X166540673Y-102959314D01*
X166582504Y-102958900D01*
X166664188Y-102951827D01*
X166712986Y-102922235D01*
X166737113Y-102857560D01*
X166744781Y-102745240D01*
X166745084Y-102710240D01*
X166748254Y-102572874D01*
X166760369Y-102493370D01*
X166786804Y-102470847D01*
X166832929Y-102504426D01*
X166904117Y-102593225D01*
X166962486Y-102674619D01*
X167080307Y-102828724D01*
X167178247Y-102924229D01*
X167260754Y-102961187D01*
X167332275Y-102939654D01*
X167397262Y-102859681D01*
X167460161Y-102721323D01*
X167474958Y-102680804D01*
X167515454Y-102570227D01*
X167549394Y-102484749D01*
X167570269Y-102440639D01*
X167571874Y-102438593D01*
X167590935Y-102457757D01*
X167627326Y-102523748D01*
X167674699Y-102624474D01*
X167699669Y-102682067D01*
X167809981Y-102943025D01*
X167944066Y-102952788D01*
X168026058Y-102955619D01*
X168073469Y-102951180D01*
X168078150Y-102947615D01*
X168065256Y-102915198D01*
X168029735Y-102835846D01*
X167976337Y-102719919D01*
X167909807Y-102577779D01*
X167874236Y-102502512D01*
X167791474Y-102331037D01*
X167728406Y-102209286D01*
X167679584Y-102128672D01*
X167639557Y-102080610D01*
X167602874Y-102056514D01*
X167588074Y-102051702D01*
X167526807Y-102044462D01*
X167476746Y-102063212D01*
X167476746Y-102063212D01*
G37*
X167476746Y-102063212D02*
X167430709Y-102116504D01*
X167381516Y-102212893D01*
X167321987Y-102360930D01*
X167316674Y-102374965D01*
X167269813Y-102490492D01*
X167228937Y-102575623D01*
X167199976Y-102618740D01*
X167191375Y-102620460D01*
X167163417Y-102583980D01*
X167108296Y-102509675D01*
X167036083Y-102411159D01*
X167006305Y-102370275D01*
X166899713Y-102227449D01*
X166819195Y-102130882D01*
X166756459Y-102073435D01*
X166703215Y-102047968D01*
X166651174Y-102047341D01*
X166635288Y-102050745D01*
X166597556Y-102063055D01*
X166569779Y-102084739D01*
X166549015Y-102125824D01*
X166532322Y-102196339D01*
X166516758Y-102306311D01*
X166499378Y-102465768D01*
X166491885Y-102539457D01*
X166474616Y-102709475D01*
X166464634Y-102826176D01*
X166464093Y-102899535D01*
X166475149Y-102939527D01*
X166499957Y-102956128D01*
X166540673Y-102959314D01*
X166582504Y-102958900D01*
X166664188Y-102951827D01*
X166712986Y-102922235D01*
X166737113Y-102857560D01*
X166744781Y-102745240D01*
X166745084Y-102710240D01*
X166748254Y-102572874D01*
X166760369Y-102493370D01*
X166786804Y-102470847D01*
X166832929Y-102504426D01*
X166904117Y-102593225D01*
X166962486Y-102674619D01*
X167080307Y-102828724D01*
X167178247Y-102924229D01*
X167260754Y-102961187D01*
X167332275Y-102939654D01*
X167397262Y-102859681D01*
X167460161Y-102721323D01*
X167474958Y-102680804D01*
X167515454Y-102570227D01*
X167549394Y-102484749D01*
X167570269Y-102440639D01*
X167571874Y-102438593D01*
X167590935Y-102457757D01*
X167627326Y-102523748D01*
X167674699Y-102624474D01*
X167699669Y-102682067D01*
X167809981Y-102943025D01*
X167944066Y-102952788D01*
X168026058Y-102955619D01*
X168073469Y-102951180D01*
X168078150Y-102947615D01*
X168065256Y-102915198D01*
X168029735Y-102835846D01*
X167976337Y-102719919D01*
X167909807Y-102577779D01*
X167874236Y-102502512D01*
X167791474Y-102331037D01*
X167728406Y-102209286D01*
X167679584Y-102128672D01*
X167639557Y-102080610D01*
X167602874Y-102056514D01*
X167588074Y-102051702D01*
X167526807Y-102044462D01*
X167476746Y-102063212D01*
G36*
X169779002Y-102144025D02*
X169872025Y-102255815D01*
X170194866Y-102258107D01*
X170368254Y-102261099D01*
X170487688Y-102268644D01*
X170562671Y-102282934D01*
X170602707Y-102306159D01*
X170617297Y-102340511D01*
X170618150Y-102355702D01*
X170612177Y-102379917D01*
X170587400Y-102396814D01*
X170533536Y-102408217D01*
X170440301Y-102415952D01*
X170297410Y-102421845D01*
X170234559Y-102423786D01*
X170069693Y-102429730D01*
X169956521Y-102437434D01*
X169883239Y-102448947D01*
X169838043Y-102466318D01*
X169809128Y-102491595D01*
X169803669Y-102498568D01*
X169772724Y-102586176D01*
X169778287Y-102695610D01*
X169817076Y-102799210D01*
X169843678Y-102835659D01*
X169899747Y-102880951D01*
X169980126Y-102914390D01*
X170093416Y-102937406D01*
X170248223Y-102951426D01*
X170453148Y-102957881D01*
X170584691Y-102958722D01*
X171043357Y-102958900D01*
X170935650Y-102847775D01*
X170827944Y-102736650D01*
X170457060Y-102736650D01*
X170279916Y-102734290D01*
X170158205Y-102726657D01*
X170084015Y-102712921D01*
X170050814Y-102694041D01*
X170030271Y-102658984D01*
X170042013Y-102634921D01*
X170093513Y-102619909D01*
X170192243Y-102612006D01*
X170345677Y-102609272D01*
X170377380Y-102609181D01*
X170543994Y-102604649D01*
X170677346Y-102592480D01*
X170764010Y-102574031D01*
X170776373Y-102568819D01*
X170861074Y-102495503D01*
X170892221Y-102393768D01*
X170867276Y-102273008D01*
X170860439Y-102257783D01*
X170822218Y-102186424D01*
X170778499Y-102133807D01*
X170719289Y-102096800D01*
X170634596Y-102072274D01*
X170514426Y-102057096D01*
X170348785Y-102048138D01*
X170175877Y-102043323D01*
X169685979Y-102032234D01*
X169779002Y-102144025D01*
X169779002Y-102144025D01*
G37*
X169779002Y-102144025D02*
X169872025Y-102255815D01*
X170194866Y-102258107D01*
X170368254Y-102261099D01*
X170487688Y-102268644D01*
X170562671Y-102282934D01*
X170602707Y-102306159D01*
X170617297Y-102340511D01*
X170618150Y-102355702D01*
X170612177Y-102379917D01*
X170587400Y-102396814D01*
X170533536Y-102408217D01*
X170440301Y-102415952D01*
X170297410Y-102421845D01*
X170234559Y-102423786D01*
X170069693Y-102429730D01*
X169956521Y-102437434D01*
X169883239Y-102448947D01*
X169838043Y-102466318D01*
X169809128Y-102491595D01*
X169803669Y-102498568D01*
X169772724Y-102586176D01*
X169778287Y-102695610D01*
X169817076Y-102799210D01*
X169843678Y-102835659D01*
X169899747Y-102880951D01*
X169980126Y-102914390D01*
X170093416Y-102937406D01*
X170248223Y-102951426D01*
X170453148Y-102957881D01*
X170584691Y-102958722D01*
X171043357Y-102958900D01*
X170935650Y-102847775D01*
X170827944Y-102736650D01*
X170457060Y-102736650D01*
X170279916Y-102734290D01*
X170158205Y-102726657D01*
X170084015Y-102712921D01*
X170050814Y-102694041D01*
X170030271Y-102658984D01*
X170042013Y-102634921D01*
X170093513Y-102619909D01*
X170192243Y-102612006D01*
X170345677Y-102609272D01*
X170377380Y-102609181D01*
X170543994Y-102604649D01*
X170677346Y-102592480D01*
X170764010Y-102574031D01*
X170776373Y-102568819D01*
X170861074Y-102495503D01*
X170892221Y-102393768D01*
X170867276Y-102273008D01*
X170860439Y-102257783D01*
X170822218Y-102186424D01*
X170778499Y-102133807D01*
X170719289Y-102096800D01*
X170634596Y-102072274D01*
X170514426Y-102057096D01*
X170348785Y-102048138D01*
X170175877Y-102043323D01*
X169685979Y-102032234D01*
X169779002Y-102144025D01*
G36*
X172700412Y-102157212D02*
X172742949Y-102391042D01*
X172777069Y-102570047D01*
X172804731Y-102702048D01*
X172827893Y-102794866D01*
X172848515Y-102856322D01*
X172868553Y-102894237D01*
X172889966Y-102916432D01*
X172890645Y-102916933D01*
X172946297Y-102947643D01*
X173001626Y-102950409D01*
X173065654Y-102920214D01*
X173147404Y-102852044D01*
X173255897Y-102740883D01*
X173306569Y-102685715D01*
X173555025Y-102412530D01*
X173602651Y-102677777D01*
X173650276Y-102943025D01*
X173769338Y-102952879D01*
X173855833Y-102951233D01*
X173887781Y-102926288D01*
X173888190Y-102921129D01*
X173882949Y-102874638D01*
X173868879Y-102779887D01*
X173848190Y-102651148D01*
X173825746Y-102518067D01*
X173787671Y-102323625D01*
X173748706Y-102185535D01*
X173705535Y-102096696D01*
X173654844Y-102050008D01*
X173601641Y-102038150D01*
X173558371Y-102059847D01*
X173483176Y-102118639D01*
X173387325Y-102205074D01*
X173300133Y-102291055D01*
X173199401Y-102391117D01*
X173114228Y-102469852D01*
X173054383Y-102518603D01*
X173030532Y-102529892D01*
X173013972Y-102492961D01*
X172995993Y-102413341D01*
X172985935Y-102348425D01*
X172966312Y-102206706D01*
X172947597Y-102116425D01*
X172922996Y-102065991D01*
X172885711Y-102043810D01*
X172828946Y-102038291D01*
X172804020Y-102038150D01*
X172679023Y-102038150D01*
X172700412Y-102157212D01*
X172700412Y-102157212D01*
G37*
X172700412Y-102157212D02*
X172742949Y-102391042D01*
X172777069Y-102570047D01*
X172804731Y-102702048D01*
X172827893Y-102794866D01*
X172848515Y-102856322D01*
X172868553Y-102894237D01*
X172889966Y-102916432D01*
X172890645Y-102916933D01*
X172946297Y-102947643D01*
X173001626Y-102950409D01*
X173065654Y-102920214D01*
X173147404Y-102852044D01*
X173255897Y-102740883D01*
X173306569Y-102685715D01*
X173555025Y-102412530D01*
X173602651Y-102677777D01*
X173650276Y-102943025D01*
X173769338Y-102952879D01*
X173855833Y-102951233D01*
X173887781Y-102926288D01*
X173888190Y-102921129D01*
X173882949Y-102874638D01*
X173868879Y-102779887D01*
X173848190Y-102651148D01*
X173825746Y-102518067D01*
X173787671Y-102323625D01*
X173748706Y-102185535D01*
X173705535Y-102096696D01*
X173654844Y-102050008D01*
X173601641Y-102038150D01*
X173558371Y-102059847D01*
X173483176Y-102118639D01*
X173387325Y-102205074D01*
X173300133Y-102291055D01*
X173199401Y-102391117D01*
X173114228Y-102469852D01*
X173054383Y-102518603D01*
X173030532Y-102529892D01*
X173013972Y-102492961D01*
X172995993Y-102413341D01*
X172985935Y-102348425D01*
X172966312Y-102206706D01*
X172947597Y-102116425D01*
X172922996Y-102065991D01*
X172885711Y-102043810D01*
X172828946Y-102038291D01*
X172804020Y-102038150D01*
X172679023Y-102038150D01*
X172700412Y-102157212D01*
G36*
X176220655Y-102051748D02*
X176168660Y-102090066D01*
X176111255Y-102163659D01*
X176042394Y-102279298D01*
X175956031Y-102443755D01*
X175919166Y-102516864D01*
X175697727Y-102958900D01*
X176716858Y-102958900D01*
X176628192Y-102847775D01*
X176572354Y-102784254D01*
X176519735Y-102751065D01*
X176446548Y-102738461D01*
X176356963Y-102736650D01*
X176258886Y-102731779D01*
X176192618Y-102719165D01*
X176174400Y-102705749D01*
X176187340Y-102658999D01*
X176219389Y-102583685D01*
X176260397Y-102500144D01*
X176300210Y-102428713D01*
X176328675Y-102389731D01*
X176333318Y-102387400D01*
X176360368Y-102410028D01*
X176419739Y-102471629D01*
X176502646Y-102562772D01*
X176599544Y-102673150D01*
X176846505Y-102958900D01*
X177007499Y-102958900D01*
X177100345Y-102957153D01*
X177140775Y-102948326D01*
X177139851Y-102927042D01*
X177121775Y-102903337D01*
X176979801Y-102736991D01*
X176836458Y-102573524D01*
X176698567Y-102420278D01*
X176572947Y-102284595D01*
X176466419Y-102173815D01*
X176385802Y-102095280D01*
X176337916Y-102056331D01*
X176332602Y-102053851D01*
X176273287Y-102041933D01*
X176220655Y-102051748D01*
X176220655Y-102051748D01*
G37*
X176220655Y-102051748D02*
X176168660Y-102090066D01*
X176111255Y-102163659D01*
X176042394Y-102279298D01*
X175956031Y-102443755D01*
X175919166Y-102516864D01*
X175697727Y-102958900D01*
X176716858Y-102958900D01*
X176628192Y-102847775D01*
X176572354Y-102784254D01*
X176519735Y-102751065D01*
X176446548Y-102738461D01*
X176356963Y-102736650D01*
X176258886Y-102731779D01*
X176192618Y-102719165D01*
X176174400Y-102705749D01*
X176187340Y-102658999D01*
X176219389Y-102583685D01*
X176260397Y-102500144D01*
X176300210Y-102428713D01*
X176328675Y-102389731D01*
X176333318Y-102387400D01*
X176360368Y-102410028D01*
X176419739Y-102471629D01*
X176502646Y-102562772D01*
X176599544Y-102673150D01*
X176846505Y-102958900D01*
X177007499Y-102958900D01*
X177100345Y-102957153D01*
X177140775Y-102948326D01*
X177139851Y-102927042D01*
X177121775Y-102903337D01*
X176979801Y-102736991D01*
X176836458Y-102573524D01*
X176698567Y-102420278D01*
X176572947Y-102284595D01*
X176466419Y-102173815D01*
X176385802Y-102095280D01*
X176337916Y-102056331D01*
X176332602Y-102053851D01*
X176273287Y-102041933D01*
X176220655Y-102051748D01*
G36*
X179386358Y-102042658D02*
X179217833Y-102049096D01*
X179099521Y-102058079D01*
X179018134Y-102071805D01*
X178960387Y-102092473D01*
X178915158Y-102120664D01*
X178844448Y-102208678D01*
X178818589Y-102320831D01*
X178835282Y-102438726D01*
X178892230Y-102543968D01*
X178976667Y-102613009D01*
X179035277Y-102645017D01*
X179060141Y-102660711D01*
X179050831Y-102689985D01*
X179012631Y-102750393D01*
X178994391Y-102775473D01*
X178924677Y-102870365D01*
X178895686Y-102925143D01*
X178910484Y-102950826D01*
X178972137Y-102958432D01*
X179045451Y-102958900D01*
X179148295Y-102956157D01*
X179211204Y-102940266D01*
X179257721Y-102899730D01*
X179305544Y-102831900D01*
X179353638Y-102763205D01*
X179396380Y-102725218D01*
X179454342Y-102708841D01*
X179548095Y-102704979D01*
X179592741Y-102704900D01*
X179724876Y-102711335D01*
X179795874Y-102730550D01*
X179808120Y-102744587D01*
X179823801Y-102804068D01*
X179839479Y-102871587D01*
X179859719Y-102928460D01*
X179900705Y-102953351D01*
X179983503Y-102958899D01*
X179985005Y-102958900D01*
X180069853Y-102950409D01*
X180110046Y-102927889D01*
X180111400Y-102921813D01*
X180106237Y-102872839D01*
X180092786Y-102782181D01*
X180076391Y-102683688D01*
X180041382Y-102482650D01*
X179604029Y-102482650D01*
X179422422Y-102481453D01*
X179294107Y-102477151D01*
X179208911Y-102468675D01*
X179156660Y-102454958D01*
X179127177Y-102434932D01*
X179124942Y-102432363D01*
X179100372Y-102371176D01*
X179116482Y-102329176D01*
X179140856Y-102306580D01*
X179187934Y-102289959D01*
X179267891Y-102277764D01*
X179390904Y-102268450D01*
X179567149Y-102260469D01*
X179568983Y-102260400D01*
X179988210Y-102244525D01*
X179767926Y-102031291D01*
X179386358Y-102042658D01*
X179386358Y-102042658D01*
G37*
X179386358Y-102042658D02*
X179217833Y-102049096D01*
X179099521Y-102058079D01*
X179018134Y-102071805D01*
X178960387Y-102092473D01*
X178915158Y-102120664D01*
X178844448Y-102208678D01*
X178818589Y-102320831D01*
X178835282Y-102438726D01*
X178892230Y-102543968D01*
X178976667Y-102613009D01*
X179035277Y-102645017D01*
X179060141Y-102660711D01*
X179050831Y-102689985D01*
X179012631Y-102750393D01*
X178994391Y-102775473D01*
X178924677Y-102870365D01*
X178895686Y-102925143D01*
X178910484Y-102950826D01*
X178972137Y-102958432D01*
X179045451Y-102958900D01*
X179148295Y-102956157D01*
X179211204Y-102940266D01*
X179257721Y-102899730D01*
X179305544Y-102831900D01*
X179353638Y-102763205D01*
X179396380Y-102725218D01*
X179454342Y-102708841D01*
X179548095Y-102704979D01*
X179592741Y-102704900D01*
X179724876Y-102711335D01*
X179795874Y-102730550D01*
X179808120Y-102744587D01*
X179823801Y-102804068D01*
X179839479Y-102871587D01*
X179859719Y-102928460D01*
X179900705Y-102953351D01*
X179983503Y-102958899D01*
X179985005Y-102958900D01*
X180069853Y-102950409D01*
X180110046Y-102927889D01*
X180111400Y-102921813D01*
X180106237Y-102872839D01*
X180092786Y-102782181D01*
X180076391Y-102683688D01*
X180041382Y-102482650D01*
X179604029Y-102482650D01*
X179422422Y-102481453D01*
X179294107Y-102477151D01*
X179208911Y-102468675D01*
X179156660Y-102454958D01*
X179127177Y-102434932D01*
X179124942Y-102432363D01*
X179100372Y-102371176D01*
X179116482Y-102329176D01*
X179140856Y-102306580D01*
X179187934Y-102289959D01*
X179267891Y-102277764D01*
X179390904Y-102268450D01*
X179567149Y-102260469D01*
X179568983Y-102260400D01*
X179988210Y-102244525D01*
X179767926Y-102031291D01*
X179386358Y-102042658D01*
G36*
X181751336Y-102146982D02*
X181812613Y-102212259D01*
X181872308Y-102245018D01*
X181956989Y-102256695D01*
X182009459Y-102258107D01*
X182119610Y-102267024D01*
X182180922Y-102288629D01*
X182189463Y-102300087D01*
X182199863Y-102346969D01*
X182217811Y-102440768D01*
X182240364Y-102565775D01*
X182254901Y-102649337D01*
X182308020Y-102958900D01*
X182450100Y-102958900D01*
X182537347Y-102955233D01*
X182575070Y-102940182D01*
X182577021Y-102907668D01*
X182575812Y-102903337D01*
X182562227Y-102844057D01*
X182543105Y-102744846D01*
X182525006Y-102641400D01*
X182504152Y-102518974D01*
X182484803Y-102409629D01*
X182473211Y-102347712D01*
X182455855Y-102260400D01*
X182845132Y-102260400D01*
X182675614Y-102038150D01*
X181660896Y-102038150D01*
X181751336Y-102146982D01*
X181751336Y-102146982D01*
G37*
X181751336Y-102146982D02*
X181812613Y-102212259D01*
X181872308Y-102245018D01*
X181956989Y-102256695D01*
X182009459Y-102258107D01*
X182119610Y-102267024D01*
X182180922Y-102288629D01*
X182189463Y-102300087D01*
X182199863Y-102346969D01*
X182217811Y-102440768D01*
X182240364Y-102565775D01*
X182254901Y-102649337D01*
X182308020Y-102958900D01*
X182450100Y-102958900D01*
X182537347Y-102955233D01*
X182575070Y-102940182D01*
X182577021Y-102907668D01*
X182575812Y-102903337D01*
X182562227Y-102844057D01*
X182543105Y-102744846D01*
X182525006Y-102641400D01*
X182504152Y-102518974D01*
X182484803Y-102409629D01*
X182473211Y-102347712D01*
X182455855Y-102260400D01*
X182845132Y-102260400D01*
X182675614Y-102038150D01*
X181660896Y-102038150D01*
X181751336Y-102146982D01*
G36*
X143061525Y-97743962D02*
X142969214Y-98125504D01*
X142903766Y-98486684D01*
X142862949Y-98847561D01*
X142844532Y-99228192D01*
X142846282Y-99648636D01*
X142846904Y-99672775D01*
X142863562Y-100046432D01*
X142894349Y-100377643D01*
X142942732Y-100686559D01*
X143012177Y-100993333D01*
X143106150Y-101318116D01*
X143156567Y-101473131D01*
X143233450Y-101695412D01*
X143311050Y-101901545D01*
X143394126Y-102101449D01*
X143487433Y-102305045D01*
X143595729Y-102522250D01*
X143723773Y-102762985D01*
X143876320Y-103037168D01*
X144058130Y-103354719D01*
X144063213Y-103363511D01*
X144122775Y-103466498D01*
X144481837Y-103466699D01*
X144622562Y-103464829D01*
X144734837Y-103459597D01*
X144806679Y-103451824D01*
X144826736Y-103443087D01*
X144805396Y-103407723D01*
X144758428Y-103330152D01*
X144693148Y-103222452D01*
X144629583Y-103117650D01*
X144543020Y-102970096D01*
X144440740Y-102788222D01*
X144335225Y-102594602D01*
X144238957Y-102411811D01*
X144234566Y-102403275D01*
X143986439Y-101881598D01*
X143790764Y-101380201D01*
X143646412Y-100890089D01*
X143552257Y-100402266D01*
X143507172Y-99907737D01*
X143510028Y-99397507D01*
X143559700Y-98862579D01*
X143655060Y-98293959D01*
X143695472Y-98101444D01*
X143729635Y-97943996D01*
X143758244Y-97808981D01*
X143778805Y-97708414D01*
X143788823Y-97654310D01*
X143789400Y-97649006D01*
X143759794Y-97639304D01*
X143679531Y-97631468D01*
X143561449Y-97626387D01*
X143441374Y-97624900D01*
X143093348Y-97624900D01*
X143061525Y-97743962D01*
X143061525Y-97743962D01*
G37*
X143061525Y-97743962D02*
X142969214Y-98125504D01*
X142903766Y-98486684D01*
X142862949Y-98847561D01*
X142844532Y-99228192D01*
X142846282Y-99648636D01*
X142846904Y-99672775D01*
X142863562Y-100046432D01*
X142894349Y-100377643D01*
X142942732Y-100686559D01*
X143012177Y-100993333D01*
X143106150Y-101318116D01*
X143156567Y-101473131D01*
X143233450Y-101695412D01*
X143311050Y-101901545D01*
X143394126Y-102101449D01*
X143487433Y-102305045D01*
X143595729Y-102522250D01*
X143723773Y-102762985D01*
X143876320Y-103037168D01*
X144058130Y-103354719D01*
X144063213Y-103363511D01*
X144122775Y-103466498D01*
X144481837Y-103466699D01*
X144622562Y-103464829D01*
X144734837Y-103459597D01*
X144806679Y-103451824D01*
X144826736Y-103443087D01*
X144805396Y-103407723D01*
X144758428Y-103330152D01*
X144693148Y-103222452D01*
X144629583Y-103117650D01*
X144543020Y-102970096D01*
X144440740Y-102788222D01*
X144335225Y-102594602D01*
X144238957Y-102411811D01*
X144234566Y-102403275D01*
X143986439Y-101881598D01*
X143790764Y-101380201D01*
X143646412Y-100890089D01*
X143552257Y-100402266D01*
X143507172Y-99907737D01*
X143510028Y-99397507D01*
X143559700Y-98862579D01*
X143655060Y-98293959D01*
X143695472Y-98101444D01*
X143729635Y-97943996D01*
X143758244Y-97808981D01*
X143778805Y-97708414D01*
X143788823Y-97654310D01*
X143789400Y-97649006D01*
X143759794Y-97639304D01*
X143679531Y-97631468D01*
X143561449Y-97626387D01*
X143441374Y-97624900D01*
X143093348Y-97624900D01*
X143061525Y-97743962D01*
G36*
X145284025Y-97743962D02*
X145191714Y-98125504D01*
X145126266Y-98486684D01*
X145085449Y-98847561D01*
X145067032Y-99228192D01*
X145068782Y-99648636D01*
X145069404Y-99672775D01*
X145086062Y-100046432D01*
X145116849Y-100377643D01*
X145165232Y-100686559D01*
X145234677Y-100993333D01*
X145328650Y-101318116D01*
X145379067Y-101473131D01*
X145455950Y-101695412D01*
X145533550Y-101901545D01*
X145616626Y-102101449D01*
X145709933Y-102305045D01*
X145818229Y-102522250D01*
X145946273Y-102762985D01*
X146098820Y-103037168D01*
X146280630Y-103354719D01*
X146285713Y-103363511D01*
X146345275Y-103466498D01*
X146704337Y-103466699D01*
X146845062Y-103464829D01*
X146957337Y-103459597D01*
X147029179Y-103451824D01*
X147049236Y-103443087D01*
X147027896Y-103407723D01*
X146980928Y-103330152D01*
X146915648Y-103222452D01*
X146852083Y-103117650D01*
X146765520Y-102970096D01*
X146663240Y-102788222D01*
X146557725Y-102594602D01*
X146461457Y-102411811D01*
X146457066Y-102403275D01*
X146208939Y-101881598D01*
X146013264Y-101380201D01*
X145868912Y-100890089D01*
X145774757Y-100402266D01*
X145729672Y-99907737D01*
X145732528Y-99397507D01*
X145782200Y-98862579D01*
X145877560Y-98293959D01*
X145917972Y-98101444D01*
X145952135Y-97943996D01*
X145980744Y-97808981D01*
X146001305Y-97708414D01*
X146011323Y-97654310D01*
X146011900Y-97649006D01*
X145982294Y-97639304D01*
X145902031Y-97631468D01*
X145783949Y-97626387D01*
X145663874Y-97624900D01*
X145315848Y-97624900D01*
X145284025Y-97743962D01*
X145284025Y-97743962D01*
G37*
X145284025Y-97743962D02*
X145191714Y-98125504D01*
X145126266Y-98486684D01*
X145085449Y-98847561D01*
X145067032Y-99228192D01*
X145068782Y-99648636D01*
X145069404Y-99672775D01*
X145086062Y-100046432D01*
X145116849Y-100377643D01*
X145165232Y-100686559D01*
X145234677Y-100993333D01*
X145328650Y-101318116D01*
X145379067Y-101473131D01*
X145455950Y-101695412D01*
X145533550Y-101901545D01*
X145616626Y-102101449D01*
X145709933Y-102305045D01*
X145818229Y-102522250D01*
X145946273Y-102762985D01*
X146098820Y-103037168D01*
X146280630Y-103354719D01*
X146285713Y-103363511D01*
X146345275Y-103466498D01*
X146704337Y-103466699D01*
X146845062Y-103464829D01*
X146957337Y-103459597D01*
X147029179Y-103451824D01*
X147049236Y-103443087D01*
X147027896Y-103407723D01*
X146980928Y-103330152D01*
X146915648Y-103222452D01*
X146852083Y-103117650D01*
X146765520Y-102970096D01*
X146663240Y-102788222D01*
X146557725Y-102594602D01*
X146461457Y-102411811D01*
X146457066Y-102403275D01*
X146208939Y-101881598D01*
X146013264Y-101380201D01*
X145868912Y-100890089D01*
X145774757Y-100402266D01*
X145729672Y-99907737D01*
X145732528Y-99397507D01*
X145782200Y-98862579D01*
X145877560Y-98293959D01*
X145917972Y-98101444D01*
X145952135Y-97943996D01*
X145980744Y-97808981D01*
X146001305Y-97708414D01*
X146011323Y-97654310D01*
X146011900Y-97649006D01*
X145982294Y-97639304D01*
X145902031Y-97631468D01*
X145783949Y-97626387D01*
X145663874Y-97624900D01*
X145315848Y-97624900D01*
X145284025Y-97743962D01*
G36*
X147538275Y-97743962D02*
X147445964Y-98125504D01*
X147380516Y-98486684D01*
X147339699Y-98847561D01*
X147321282Y-99228192D01*
X147323032Y-99648636D01*
X147323654Y-99672775D01*
X147340312Y-100046432D01*
X147371099Y-100377643D01*
X147419482Y-100686559D01*
X147488927Y-100993333D01*
X147582900Y-101318116D01*
X147633317Y-101473131D01*
X147710200Y-101695412D01*
X147787800Y-101901545D01*
X147870876Y-102101449D01*
X147964183Y-102305045D01*
X148072479Y-102522250D01*
X148200523Y-102762985D01*
X148353070Y-103037168D01*
X148534880Y-103354719D01*
X148539963Y-103363511D01*
X148599525Y-103466498D01*
X148958587Y-103466699D01*
X149099312Y-103464829D01*
X149211587Y-103459597D01*
X149283429Y-103451824D01*
X149303486Y-103443087D01*
X149282146Y-103407723D01*
X149235178Y-103330152D01*
X149169898Y-103222452D01*
X149106333Y-103117650D01*
X149019770Y-102970096D01*
X148917490Y-102788222D01*
X148811975Y-102594602D01*
X148715707Y-102411811D01*
X148711316Y-102403275D01*
X148463189Y-101881598D01*
X148267514Y-101380201D01*
X148123162Y-100890089D01*
X148029007Y-100402266D01*
X147983922Y-99907737D01*
X147986778Y-99397507D01*
X148036450Y-98862579D01*
X148131810Y-98293959D01*
X148172222Y-98101444D01*
X148206385Y-97943996D01*
X148234994Y-97808981D01*
X148255555Y-97708414D01*
X148265573Y-97654310D01*
X148266150Y-97649006D01*
X148236544Y-97639304D01*
X148156281Y-97631468D01*
X148038199Y-97626387D01*
X147918124Y-97624900D01*
X147570098Y-97624900D01*
X147538275Y-97743962D01*
X147538275Y-97743962D01*
G37*
X147538275Y-97743962D02*
X147445964Y-98125504D01*
X147380516Y-98486684D01*
X147339699Y-98847561D01*
X147321282Y-99228192D01*
X147323032Y-99648636D01*
X147323654Y-99672775D01*
X147340312Y-100046432D01*
X147371099Y-100377643D01*
X147419482Y-100686559D01*
X147488927Y-100993333D01*
X147582900Y-101318116D01*
X147633317Y-101473131D01*
X147710200Y-101695412D01*
X147787800Y-101901545D01*
X147870876Y-102101449D01*
X147964183Y-102305045D01*
X148072479Y-102522250D01*
X148200523Y-102762985D01*
X148353070Y-103037168D01*
X148534880Y-103354719D01*
X148539963Y-103363511D01*
X148599525Y-103466498D01*
X148958587Y-103466699D01*
X149099312Y-103464829D01*
X149211587Y-103459597D01*
X149283429Y-103451824D01*
X149303486Y-103443087D01*
X149282146Y-103407723D01*
X149235178Y-103330152D01*
X149169898Y-103222452D01*
X149106333Y-103117650D01*
X149019770Y-102970096D01*
X148917490Y-102788222D01*
X148811975Y-102594602D01*
X148715707Y-102411811D01*
X148711316Y-102403275D01*
X148463189Y-101881598D01*
X148267514Y-101380201D01*
X148123162Y-100890089D01*
X148029007Y-100402266D01*
X147983922Y-99907737D01*
X147986778Y-99397507D01*
X148036450Y-98862579D01*
X148131810Y-98293959D01*
X148172222Y-98101444D01*
X148206385Y-97943996D01*
X148234994Y-97808981D01*
X148255555Y-97708414D01*
X148265573Y-97654310D01*
X148266150Y-97649006D01*
X148236544Y-97639304D01*
X148156281Y-97631468D01*
X148038199Y-97626387D01*
X147918124Y-97624900D01*
X147570098Y-97624900D01*
X147538275Y-97743962D01*
D10*
G04 #@! TO.C,J2*
X148947200Y-92523800D02*
G75*
G03X148947200Y-92523800I-950000J0D01*
G01*
G04 #@! TO.C,J6*
X159107200Y-92523800D02*
G75*
G03X159107200Y-92523800I-950000J0D01*
G01*
G04 #@! TO.C,J5*
X156567200Y-92523800D02*
G75*
G03X156567200Y-92523800I-950000J0D01*
G01*
G04 #@! TO.C,J4*
X154027200Y-92506800D02*
G75*
G03X154027200Y-92506800I-950000J0D01*
G01*
G04 #@! TO.C,J3*
X151487200Y-92523800D02*
G75*
G03X151487200Y-92523800I-950000J0D01*
G01*
G04 #@! TD*
M02*
