G04 #@! TF.GenerationSoftware,KiCad,Pcbnew,(6.0.0-rc1-dev-479-g831c9b6f6-dirty)*
G04 #@! TF.CreationDate,2018-09-12T23:56:38+02:00*
G04 #@! TF.ProjectId,RapTorS,526170546F72532E6B696361645F7063,rev?*
G04 #@! TF.SameCoordinates,Original*
G04 #@! TF.FileFunction,Copper,L2,Bot,Signal*
G04 #@! TF.FilePolarity,Positive*
%FSLAX46Y46*%
G04 Gerber Fmt 4.6, Leading zero omitted, Abs format (unit mm)*
G04 Created by KiCad (PCBNEW (6.0.0-rc1-dev-479-g831c9b6f6-dirty)) date 2018 September 12, Wednesday 23:56:38*
%MOMM*%
%LPD*%
G01*
G04 APERTURE LIST*
G04 #@! TA.AperFunction,BGAPad,CuDef*
%ADD10C,1.500000*%
G04 #@! TD*
G04 #@! TA.AperFunction,ComponentPad*
%ADD11C,2.000000*%
G04 #@! TD*
G04 #@! TA.AperFunction,Conductor*
%ADD12C,0.100000*%
G04 #@! TD*
G04 #@! TA.AperFunction,ComponentPad*
%ADD13C,1.300000*%
G04 #@! TD*
G04 #@! TA.AperFunction,ViaPad*
%ADD14C,0.800000*%
G04 #@! TD*
G04 #@! TA.AperFunction,Conductor*
%ADD15C,0.250000*%
G04 #@! TD*
G04 #@! TA.AperFunction,Conductor*
%ADD16C,0.254000*%
G04 #@! TD*
G04 APERTURE END LIST*
D10*
G04 #@! TO.P,J6,1*
G04 #@! TO.N,SWCLK*
X150489200Y-108771400D03*
G04 #@! TD*
G04 #@! TO.P,J5,1*
G04 #@! TO.N,SWDIO*
X153029200Y-108771400D03*
G04 #@! TD*
G04 #@! TO.P,J4,1*
G04 #@! TO.N,GND*
X147949200Y-108771400D03*
G04 #@! TD*
G04 #@! TO.P,J3,1*
G04 #@! TO.N,+3V3*
X158109200Y-108771400D03*
G04 #@! TD*
G04 #@! TO.P,J2,1*
G04 #@! TO.N,~RESET*
X155569200Y-108771400D03*
G04 #@! TD*
D11*
G04 #@! TO.P,ANT1,1*
G04 #@! TO.N,Net-(ANT1-Pad1)*
X180009800Y-108153200D03*
G04 #@! TD*
D12*
G04 #@! TO.N,Net-(J1-Pad5)*
G04 #@! TO.C,J1*
G36*
X142523911Y-105863729D02*
X142587009Y-105873089D01*
X142648885Y-105888588D01*
X142708944Y-105910077D01*
X142766608Y-105937350D01*
X142821321Y-105970144D01*
X142872556Y-106008142D01*
X142919819Y-106050980D01*
X142962657Y-106098243D01*
X143000655Y-106149478D01*
X143033449Y-106204191D01*
X143060722Y-106261855D01*
X143082211Y-106321914D01*
X143097710Y-106383790D01*
X143107070Y-106446888D01*
X143110200Y-106510599D01*
X143110200Y-106510601D01*
X143107070Y-106574312D01*
X143097710Y-106637410D01*
X143082211Y-106699286D01*
X143060722Y-106759345D01*
X143033449Y-106817009D01*
X143000655Y-106871722D01*
X142962657Y-106922957D01*
X142919819Y-106970220D01*
X142872556Y-107013058D01*
X142821321Y-107051056D01*
X142766608Y-107083850D01*
X142708944Y-107111123D01*
X142648885Y-107132612D01*
X142587009Y-107148111D01*
X142523911Y-107157471D01*
X142460200Y-107160601D01*
X140560200Y-107160601D01*
X140496489Y-107157471D01*
X140433391Y-107148111D01*
X140371515Y-107132612D01*
X140311456Y-107111123D01*
X140253792Y-107083850D01*
X140199079Y-107051056D01*
X140147844Y-107013058D01*
X140100581Y-106970220D01*
X140057743Y-106922957D01*
X140019745Y-106871722D01*
X139986951Y-106817009D01*
X139959678Y-106759345D01*
X139938189Y-106699286D01*
X139922690Y-106637410D01*
X139913330Y-106574312D01*
X139910200Y-106510601D01*
X139910200Y-106510599D01*
X139913330Y-106446888D01*
X139922690Y-106383790D01*
X139938189Y-106321914D01*
X139959678Y-106261855D01*
X139986951Y-106204191D01*
X140019745Y-106149478D01*
X140057743Y-106098243D01*
X140100581Y-106050980D01*
X140147844Y-106008142D01*
X140199079Y-105970144D01*
X140253792Y-105937350D01*
X140311456Y-105910077D01*
X140371515Y-105888588D01*
X140433391Y-105873089D01*
X140496489Y-105863729D01*
X140560200Y-105860599D01*
X142460200Y-105860599D01*
X142523911Y-105863729D01*
X142523911Y-105863729D01*
G37*
D13*
G04 #@! TD*
G04 #@! TO.P,J1,5*
G04 #@! TO.N,Net-(J1-Pad5)*
X141510200Y-106510600D03*
D12*
G04 #@! TO.N,Net-(J1-Pad5)*
G04 #@! TO.C,J1*
G36*
X142523911Y-94163729D02*
X142587009Y-94173089D01*
X142648885Y-94188588D01*
X142708944Y-94210077D01*
X142766608Y-94237350D01*
X142821321Y-94270144D01*
X142872556Y-94308142D01*
X142919819Y-94350980D01*
X142962657Y-94398243D01*
X143000655Y-94449478D01*
X143033449Y-94504191D01*
X143060722Y-94561855D01*
X143082211Y-94621914D01*
X143097710Y-94683790D01*
X143107070Y-94746888D01*
X143110200Y-94810599D01*
X143110200Y-94810601D01*
X143107070Y-94874312D01*
X143097710Y-94937410D01*
X143082211Y-94999286D01*
X143060722Y-95059345D01*
X143033449Y-95117009D01*
X143000655Y-95171722D01*
X142962657Y-95222957D01*
X142919819Y-95270220D01*
X142872556Y-95313058D01*
X142821321Y-95351056D01*
X142766608Y-95383850D01*
X142708944Y-95411123D01*
X142648885Y-95432612D01*
X142587009Y-95448111D01*
X142523911Y-95457471D01*
X142460200Y-95460601D01*
X140560200Y-95460601D01*
X140496489Y-95457471D01*
X140433391Y-95448111D01*
X140371515Y-95432612D01*
X140311456Y-95411123D01*
X140253792Y-95383850D01*
X140199079Y-95351056D01*
X140147844Y-95313058D01*
X140100581Y-95270220D01*
X140057743Y-95222957D01*
X140019745Y-95171722D01*
X139986951Y-95117009D01*
X139959678Y-95059345D01*
X139938189Y-94999286D01*
X139922690Y-94937410D01*
X139913330Y-94874312D01*
X139910200Y-94810601D01*
X139910200Y-94810599D01*
X139913330Y-94746888D01*
X139922690Y-94683790D01*
X139938189Y-94621914D01*
X139959678Y-94561855D01*
X139986951Y-94504191D01*
X140019745Y-94449478D01*
X140057743Y-94398243D01*
X140100581Y-94350980D01*
X140147844Y-94308142D01*
X140199079Y-94270144D01*
X140253792Y-94237350D01*
X140311456Y-94210077D01*
X140371515Y-94188588D01*
X140433391Y-94173089D01*
X140496489Y-94163729D01*
X140560200Y-94160599D01*
X142460200Y-94160599D01*
X142523911Y-94163729D01*
X142523911Y-94163729D01*
G37*
D13*
G04 #@! TD*
G04 #@! TO.P,J1,5*
G04 #@! TO.N,Net-(J1-Pad5)*
X141510200Y-94810600D03*
D14*
G04 #@! TO.N,+3V3*
X158826200Y-103505000D03*
X155778200Y-106349800D03*
X157226000Y-96850200D03*
G04 #@! TO.N,GND*
X154482800Y-100457000D03*
X154533600Y-101727000D03*
X153289000Y-101701600D03*
X153289000Y-100482400D03*
X160959800Y-101244400D03*
X146913600Y-101015800D03*
X147929600Y-97129600D03*
X149402800Y-92557600D03*
X147624800Y-92659200D03*
X150215600Y-96037400D03*
X157810200Y-95453200D03*
X165100000Y-104216200D03*
X179730400Y-96977200D03*
X179755800Y-100076000D03*
X182422800Y-103759000D03*
X182346600Y-106730800D03*
X177012600Y-108432600D03*
X172389800Y-108559600D03*
X167792400Y-108559600D03*
X163296600Y-108610400D03*
X144703800Y-108508800D03*
X147878800Y-106172000D03*
X163093400Y-92887800D03*
X170611800Y-92887800D03*
X179908200Y-92811600D03*
X170611800Y-97790000D03*
X170611800Y-104165400D03*
X143916400Y-92710000D03*
G04 #@! TO.N,~RESET*
X157556200Y-98577400D03*
G04 #@! TO.N,SWCLK*
X150469600Y-106857800D03*
G04 #@! TO.N,SWDIO*
X152958800Y-106857800D03*
G04 #@! TD*
D15*
G04 #@! TO.N,+3V3*
X158826200Y-98755200D02*
X158826200Y-103505000D01*
X155981400Y-106349800D02*
X155778200Y-106349800D01*
X158826200Y-103505000D02*
X155981400Y-106349800D01*
X158109200Y-107391200D02*
X158109200Y-108771400D01*
X157855200Y-107137200D02*
X158109200Y-107391200D01*
X155999915Y-107137200D02*
X157855200Y-107137200D01*
X155778200Y-106915485D02*
X155999915Y-107137200D01*
X155778200Y-106349800D02*
X155778200Y-106915485D01*
X158826200Y-98450400D02*
X158826200Y-98755200D01*
X157226000Y-96850200D02*
X158826200Y-98450400D01*
G04 #@! TO.N,~RESET*
X154330400Y-106299000D02*
X154330400Y-107532600D01*
X154330400Y-107532600D02*
X155569200Y-108771400D01*
X157556200Y-103073200D02*
X154330400Y-106299000D01*
X157556200Y-98577400D02*
X157556200Y-103073200D01*
G04 #@! TO.N,SWCLK*
X150469600Y-108751800D02*
X150489200Y-108771400D01*
X150469600Y-106857800D02*
X150469600Y-108751800D01*
G04 #@! TO.N,SWDIO*
X152679400Y-108421600D02*
X153029200Y-108771400D01*
X152958800Y-108701000D02*
X153029200Y-108771400D01*
X152958800Y-106857800D02*
X152958800Y-108701000D01*
G04 #@! TD*
D16*
G04 #@! TO.N,GND*
G36*
X183065201Y-109465600D02*
X181009639Y-109465600D01*
X181395886Y-109079353D01*
X181644800Y-108478422D01*
X181644800Y-107827978D01*
X181395886Y-107227047D01*
X180935953Y-106767114D01*
X180335022Y-106518200D01*
X179684578Y-106518200D01*
X179083647Y-106767114D01*
X178623714Y-107227047D01*
X178374800Y-107827978D01*
X178374800Y-108478422D01*
X178623714Y-109079353D01*
X179009961Y-109465600D01*
X159320767Y-109465600D01*
X159494200Y-109046894D01*
X159494200Y-108495906D01*
X159283347Y-107986860D01*
X158893740Y-107597253D01*
X158869200Y-107587088D01*
X158869200Y-107466046D01*
X158884088Y-107391199D01*
X158869200Y-107316352D01*
X158869200Y-107316348D01*
X158825104Y-107094663D01*
X158657129Y-106843271D01*
X158593670Y-106800869D01*
X158445531Y-106652730D01*
X158403129Y-106589271D01*
X158151737Y-106421296D01*
X157930052Y-106377200D01*
X157930047Y-106377200D01*
X157855200Y-106362312D01*
X157780353Y-106377200D01*
X157028801Y-106377200D01*
X158866002Y-104540000D01*
X159032074Y-104540000D01*
X159412480Y-104382431D01*
X159703631Y-104091280D01*
X159861200Y-103710874D01*
X159861200Y-103299126D01*
X159703631Y-102918720D01*
X159586200Y-102801289D01*
X159586200Y-98525248D01*
X159601088Y-98450400D01*
X159586200Y-98375552D01*
X159586200Y-98375548D01*
X159542104Y-98153863D01*
X159374129Y-97902471D01*
X159310673Y-97860071D01*
X158261000Y-96810399D01*
X158261000Y-96644326D01*
X158103431Y-96263920D01*
X157812280Y-95972769D01*
X157431874Y-95815200D01*
X157020126Y-95815200D01*
X156639720Y-95972769D01*
X156348569Y-96263920D01*
X156191000Y-96644326D01*
X156191000Y-97056074D01*
X156348569Y-97436480D01*
X156639720Y-97727631D01*
X156853647Y-97816242D01*
X156678769Y-97991120D01*
X156521200Y-98371526D01*
X156521200Y-98783274D01*
X156678769Y-99163680D01*
X156796200Y-99281111D01*
X156796201Y-102758397D01*
X153845930Y-105708669D01*
X153782471Y-105751071D01*
X153614496Y-106002464D01*
X153606645Y-106041934D01*
X153545080Y-105980369D01*
X153164674Y-105822800D01*
X152752926Y-105822800D01*
X152372520Y-105980369D01*
X152081369Y-106271520D01*
X151923800Y-106651926D01*
X151923800Y-107063674D01*
X152081369Y-107444080D01*
X152198800Y-107561511D01*
X152198800Y-107643113D01*
X151855053Y-107986860D01*
X151759200Y-108218270D01*
X151663347Y-107986860D01*
X151273740Y-107597253D01*
X151229600Y-107578970D01*
X151229600Y-107561511D01*
X151347031Y-107444080D01*
X151504600Y-107063674D01*
X151504600Y-106651926D01*
X151347031Y-106271520D01*
X151055880Y-105980369D01*
X150675474Y-105822800D01*
X150263726Y-105822800D01*
X149883320Y-105980369D01*
X149592169Y-106271520D01*
X149434600Y-106651926D01*
X149434600Y-107063674D01*
X149592169Y-107444080D01*
X149709600Y-107561511D01*
X149709600Y-107595207D01*
X149704660Y-107597253D01*
X149315053Y-107986860D01*
X149225803Y-108202330D01*
X149161660Y-108047477D01*
X148920717Y-107979488D01*
X148128805Y-108771400D01*
X148142948Y-108785543D01*
X147963343Y-108965148D01*
X147949200Y-108951005D01*
X147935058Y-108965148D01*
X147755453Y-108785543D01*
X147769595Y-108771400D01*
X146977683Y-107979488D01*
X146736740Y-108047477D01*
X146551999Y-108566571D01*
X146579970Y-109116848D01*
X146724428Y-109465600D01*
X139455200Y-109465600D01*
X139455200Y-107147309D01*
X139642771Y-107428030D01*
X140063691Y-107709279D01*
X140560200Y-107808041D01*
X142460200Y-107808041D01*
X142501212Y-107799883D01*
X147157288Y-107799883D01*
X147949200Y-108591795D01*
X148741112Y-107799883D01*
X148673123Y-107558940D01*
X148154029Y-107374199D01*
X147603752Y-107402170D01*
X147225277Y-107558940D01*
X147157288Y-107799883D01*
X142501212Y-107799883D01*
X142956709Y-107709279D01*
X143377629Y-107428030D01*
X143658878Y-107007110D01*
X143757640Y-106510601D01*
X143757640Y-106510599D01*
X143658878Y-106014090D01*
X143377629Y-105593170D01*
X142956709Y-105311921D01*
X142460200Y-105213159D01*
X140560200Y-105213159D01*
X140063691Y-105311921D01*
X139642771Y-105593170D01*
X139455200Y-105873891D01*
X139455200Y-102674889D01*
X140325200Y-102674889D01*
X140325200Y-103146311D01*
X140505605Y-103581849D01*
X140838951Y-103915195D01*
X141274489Y-104095600D01*
X141745911Y-104095600D01*
X142181449Y-103915195D01*
X142514795Y-103581849D01*
X142695200Y-103146311D01*
X142695200Y-102674889D01*
X142514795Y-102239351D01*
X142181449Y-101906005D01*
X141745911Y-101725600D01*
X141274489Y-101725600D01*
X140838951Y-101906005D01*
X140505605Y-102239351D01*
X140325200Y-102674889D01*
X139455200Y-102674889D01*
X139455200Y-98174889D01*
X140325200Y-98174889D01*
X140325200Y-98646311D01*
X140505605Y-99081849D01*
X140838951Y-99415195D01*
X141274489Y-99595600D01*
X141745911Y-99595600D01*
X142181449Y-99415195D01*
X142514795Y-99081849D01*
X142695200Y-98646311D01*
X142695200Y-98174889D01*
X142514795Y-97739351D01*
X142181449Y-97406005D01*
X141745911Y-97225600D01*
X141274489Y-97225600D01*
X140838951Y-97406005D01*
X140505605Y-97739351D01*
X140325200Y-98174889D01*
X139455200Y-98174889D01*
X139455200Y-95447309D01*
X139642771Y-95728030D01*
X140063691Y-96009279D01*
X140560200Y-96108041D01*
X142460200Y-96108041D01*
X142956709Y-96009279D01*
X143377629Y-95728030D01*
X143658878Y-95307110D01*
X143757640Y-94810601D01*
X143757640Y-94810599D01*
X143658878Y-94314090D01*
X143377629Y-93893170D01*
X142956709Y-93611921D01*
X142460200Y-93513159D01*
X140560200Y-93513159D01*
X140063691Y-93611921D01*
X139642771Y-93893170D01*
X139455200Y-94173891D01*
X139455200Y-91855600D01*
X183065200Y-91855600D01*
X183065201Y-109465600D01*
X183065201Y-109465600D01*
G37*
X183065201Y-109465600D02*
X181009639Y-109465600D01*
X181395886Y-109079353D01*
X181644800Y-108478422D01*
X181644800Y-107827978D01*
X181395886Y-107227047D01*
X180935953Y-106767114D01*
X180335022Y-106518200D01*
X179684578Y-106518200D01*
X179083647Y-106767114D01*
X178623714Y-107227047D01*
X178374800Y-107827978D01*
X178374800Y-108478422D01*
X178623714Y-109079353D01*
X179009961Y-109465600D01*
X159320767Y-109465600D01*
X159494200Y-109046894D01*
X159494200Y-108495906D01*
X159283347Y-107986860D01*
X158893740Y-107597253D01*
X158869200Y-107587088D01*
X158869200Y-107466046D01*
X158884088Y-107391199D01*
X158869200Y-107316352D01*
X158869200Y-107316348D01*
X158825104Y-107094663D01*
X158657129Y-106843271D01*
X158593670Y-106800869D01*
X158445531Y-106652730D01*
X158403129Y-106589271D01*
X158151737Y-106421296D01*
X157930052Y-106377200D01*
X157930047Y-106377200D01*
X157855200Y-106362312D01*
X157780353Y-106377200D01*
X157028801Y-106377200D01*
X158866002Y-104540000D01*
X159032074Y-104540000D01*
X159412480Y-104382431D01*
X159703631Y-104091280D01*
X159861200Y-103710874D01*
X159861200Y-103299126D01*
X159703631Y-102918720D01*
X159586200Y-102801289D01*
X159586200Y-98525248D01*
X159601088Y-98450400D01*
X159586200Y-98375552D01*
X159586200Y-98375548D01*
X159542104Y-98153863D01*
X159374129Y-97902471D01*
X159310673Y-97860071D01*
X158261000Y-96810399D01*
X158261000Y-96644326D01*
X158103431Y-96263920D01*
X157812280Y-95972769D01*
X157431874Y-95815200D01*
X157020126Y-95815200D01*
X156639720Y-95972769D01*
X156348569Y-96263920D01*
X156191000Y-96644326D01*
X156191000Y-97056074D01*
X156348569Y-97436480D01*
X156639720Y-97727631D01*
X156853647Y-97816242D01*
X156678769Y-97991120D01*
X156521200Y-98371526D01*
X156521200Y-98783274D01*
X156678769Y-99163680D01*
X156796200Y-99281111D01*
X156796201Y-102758397D01*
X153845930Y-105708669D01*
X153782471Y-105751071D01*
X153614496Y-106002464D01*
X153606645Y-106041934D01*
X153545080Y-105980369D01*
X153164674Y-105822800D01*
X152752926Y-105822800D01*
X152372520Y-105980369D01*
X152081369Y-106271520D01*
X151923800Y-106651926D01*
X151923800Y-107063674D01*
X152081369Y-107444080D01*
X152198800Y-107561511D01*
X152198800Y-107643113D01*
X151855053Y-107986860D01*
X151759200Y-108218270D01*
X151663347Y-107986860D01*
X151273740Y-107597253D01*
X151229600Y-107578970D01*
X151229600Y-107561511D01*
X151347031Y-107444080D01*
X151504600Y-107063674D01*
X151504600Y-106651926D01*
X151347031Y-106271520D01*
X151055880Y-105980369D01*
X150675474Y-105822800D01*
X150263726Y-105822800D01*
X149883320Y-105980369D01*
X149592169Y-106271520D01*
X149434600Y-106651926D01*
X149434600Y-107063674D01*
X149592169Y-107444080D01*
X149709600Y-107561511D01*
X149709600Y-107595207D01*
X149704660Y-107597253D01*
X149315053Y-107986860D01*
X149225803Y-108202330D01*
X149161660Y-108047477D01*
X148920717Y-107979488D01*
X148128805Y-108771400D01*
X148142948Y-108785543D01*
X147963343Y-108965148D01*
X147949200Y-108951005D01*
X147935058Y-108965148D01*
X147755453Y-108785543D01*
X147769595Y-108771400D01*
X146977683Y-107979488D01*
X146736740Y-108047477D01*
X146551999Y-108566571D01*
X146579970Y-109116848D01*
X146724428Y-109465600D01*
X139455200Y-109465600D01*
X139455200Y-107147309D01*
X139642771Y-107428030D01*
X140063691Y-107709279D01*
X140560200Y-107808041D01*
X142460200Y-107808041D01*
X142501212Y-107799883D01*
X147157288Y-107799883D01*
X147949200Y-108591795D01*
X148741112Y-107799883D01*
X148673123Y-107558940D01*
X148154029Y-107374199D01*
X147603752Y-107402170D01*
X147225277Y-107558940D01*
X147157288Y-107799883D01*
X142501212Y-107799883D01*
X142956709Y-107709279D01*
X143377629Y-107428030D01*
X143658878Y-107007110D01*
X143757640Y-106510601D01*
X143757640Y-106510599D01*
X143658878Y-106014090D01*
X143377629Y-105593170D01*
X142956709Y-105311921D01*
X142460200Y-105213159D01*
X140560200Y-105213159D01*
X140063691Y-105311921D01*
X139642771Y-105593170D01*
X139455200Y-105873891D01*
X139455200Y-102674889D01*
X140325200Y-102674889D01*
X140325200Y-103146311D01*
X140505605Y-103581849D01*
X140838951Y-103915195D01*
X141274489Y-104095600D01*
X141745911Y-104095600D01*
X142181449Y-103915195D01*
X142514795Y-103581849D01*
X142695200Y-103146311D01*
X142695200Y-102674889D01*
X142514795Y-102239351D01*
X142181449Y-101906005D01*
X141745911Y-101725600D01*
X141274489Y-101725600D01*
X140838951Y-101906005D01*
X140505605Y-102239351D01*
X140325200Y-102674889D01*
X139455200Y-102674889D01*
X139455200Y-98174889D01*
X140325200Y-98174889D01*
X140325200Y-98646311D01*
X140505605Y-99081849D01*
X140838951Y-99415195D01*
X141274489Y-99595600D01*
X141745911Y-99595600D01*
X142181449Y-99415195D01*
X142514795Y-99081849D01*
X142695200Y-98646311D01*
X142695200Y-98174889D01*
X142514795Y-97739351D01*
X142181449Y-97406005D01*
X141745911Y-97225600D01*
X141274489Y-97225600D01*
X140838951Y-97406005D01*
X140505605Y-97739351D01*
X140325200Y-98174889D01*
X139455200Y-98174889D01*
X139455200Y-95447309D01*
X139642771Y-95728030D01*
X140063691Y-96009279D01*
X140560200Y-96108041D01*
X142460200Y-96108041D01*
X142956709Y-96009279D01*
X143377629Y-95728030D01*
X143658878Y-95307110D01*
X143757640Y-94810601D01*
X143757640Y-94810599D01*
X143658878Y-94314090D01*
X143377629Y-93893170D01*
X142956709Y-93611921D01*
X142460200Y-93513159D01*
X140560200Y-93513159D01*
X140063691Y-93611921D01*
X139642771Y-93893170D01*
X139455200Y-94173891D01*
X139455200Y-91855600D01*
X183065200Y-91855600D01*
X183065201Y-109465600D01*
G04 #@! TD*
M02*
