M48
;DRILL file {KiCad (6.0.0-rc1-dev-438-g6845ac2cc-dirty)} date 2018 August 30, Thursday 21:51:34
;FORMAT={3:3/ absolute / metric / suppress leading zeros}
FMAT,2
METRIC,TZ
T1C0.400
T2C0.700
T3C1.000
T4C1.100
%
G90
G05
M71
T1
X139827Y-108687
X140132Y-92558
X140767Y-104521
X141986Y-92558
X144094Y-92608
X145237Y-94005
X146685Y-98577
X147117Y-108560
X148184Y-96596
X148590Y-102311
X149301Y-93727
X149428Y-108560
X149657Y-103073
X150622Y-107366
X151206Y-102083
X151790Y-108560
X151841Y-93600
X152603Y-95529
X153594Y-101194
X154432Y-95961
X155346Y-99314
X155353Y-95091
X157505Y-96012
X157505Y-101117
X159429Y-100171
X159436Y-97841
X160477Y-92329
X165100Y-98806
X165151Y-96876
X165151Y-100660
X165583Y-104165
X166776Y-95656
X166776Y-97688
X166776Y-99517
X166827Y-101346
X167488Y-92431
X168326Y-96774
X168326Y-98603
X168326Y-100482
X168326Y-104191
X171704Y-93370
X171704Y-97511
X172237Y-106985
X173812Y-95352
X173914Y-100178
X174066Y-104496
X175412Y-93193
X175793Y-106909
X176047Y-97765
X177343Y-100228
X179324Y-96063
X180416Y-109118
T3
X179680Y-106604
T4
X141510Y-98411
X141510Y-102911
T2
X142410Y-94811G85X140610Y-94811
G05
X142410Y-106511G85X140610Y-106511
G05
T0
M30
