G04 #@! TF.GenerationSoftware,KiCad,Pcbnew,(6.0.0-rc1-dev-479-g831c9b6f6-dirty)*
G04 #@! TF.CreationDate,2018-09-12T23:56:39+02:00*
G04 #@! TF.ProjectId,RapTorS,526170546F72532E6B696361645F7063,rev?*
G04 #@! TF.SameCoordinates,Original*
G04 #@! TF.FileFunction,Soldermask,Bot*
G04 #@! TF.FilePolarity,Negative*
%FSLAX46Y46*%
G04 Gerber Fmt 4.6, Leading zero omitted, Abs format (unit mm)*
G04 Created by KiCad (PCBNEW (6.0.0-rc1-dev-479-g831c9b6f6-dirty)) date 2018 September 12, Wednesday 23:56:39*
%MOMM*%
%LPD*%
G01*
G04 APERTURE LIST*
%ADD10C,0.100000*%
G04 APERTURE END LIST*
D10*
G36*
X158248651Y-107830527D02*
X158386305Y-107857908D01*
X158559194Y-107929521D01*
X158714790Y-108033487D01*
X158847113Y-108165810D01*
X158951079Y-108321406D01*
X159022692Y-108494295D01*
X159059200Y-108677833D01*
X159059200Y-108864967D01*
X159022692Y-109048505D01*
X158951079Y-109221394D01*
X158847113Y-109376990D01*
X158714790Y-109509313D01*
X158559194Y-109613279D01*
X158386305Y-109684892D01*
X158248651Y-109712273D01*
X158202768Y-109721400D01*
X158015632Y-109721400D01*
X157969749Y-109712273D01*
X157832095Y-109684892D01*
X157659206Y-109613279D01*
X157503610Y-109509313D01*
X157371287Y-109376990D01*
X157267321Y-109221394D01*
X157195708Y-109048505D01*
X157159200Y-108864967D01*
X157159200Y-108677833D01*
X157195708Y-108494295D01*
X157267321Y-108321406D01*
X157371287Y-108165810D01*
X157503610Y-108033487D01*
X157659206Y-107929521D01*
X157832095Y-107857908D01*
X157969749Y-107830527D01*
X158015632Y-107821400D01*
X158202768Y-107821400D01*
X158248651Y-107830527D01*
X158248651Y-107830527D01*
G37*
G36*
X155708651Y-107830527D02*
X155846305Y-107857908D01*
X156019194Y-107929521D01*
X156174790Y-108033487D01*
X156307113Y-108165810D01*
X156411079Y-108321406D01*
X156482692Y-108494295D01*
X156519200Y-108677833D01*
X156519200Y-108864967D01*
X156482692Y-109048505D01*
X156411079Y-109221394D01*
X156307113Y-109376990D01*
X156174790Y-109509313D01*
X156019194Y-109613279D01*
X155846305Y-109684892D01*
X155708651Y-109712273D01*
X155662768Y-109721400D01*
X155475632Y-109721400D01*
X155429749Y-109712273D01*
X155292095Y-109684892D01*
X155119206Y-109613279D01*
X154963610Y-109509313D01*
X154831287Y-109376990D01*
X154727321Y-109221394D01*
X154655708Y-109048505D01*
X154619200Y-108864967D01*
X154619200Y-108677833D01*
X154655708Y-108494295D01*
X154727321Y-108321406D01*
X154831287Y-108165810D01*
X154963610Y-108033487D01*
X155119206Y-107929521D01*
X155292095Y-107857908D01*
X155429749Y-107830527D01*
X155475632Y-107821400D01*
X155662768Y-107821400D01*
X155708651Y-107830527D01*
X155708651Y-107830527D01*
G37*
G36*
X153168651Y-107830527D02*
X153306305Y-107857908D01*
X153479194Y-107929521D01*
X153634790Y-108033487D01*
X153767113Y-108165810D01*
X153871079Y-108321406D01*
X153942692Y-108494295D01*
X153979200Y-108677833D01*
X153979200Y-108864967D01*
X153942692Y-109048505D01*
X153871079Y-109221394D01*
X153767113Y-109376990D01*
X153634790Y-109509313D01*
X153479194Y-109613279D01*
X153306305Y-109684892D01*
X153168651Y-109712273D01*
X153122768Y-109721400D01*
X152935632Y-109721400D01*
X152889749Y-109712273D01*
X152752095Y-109684892D01*
X152579206Y-109613279D01*
X152423610Y-109509313D01*
X152291287Y-109376990D01*
X152187321Y-109221394D01*
X152115708Y-109048505D01*
X152079200Y-108864967D01*
X152079200Y-108677833D01*
X152115708Y-108494295D01*
X152187321Y-108321406D01*
X152291287Y-108165810D01*
X152423610Y-108033487D01*
X152579206Y-107929521D01*
X152752095Y-107857908D01*
X152889749Y-107830527D01*
X152935632Y-107821400D01*
X153122768Y-107821400D01*
X153168651Y-107830527D01*
X153168651Y-107830527D01*
G37*
G36*
X150628651Y-107830527D02*
X150766305Y-107857908D01*
X150939194Y-107929521D01*
X151094790Y-108033487D01*
X151227113Y-108165810D01*
X151331079Y-108321406D01*
X151402692Y-108494295D01*
X151439200Y-108677833D01*
X151439200Y-108864967D01*
X151402692Y-109048505D01*
X151331079Y-109221394D01*
X151227113Y-109376990D01*
X151094790Y-109509313D01*
X150939194Y-109613279D01*
X150766305Y-109684892D01*
X150628651Y-109712273D01*
X150582768Y-109721400D01*
X150395632Y-109721400D01*
X150349749Y-109712273D01*
X150212095Y-109684892D01*
X150039206Y-109613279D01*
X149883610Y-109509313D01*
X149751287Y-109376990D01*
X149647321Y-109221394D01*
X149575708Y-109048505D01*
X149539200Y-108864967D01*
X149539200Y-108677833D01*
X149575708Y-108494295D01*
X149647321Y-108321406D01*
X149751287Y-108165810D01*
X149883610Y-108033487D01*
X150039206Y-107929521D01*
X150212095Y-107857908D01*
X150349749Y-107830527D01*
X150395632Y-107821400D01*
X150582768Y-107821400D01*
X150628651Y-107830527D01*
X150628651Y-107830527D01*
G37*
G36*
X148088651Y-107830527D02*
X148226305Y-107857908D01*
X148399194Y-107929521D01*
X148554790Y-108033487D01*
X148687113Y-108165810D01*
X148791079Y-108321406D01*
X148862692Y-108494295D01*
X148899200Y-108677833D01*
X148899200Y-108864967D01*
X148862692Y-109048505D01*
X148791079Y-109221394D01*
X148687113Y-109376990D01*
X148554790Y-109509313D01*
X148399194Y-109613279D01*
X148226305Y-109684892D01*
X148088651Y-109712273D01*
X148042768Y-109721400D01*
X147855632Y-109721400D01*
X147809749Y-109712273D01*
X147672095Y-109684892D01*
X147499206Y-109613279D01*
X147343610Y-109509313D01*
X147211287Y-109376990D01*
X147107321Y-109221394D01*
X147035708Y-109048505D01*
X146999200Y-108864967D01*
X146999200Y-108677833D01*
X147035708Y-108494295D01*
X147107321Y-108321406D01*
X147211287Y-108165810D01*
X147343610Y-108033487D01*
X147499206Y-107929521D01*
X147672095Y-107857908D01*
X147809749Y-107830527D01*
X147855632Y-107821400D01*
X148042768Y-107821400D01*
X148088651Y-107830527D01*
X148088651Y-107830527D01*
G37*
G36*
X180359826Y-106999315D02*
X180578212Y-107089773D01*
X180774758Y-107221101D01*
X180941899Y-107388242D01*
X181073227Y-107584788D01*
X181163685Y-107803174D01*
X181209800Y-108035009D01*
X181209800Y-108271391D01*
X181163685Y-108503226D01*
X181073227Y-108721612D01*
X180941899Y-108918158D01*
X180774758Y-109085299D01*
X180578212Y-109216627D01*
X180359826Y-109307085D01*
X180127991Y-109353200D01*
X179891609Y-109353200D01*
X179659774Y-109307085D01*
X179441388Y-109216627D01*
X179244842Y-109085299D01*
X179077701Y-108918158D01*
X178946373Y-108721612D01*
X178855915Y-108503226D01*
X178809800Y-108271391D01*
X178809800Y-108035009D01*
X178855915Y-107803174D01*
X178946373Y-107584788D01*
X179077701Y-107388242D01*
X179244842Y-107221101D01*
X179441388Y-107089773D01*
X179659774Y-106999315D01*
X179891609Y-106953200D01*
X180127991Y-106953200D01*
X180359826Y-106999315D01*
X180359826Y-106999315D01*
G37*
G36*
X142626027Y-105676932D02*
X142785481Y-105725301D01*
X142932435Y-105803850D01*
X143061241Y-105909558D01*
X143166949Y-106038364D01*
X143245498Y-106185318D01*
X143293867Y-106344772D01*
X143310200Y-106510599D01*
X143310200Y-106510601D01*
X143293867Y-106676428D01*
X143245498Y-106835882D01*
X143166949Y-106982836D01*
X143061241Y-107111642D01*
X142932435Y-107217350D01*
X142785481Y-107295899D01*
X142626027Y-107344268D01*
X142460200Y-107360601D01*
X140560200Y-107360601D01*
X140394373Y-107344268D01*
X140234919Y-107295899D01*
X140087965Y-107217350D01*
X139959159Y-107111642D01*
X139853451Y-106982836D01*
X139774902Y-106835882D01*
X139726533Y-106676428D01*
X139710200Y-106510601D01*
X139710200Y-106510599D01*
X139726533Y-106344772D01*
X139774902Y-106185318D01*
X139853451Y-106038364D01*
X139959159Y-105909558D01*
X140087965Y-105803850D01*
X140234919Y-105725301D01*
X140394373Y-105676932D01*
X140560200Y-105660599D01*
X142460200Y-105660599D01*
X142626027Y-105676932D01*
X142626027Y-105676932D01*
G37*
G36*
X141656518Y-102175011D02*
X141728967Y-102189422D01*
X141785503Y-102212840D01*
X141865457Y-102245958D01*
X141988300Y-102328039D01*
X142092761Y-102432500D01*
X142174842Y-102555343D01*
X142231378Y-102691834D01*
X142260200Y-102836730D01*
X142260200Y-102984470D01*
X142231378Y-103129366D01*
X142174842Y-103265857D01*
X142092761Y-103388700D01*
X141988300Y-103493161D01*
X141865457Y-103575242D01*
X141785503Y-103608360D01*
X141728967Y-103631778D01*
X141656518Y-103646189D01*
X141584070Y-103660600D01*
X141436330Y-103660600D01*
X141363882Y-103646189D01*
X141291433Y-103631778D01*
X141234897Y-103608360D01*
X141154943Y-103575242D01*
X141032100Y-103493161D01*
X140927639Y-103388700D01*
X140845558Y-103265857D01*
X140789022Y-103129366D01*
X140760200Y-102984470D01*
X140760200Y-102836730D01*
X140789022Y-102691834D01*
X140845558Y-102555343D01*
X140927639Y-102432500D01*
X141032100Y-102328039D01*
X141154943Y-102245958D01*
X141234897Y-102212840D01*
X141291433Y-102189422D01*
X141363882Y-102175011D01*
X141436330Y-102160600D01*
X141584070Y-102160600D01*
X141656518Y-102175011D01*
X141656518Y-102175011D01*
G37*
G36*
X141656518Y-97675011D02*
X141728967Y-97689422D01*
X141785503Y-97712840D01*
X141865457Y-97745958D01*
X141988300Y-97828039D01*
X142092761Y-97932500D01*
X142174842Y-98055343D01*
X142231378Y-98191834D01*
X142260200Y-98336730D01*
X142260200Y-98484470D01*
X142231378Y-98629366D01*
X142174842Y-98765857D01*
X142092761Y-98888700D01*
X141988300Y-98993161D01*
X141865457Y-99075242D01*
X141785503Y-99108360D01*
X141728967Y-99131778D01*
X141656518Y-99146189D01*
X141584070Y-99160600D01*
X141436330Y-99160600D01*
X141363882Y-99146189D01*
X141291433Y-99131778D01*
X141234897Y-99108360D01*
X141154943Y-99075242D01*
X141032100Y-98993161D01*
X140927639Y-98888700D01*
X140845558Y-98765857D01*
X140789022Y-98629366D01*
X140760200Y-98484470D01*
X140760200Y-98336730D01*
X140789022Y-98191834D01*
X140845558Y-98055343D01*
X140927639Y-97932500D01*
X141032100Y-97828039D01*
X141154943Y-97745958D01*
X141234897Y-97712840D01*
X141291433Y-97689422D01*
X141363882Y-97675011D01*
X141436330Y-97660600D01*
X141584070Y-97660600D01*
X141656518Y-97675011D01*
X141656518Y-97675011D01*
G37*
G36*
X142626027Y-93976932D02*
X142785481Y-94025301D01*
X142932435Y-94103850D01*
X143061241Y-94209558D01*
X143166949Y-94338364D01*
X143245498Y-94485318D01*
X143293867Y-94644772D01*
X143310200Y-94810599D01*
X143310200Y-94810601D01*
X143293867Y-94976428D01*
X143245498Y-95135882D01*
X143166949Y-95282836D01*
X143061241Y-95411642D01*
X142932435Y-95517350D01*
X142785481Y-95595899D01*
X142626027Y-95644268D01*
X142460200Y-95660601D01*
X140560200Y-95660601D01*
X140394373Y-95644268D01*
X140234919Y-95595899D01*
X140087965Y-95517350D01*
X139959159Y-95411642D01*
X139853451Y-95282836D01*
X139774902Y-95135882D01*
X139726533Y-94976428D01*
X139710200Y-94810601D01*
X139710200Y-94810599D01*
X139726533Y-94644772D01*
X139774902Y-94485318D01*
X139853451Y-94338364D01*
X139959159Y-94209558D01*
X140087965Y-94103850D01*
X140234919Y-94025301D01*
X140394373Y-93976932D01*
X140560200Y-93960599D01*
X142460200Y-93960599D01*
X142626027Y-93976932D01*
X142626027Y-93976932D01*
G37*
M02*
