G04 #@! TF.GenerationSoftware,KiCad,Pcbnew,(6.0.0-rc1-dev-438-g6845ac2cc-dirty)*
G04 #@! TF.CreationDate,2018-08-30T21:51:25+02:00*
G04 #@! TF.ProjectId,RapTorS,526170546F72532E6B696361645F7063,rev?*
G04 #@! TF.SameCoordinates,Original*
G04 #@! TF.FileFunction,Legend,Top*
G04 #@! TF.FilePolarity,Positive*
%FSLAX46Y46*%
G04 Gerber Fmt 4.6, Leading zero omitted, Abs format (unit mm)*
G04 Created by KiCad (PCBNEW (6.0.0-rc1-dev-438-g6845ac2cc-dirty)) date 2018 August 30, Thursday 21:51:26*
%MOMM*%
%LPD*%
G01*
G04 APERTURE LIST*
%ADD10C,0.120000*%
%ADD11C,0.150000*%
G04 APERTURE END LIST*
D10*
X180619400Y-97688400D02*
X181787800Y-97688400D01*
X180263800Y-97688400D02*
X180619400Y-97688400D01*
X180695600Y-99491800D02*
X181813200Y-101320600D01*
X180289200Y-99491800D02*
X180695600Y-99491800D01*
G04 #@! TO.C,C3*
X158685600Y-106200000D02*
X158685600Y-105200000D01*
X156985600Y-105200000D02*
X156985600Y-106200000D01*
G04 #@! TO.C,C6*
X168972600Y-108008800D02*
X168972600Y-107008800D01*
X167272600Y-107008800D02*
X167272600Y-108008800D01*
G04 #@! TO.C,C4*
X147535000Y-101582600D02*
X147535000Y-100582600D01*
X145835000Y-100582600D02*
X145835000Y-101582600D01*
G04 #@! TO.C,C2*
X154799400Y-106200000D02*
X154799400Y-105200000D01*
X153099400Y-105200000D02*
X153099400Y-106200000D01*
G04 #@! TO.C,C1*
X148881200Y-106200000D02*
X148881200Y-105200000D01*
X147181200Y-105200000D02*
X147181200Y-106200000D01*
G04 #@! TO.C,ANT1*
X180930600Y-106603800D02*
G75*
G03X180930600Y-106603800I-1251000J0D01*
G01*
D11*
G04 #@! TO.C,U3*
X162026600Y-91821000D02*
X162026600Y-104821000D01*
X162026600Y-104821000D02*
X181026600Y-104821000D01*
X181026600Y-91821000D02*
X181026600Y-104821000D01*
X162026600Y-91821000D02*
X181026600Y-91821000D01*
G04 #@! TO.C,U1*
X148487600Y-96637200D02*
X149262600Y-96637200D01*
X152787600Y-100937200D02*
X152012600Y-100937200D01*
X152787600Y-96637200D02*
X152012600Y-96637200D01*
X148487600Y-100937200D02*
X148487600Y-100162200D01*
X152787600Y-100937200D02*
X152787600Y-100162200D01*
X152787600Y-96637200D02*
X152787600Y-97412200D01*
X148487600Y-96637200D02*
X148487600Y-97412200D01*
D10*
G04 #@! TO.C,L1*
X151567400Y-105731200D02*
X150367400Y-105731200D01*
X150367400Y-103971200D02*
X151567400Y-103971200D01*
G04 #@! TO.C,D2*
X181799000Y-100326600D02*
X183199000Y-100326600D01*
X183199000Y-100326600D02*
X183199000Y-97526600D01*
X181799000Y-100326600D02*
X181799000Y-97526600D01*
G04 #@! TO.C,D1*
X183199000Y-101290800D02*
X181799000Y-101290800D01*
X181799000Y-101290800D02*
X181799000Y-104090800D01*
X183199000Y-101290800D02*
X183199000Y-104090800D01*
G04 #@! TO.C,R3*
X181669800Y-95215000D02*
X181669800Y-94015000D01*
X183429800Y-94015000D02*
X183429800Y-95215000D01*
G04 #@! TO.C,R2*
X183379000Y-106476200D02*
X183379000Y-107676200D01*
X181619000Y-107676200D02*
X181619000Y-106476200D01*
G04 #@! TO.C,R1*
X144027000Y-108143600D02*
X144027000Y-106943600D01*
X145787000Y-106943600D02*
X145787000Y-108143600D01*
G04 #@! TO.C,U2*
X163014000Y-109041800D02*
X164814000Y-109041800D01*
X164814000Y-105821800D02*
X162364000Y-105821800D01*
G04 #@! TO.C,C3*
D11*
X157668933Y-108657142D02*
X157621314Y-108704761D01*
X157478457Y-108752380D01*
X157383219Y-108752380D01*
X157240361Y-108704761D01*
X157145123Y-108609523D01*
X157097504Y-108514285D01*
X157049885Y-108323809D01*
X157049885Y-108180952D01*
X157097504Y-107990476D01*
X157145123Y-107895238D01*
X157240361Y-107800000D01*
X157383219Y-107752380D01*
X157478457Y-107752380D01*
X157621314Y-107800000D01*
X157668933Y-107847619D01*
X158002266Y-107752380D02*
X158621314Y-107752380D01*
X158287980Y-108133333D01*
X158430838Y-108133333D01*
X158526076Y-108180952D01*
X158573695Y-108228571D01*
X158621314Y-108323809D01*
X158621314Y-108561904D01*
X158573695Y-108657142D01*
X158526076Y-108704761D01*
X158430838Y-108752380D01*
X158145123Y-108752380D01*
X158049885Y-108704761D01*
X158002266Y-108657142D01*
G04 #@! TO.C,C6*
X170140333Y-107976942D02*
X170092714Y-108024561D01*
X169949857Y-108072180D01*
X169854619Y-108072180D01*
X169711761Y-108024561D01*
X169616523Y-107929323D01*
X169568904Y-107834085D01*
X169521285Y-107643609D01*
X169521285Y-107500752D01*
X169568904Y-107310276D01*
X169616523Y-107215038D01*
X169711761Y-107119800D01*
X169854619Y-107072180D01*
X169949857Y-107072180D01*
X170092714Y-107119800D01*
X170140333Y-107167419D01*
X170997476Y-107072180D02*
X170807000Y-107072180D01*
X170711761Y-107119800D01*
X170664142Y-107167419D01*
X170568904Y-107310276D01*
X170521285Y-107500752D01*
X170521285Y-107881704D01*
X170568904Y-107976942D01*
X170616523Y-108024561D01*
X170711761Y-108072180D01*
X170902238Y-108072180D01*
X170997476Y-108024561D01*
X171045095Y-107976942D01*
X171092714Y-107881704D01*
X171092714Y-107643609D01*
X171045095Y-107548371D01*
X170997476Y-107500752D01*
X170902238Y-107453133D01*
X170711761Y-107453133D01*
X170616523Y-107500752D01*
X170568904Y-107548371D01*
X170521285Y-107643609D01*
G04 #@! TO.C,C4*
X148397933Y-102465142D02*
X148350314Y-102512761D01*
X148207457Y-102560380D01*
X148112219Y-102560380D01*
X147969361Y-102512761D01*
X147874123Y-102417523D01*
X147826504Y-102322285D01*
X147778885Y-102131809D01*
X147778885Y-101988952D01*
X147826504Y-101798476D01*
X147874123Y-101703238D01*
X147969361Y-101608000D01*
X148112219Y-101560380D01*
X148207457Y-101560380D01*
X148350314Y-101608000D01*
X148397933Y-101655619D01*
X149255076Y-101893714D02*
X149255076Y-102560380D01*
X149016980Y-101512761D02*
X148778885Y-102227047D01*
X149397933Y-102227047D01*
G04 #@! TO.C,C2*
X153833533Y-108657142D02*
X153785914Y-108704761D01*
X153643057Y-108752380D01*
X153547819Y-108752380D01*
X153404961Y-108704761D01*
X153309723Y-108609523D01*
X153262104Y-108514285D01*
X153214485Y-108323809D01*
X153214485Y-108180952D01*
X153262104Y-107990476D01*
X153309723Y-107895238D01*
X153404961Y-107800000D01*
X153547819Y-107752380D01*
X153643057Y-107752380D01*
X153785914Y-107800000D01*
X153833533Y-107847619D01*
X154214485Y-107847619D02*
X154262104Y-107800000D01*
X154357342Y-107752380D01*
X154595438Y-107752380D01*
X154690676Y-107800000D01*
X154738295Y-107847619D01*
X154785914Y-107942857D01*
X154785914Y-108038095D01*
X154738295Y-108180952D01*
X154166866Y-108752380D01*
X154785914Y-108752380D01*
G04 #@! TO.C,C1*
X147864533Y-108657142D02*
X147816914Y-108704761D01*
X147674057Y-108752380D01*
X147578819Y-108752380D01*
X147435961Y-108704761D01*
X147340723Y-108609523D01*
X147293104Y-108514285D01*
X147245485Y-108323809D01*
X147245485Y-108180952D01*
X147293104Y-107990476D01*
X147340723Y-107895238D01*
X147435961Y-107800000D01*
X147578819Y-107752380D01*
X147674057Y-107752380D01*
X147816914Y-107800000D01*
X147864533Y-107847619D01*
X148816914Y-108752380D02*
X148245485Y-108752380D01*
X148531200Y-108752380D02*
X148531200Y-107752380D01*
X148435961Y-107895238D01*
X148340723Y-107990476D01*
X148245485Y-108038095D01*
G04 #@! TO.C,L1*
X150861733Y-107259380D02*
X150385542Y-107259380D01*
X150385542Y-106259380D01*
X151718876Y-107259380D02*
X151147447Y-107259380D01*
X151433161Y-107259380D02*
X151433161Y-106259380D01*
X151337923Y-106402238D01*
X151242685Y-106497476D01*
X151147447Y-106545095D01*
G04 #@! TO.C,D2*
X178382704Y-98115380D02*
X178382704Y-97115380D01*
X178620800Y-97115380D01*
X178763657Y-97163000D01*
X178858895Y-97258238D01*
X178906514Y-97353476D01*
X178954133Y-97543952D01*
X178954133Y-97686809D01*
X178906514Y-97877285D01*
X178858895Y-97972523D01*
X178763657Y-98067761D01*
X178620800Y-98115380D01*
X178382704Y-98115380D01*
X179335085Y-97210619D02*
X179382704Y-97163000D01*
X179477942Y-97115380D01*
X179716038Y-97115380D01*
X179811276Y-97163000D01*
X179858895Y-97210619D01*
X179906514Y-97305857D01*
X179906514Y-97401095D01*
X179858895Y-97543952D01*
X179287466Y-98115380D01*
X179906514Y-98115380D01*
G04 #@! TO.C,D1*
X178382704Y-99893380D02*
X178382704Y-98893380D01*
X178620800Y-98893380D01*
X178763657Y-98941000D01*
X178858895Y-99036238D01*
X178906514Y-99131476D01*
X178954133Y-99321952D01*
X178954133Y-99464809D01*
X178906514Y-99655285D01*
X178858895Y-99750523D01*
X178763657Y-99845761D01*
X178620800Y-99893380D01*
X178382704Y-99893380D01*
X179906514Y-99893380D02*
X179335085Y-99893380D01*
X179620800Y-99893380D02*
X179620800Y-98893380D01*
X179525561Y-99036238D01*
X179430323Y-99131476D01*
X179335085Y-99179095D01*
G04 #@! TO.C,R3*
X182357733Y-92832180D02*
X182024400Y-92355990D01*
X181786304Y-92832180D02*
X181786304Y-91832180D01*
X182167257Y-91832180D01*
X182262495Y-91879800D01*
X182310114Y-91927419D01*
X182357733Y-92022657D01*
X182357733Y-92165514D01*
X182310114Y-92260752D01*
X182262495Y-92308371D01*
X182167257Y-92355990D01*
X181786304Y-92355990D01*
X182691066Y-91832180D02*
X183310114Y-91832180D01*
X182976780Y-92213133D01*
X183119638Y-92213133D01*
X183214876Y-92260752D01*
X183262495Y-92308371D01*
X183310114Y-92403609D01*
X183310114Y-92641704D01*
X183262495Y-92736942D01*
X183214876Y-92784561D01*
X183119638Y-92832180D01*
X182833923Y-92832180D01*
X182738685Y-92784561D01*
X182691066Y-92736942D01*
G04 #@! TO.C,R2*
X182357733Y-109748580D02*
X182024400Y-109272390D01*
X181786304Y-109748580D02*
X181786304Y-108748580D01*
X182167257Y-108748580D01*
X182262495Y-108796200D01*
X182310114Y-108843819D01*
X182357733Y-108939057D01*
X182357733Y-109081914D01*
X182310114Y-109177152D01*
X182262495Y-109224771D01*
X182167257Y-109272390D01*
X181786304Y-109272390D01*
X182738685Y-108843819D02*
X182786304Y-108796200D01*
X182881542Y-108748580D01*
X183119638Y-108748580D01*
X183214876Y-108796200D01*
X183262495Y-108843819D01*
X183310114Y-108939057D01*
X183310114Y-109034295D01*
X183262495Y-109177152D01*
X182691066Y-109748580D01*
X183310114Y-109748580D01*
G04 #@! TO.C,R1*
X142708333Y-108884980D02*
X142375000Y-108408790D01*
X142136904Y-108884980D02*
X142136904Y-107884980D01*
X142517857Y-107884980D01*
X142613095Y-107932600D01*
X142660714Y-107980219D01*
X142708333Y-108075457D01*
X142708333Y-108218314D01*
X142660714Y-108313552D01*
X142613095Y-108361171D01*
X142517857Y-108408790D01*
X142136904Y-108408790D01*
X143660714Y-108884980D02*
X143089285Y-108884980D01*
X143375000Y-108884980D02*
X143375000Y-107884980D01*
X143279761Y-108027838D01*
X143184523Y-108123076D01*
X143089285Y-108170695D01*
G04 #@! TD*
M02*
